<svg id="svg" version="1.1" xmlns="http://www.w3.org/2000/svg" xmlns:xlink="http://www.w3.org/1999/xlink" width="400" height="200.0846381718155" viewBox="0, 0, 400,200.0846381718155"><g id="svgg"><path id="path0" d="M185.696 88.182 C 183.712 88.788,182.379 90.279,181.977 92.342 C 181.635 94.098,181.820 105.671,182.206 106.685 C 182.630 107.802,183.804 109.052,184.887 109.541 L 185.781 109.945 192.806 109.945 L 199.831 109.945 200.677 109.494 C 203.293 108.100,203.543 107.342,203.606 100.592 L 203.657 95.133 206.949 95.133 L 210.241 95.133 210.241 102.497 L 210.241 109.860 213.965 109.860 L 217.689 109.860 217.689 102.497 L 217.689 95.133 220.106 95.133 L 222.524 95.133 223.577 94.071 L 224.630 93.008 224.630 90.601 L 224.630 88.193 213.881 88.193 L 203.132 88.193 203.131 89.590 L 203.130 90.986 202.817 90.472 C 202.303 89.629,201.010 88.608,200.074 88.306 C 199.135 88.003,186.636 87.895,185.696 88.182 M143.504 88.320 L 137.114 88.366 137.114 99.029 L 137.114 109.691 140.570 109.691 C 142.471 109.691,144.128 109.730,144.252 109.778 C 144.435 109.848,144.467 109.348,144.421 107.087 L 144.364 104.310 148.991 104.233 C 154.819 104.136,156.231 103.634,157.451 101.227 C 157.930 100.281,158.119 95.203,157.765 92.797 C 157.305 89.670,155.014 88.106,151.079 88.235 C 150.427 88.256,147.019 88.294,143.504 88.320 M160.178 88.313 L 159.289 88.380 159.289 99.120 L 159.289 109.860 163.013 109.860 L 166.737 109.860 166.737 106.559 L 166.737 103.259 168.053 103.259 L 169.368 103.259 171.913 106.517 L 174.457 109.776 177.707 109.822 L 180.956 109.868 180.956 107.725 L 180.956 105.582 179.452 103.864 L 177.947 102.145 178.506 101.779 C 180.110 100.727,180.449 99.660,180.449 95.650 C 180.449 91.220,179.672 89.564,177.148 88.610 C 176.330 88.301,163.356 88.074,160.178 88.313 M224.968 99.027 L 224.968 109.860 234.702 109.860 L 244.435 109.860 244.435 106.390 L 244.435 102.920 238.510 102.920 C 233.357 102.920,232.586 102.887,232.586 102.666 C 232.586 102.447,233.188 102.412,236.987 102.412 L 241.388 102.412 241.388 99.027 L 241.388 95.641 236.987 95.641 C 233.188 95.641,232.586 95.606,232.586 95.387 C 232.586 95.168,233.230 95.133,237.372 95.133 L 242.159 95.133 243.297 93.986 L 244.435 92.840 244.435 90.516 L 244.435 88.193 234.702 88.193 L 224.968 88.193 224.968 99.027 M249.074 88.367 C 247.405 88.698,246.089 89.669,245.311 91.145 L 244.858 92.002 244.858 99.027 L 244.858 106.052 245.316 106.919 C 246.738 109.616,247.243 109.744,256.750 109.821 L 264.579 109.884 264.579 106.422 L 264.579 102.959 258.400 102.834 L 252.222 102.709 252.222 98.921 L 252.222 95.133 257.337 95.133 L 262.451 95.133 263.261 94.336 L 264.071 93.538 264.071 94.336 L 264.071 95.133 267.626 95.133 L 271.181 95.133 271.181 102.497 L 271.181 109.860 274.905 109.860 L 278.629 109.860 278.629 102.497 L 278.629 95.133 281.046 95.133 L 283.463 95.133 284.516 94.071 L 285.569 93.008 285.569 90.601 L 285.569 88.193 267.668 88.212 C 257.823 88.222,249.455 88.292,249.074 88.367 M285.908 99.027 L 285.908 109.860 295.641 109.860 L 305.375 109.860 305.375 106.390 L 305.375 102.920 299.450 102.920 C 294.296 102.920,293.525 102.887,293.525 102.666 C 293.525 102.447,294.127 102.412,297.926 102.412 L 302.328 102.412 302.328 99.027 L 302.328 95.641 297.926 95.641 C 294.127 95.641,293.525 95.606,293.525 95.387 C 293.525 95.168,294.170 95.133,298.312 95.133 L 303.098 95.133 304.236 93.986 L 305.375 92.840 305.375 90.516 L 305.375 88.193 295.641 88.193 L 285.908 88.193 285.908 99.027 M306.390 99.028 L 306.390 109.880 315.066 109.821 C 325.104 109.753,324.752 109.804,326.380 108.178 C 327.959 106.601,327.973 106.521,327.973 99.027 C 327.973 91.644,327.946 91.479,326.488 89.937 C 324.894 88.252,325.126 88.287,315.066 88.227 L 306.390 88.176 306.390 99.028 M98.519 99.032 L 98.519 109.703 107.364 109.655 L 116.208 109.606 117.115 109.104 C 120.732 107.100,120.451 100.090,116.703 98.853 C 115.946 98.603,115.971 98.491,116.881 98.049 C 119.409 96.821,119.795 92.035,117.550 89.773 C 116.137 88.350,116.233 88.362,106.698 88.362 L 98.519 88.362 98.519 99.032 M199.237 89.224 C 200.456 89.486,201.418 90.267,202.031 91.494 L 202.539 92.510 202.539 99.027 C 202.539 106.363,202.493 106.658,201.157 107.831 C 199.891 108.942,199.989 108.929,192.806 108.929 L 186.289 108.929 185.314 108.451 C 184.271 107.938,183.594 107.201,183.229 106.179 C 182.901 105.260,182.901 92.793,183.229 91.874 C 183.703 90.546,184.838 89.553,186.289 89.198 C 187.123 88.994,198.268 89.016,199.237 89.224 M154.023 89.625 C 156.364 90.451,156.835 91.570,156.835 96.318 C 156.835 102.734,156.382 103.104,148.413 103.215 L 143.377 103.285 143.377 105.980 L 143.377 108.675 140.753 108.675 L 138.129 108.675 138.129 99.027 L 138.129 89.378 145.726 89.378 C 151.956 89.378,153.448 89.422,154.023 89.625 M176.424 89.555 C 178.606 90.161,179.330 91.564,179.405 95.338 C 179.487 99.469,178.792 100.918,176.426 101.551 C 176.047 101.652,176.137 101.789,177.897 103.799 L 179.771 105.939 179.771 107.312 L 179.771 108.685 177.366 108.638 L 174.961 108.591 172.415 105.333 L 169.869 102.076 167.795 102.075 L 165.722 102.074 165.722 105.375 L 165.722 108.675 163.013 108.675 L 160.305 108.675 160.305 99.027 L 160.305 89.378 168.049 89.379 C 172.862 89.379,176.032 89.446,176.424 89.555 M223.614 90.854 L 223.614 92.330 222.731 93.224 L 221.848 94.118 219.176 94.118 L 216.504 94.118 216.504 101.397 L 216.504 108.675 213.881 108.675 L 211.257 108.675 211.257 101.397 L 211.257 94.118 207.787 94.118 L 204.317 94.118 204.317 91.748 L 204.317 89.378 213.965 89.378 L 223.614 89.378 223.614 90.854 M243.419 90.853 L 243.419 92.329 242.622 93.138 L 241.824 93.948 236.612 93.948 L 231.401 93.948 231.401 95.387 L 231.401 96.826 235.802 96.826 L 240.203 96.826 240.203 99.027 L 240.203 101.227 235.802 101.227 L 231.401 101.227 231.401 102.666 L 231.401 104.105 237.410 104.105 L 243.419 104.105 243.419 106.390 L 243.419 108.675 234.786 108.675 L 226.153 108.675 226.153 99.027 L 226.153 89.378 234.786 89.378 L 243.419 89.378 243.419 90.853 M263.563 90.854 L 263.563 92.330 262.680 93.224 L 261.797 94.118 256.798 94.120 C 251.488 94.123,251.494 94.122,251.217 94.852 C 250.731 96.128,251.043 103.450,251.598 103.803 C 251.708 103.873,254.446 103.932,257.681 103.933 L 263.563 103.936 263.563 106.306 L 263.563 108.675 256.569 108.675 C 245.498 108.675,245.789 108.936,245.789 99.027 C 245.789 92.236,245.847 91.850,247.042 90.655 C 248.285 89.412,248.327 89.406,256.411 89.391 L 263.563 89.378 263.563 90.854 M284.554 90.854 L 284.554 92.330 283.671 93.224 L 282.788 94.118 280.116 94.118 L 277.444 94.118 277.444 101.397 L 277.444 108.675 274.820 108.675 L 272.196 108.675 272.196 101.397 L 272.196 94.118 268.726 94.118 L 265.256 94.118 265.256 91.748 L 265.256 89.378 274.905 89.378 L 284.554 89.378 284.554 90.854 M304.359 90.853 L 304.359 92.329 303.561 93.138 L 302.763 93.948 297.552 93.948 L 292.340 93.948 292.340 95.387 L 292.340 96.826 296.741 96.826 L 301.143 96.826 301.143 99.027 L 301.143 101.227 296.741 101.227 L 292.340 101.227 292.340 102.666 L 292.340 104.105 298.350 104.105 L 304.359 104.105 304.359 106.390 L 304.359 108.675 295.726 108.675 L 287.093 108.675 287.093 99.027 L 287.093 89.378 295.726 89.378 L 304.359 89.378 304.359 90.853 M324.587 89.828 C 326.741 90.990,326.788 91.188,326.788 99.027 L 326.788 105.713 326.319 106.511 C 325.073 108.631,324.849 108.675,315.425 108.675 L 307.575 108.675 307.575 99.020 L 307.575 89.366 315.743 89.414 C 323.741 89.462,323.924 89.470,324.587 89.828 M112.574 93.105 C 113.307 93.497,113.398 95.636,112.708 96.261 C 112.395 96.545,112.010 96.572,108.362 96.572 L 104.359 96.572 104.311 94.752 L 104.263 92.933 108.258 92.933 C 110.642 92.933,112.382 93.002,112.574 93.105 M188.828 93.976 C 188.253 94.311,188.241 94.417,188.238 99.057 C 188.235 104.035,188.226 103.993,189.299 104.194 C 190.731 104.461,196.718 104.202,196.967 103.861 C 197.319 103.378,197.319 94.675,196.967 94.192 C 196.674 93.791,189.474 93.600,188.828 93.976 M143.377 96.234 L 143.377 98.350 147.237 98.350 C 151.806 98.350,151.502 98.495,151.502 96.311 C 151.502 93.995,151.747 94.118,147.130 94.118 L 143.377 94.118 143.377 96.234 M165.722 95.726 L 165.722 97.334 169.573 97.331 C 173.579 97.329,173.672 97.315,173.991 96.710 C 174.371 95.987,174.159 94.614,173.610 94.247 C 173.507 94.179,171.691 94.122,169.573 94.120 L 165.722 94.118 165.722 95.726 M312.823 99.027 L 312.823 103.936 316.885 103.936 C 322.163 103.936,321.625 104.492,321.625 99.027 C 321.625 93.561,322.163 94.118,316.885 94.118 L 312.823 94.118 312.823 99.027 M196.191 99.030 L 196.191 103.096 192.763 103.050 L 189.336 103.005 189.275 102.581 C 189.242 102.349,189.269 100.540,189.336 98.561 L 189.458 94.964 192.824 94.964 L 196.191 94.964 196.191 99.030 M150.487 96.208 L 150.487 97.283 148.836 97.392 C 147.928 97.452,146.557 97.502,145.789 97.502 L 144.393 97.503 144.393 96.318 L 144.393 95.133 147.440 95.133 L 150.487 95.133 150.487 96.208 M172.969 95.683 L 172.916 96.234 169.826 96.280 L 166.737 96.326 166.737 95.730 L 166.737 95.133 169.880 95.133 L 173.022 95.133 172.969 95.683 M320.401 98.984 L 320.355 102.835 317.182 102.881 L 314.008 102.927 314.008 99.030 L 314.008 95.133 317.227 95.133 L 320.446 95.133 320.401 98.984 M126.247 96.156 C 124.023 97.330,124.045 100.764,126.283 101.906 C 128.406 102.989,131.020 101.400,131.020 99.027 C 131.020 96.635,128.365 95.037,126.247 96.156 M113.415 101.566 C 113.693 101.844,113.754 102.130,113.754 103.162 C 113.754 105.157,113.849 105.121,108.568 105.121 L 104.274 105.121 104.274 103.174 L 104.274 101.227 108.675 101.227 C 112.851 101.227,113.094 101.245,113.415 101.566 " stroke="none" fill="#f9f9f9" fill-rule="evenodd"></path><path id="path1" d="M110.876 57.394 C 97.909 58.504,86.266 61.581,76.476 66.485 C 72.235 68.610,71.899 68.876,72.131 69.926 C 73.400 75.661,77.243 85.607,80.523 91.647 C 83.249 96.665,83.614 96.996,82.468 93.410 C 80.446 87.085,78.554 77.169,78.546 72.857 L 78.544 71.994 80.906 70.870 C 89.146 66.949,101.368 63.748,110.707 63.064 C 111.033 63.040,111.659 62.855,112.098 62.652 C 115.192 61.222,119.656 61.155,123.275 62.485 C 123.811 62.682,124.249 62.893,124.249 62.954 C 124.249 63.016,124.496 63.072,124.799 63.078 C 128.548 63.163,139.885 65.447,145.387 67.226 C 149.590 68.584,155.828 71.177,156.620 71.894 C 157.282 72.492,156.495 79.366,155.002 86.038 L 154.443 88.538 155.194 88.958 C 155.608 89.189,155.980 89.378,156.022 89.378 C 156.937 89.378,164.104 69.561,163.426 68.908 C 162.955 68.455,154.912 64.534,152.518 63.590 C 145.299 60.744,136.506 58.685,127.042 57.622 C 124.249 57.309,113.624 57.159,110.876 57.394 M112.146 66.038 C 107.107 66.421,104.057 67.008,93.694 69.586 C 84.195 71.950,85.198 71.584,85.030 72.756 C 84.005 79.919,86.617 98.432,89.805 106.599 C 94.131 117.683,104.728 127.743,116.257 131.711 L 117.829 132.252 119.727 131.533 C 128.328 128.274,136.206 122.176,141.383 114.769 C 142.125 113.707,144.223 110.156,144.223 109.962 C 144.223 109.910,142.605 109.847,140.626 109.821 L 137.029 109.776 137.029 99.027 L 137.029 88.278 143.481 88.233 L 149.933 88.189 150.125 86.456 C 150.693 81.336,150.822 72.886,150.347 71.997 C 150.154 71.637,136.209 68.052,131.443 67.137 C 125.432 65.983,118.247 65.574,112.146 66.038 M73.466 81.601 C 73.466 82.485,74.843 89.611,75.585 92.569 C 81.426 115.852,95.589 133.328,115.678 142.041 C 117.532 142.845,117.934 142.854,119.621 142.131 C 136.539 134.876,149.476 121.214,156.577 103.104 L 156.936 102.189 156.229 102.827 C 155.186 103.769,154.212 104.138,152.509 104.235 L 151.045 104.318 150.309 105.524 C 141.705 119.612,131.348 129.825,119.791 135.619 L 117.742 136.646 116.129 135.846 C 98.946 127.329,83.701 108.148,74.487 83.453 C 73.711 81.372,73.466 80.928,73.466 81.601 M161.422 82.438 C 160.305 85.336,159.272 87.885,158.465 89.737 C 157.707 91.476,157.626 91.770,157.771 92.275 C 157.861 92.589,157.941 94.294,157.950 96.063 L 157.964 99.281 158.568 97.503 C 159.169 95.734,159.173 95.708,159.273 92.002 L 159.374 88.278 160.178 88.226 C 160.620 88.198,160.982 88.134,160.982 88.084 C 160.982 88.034,161.215 86.660,161.500 85.032 C 162.139 81.376,162.117 80.635,161.422 82.438 M121.562 83.938 C 130.426 86.254,135.020 96.049,131.168 104.420 C 127.478 112.438,117.310 115.407,109.924 110.622 L 108.760 109.868 103.639 109.864 L 98.519 109.860 98.519 99.027 L 98.519 88.193 102.801 88.193 L 107.083 88.193 107.752 87.499 C 110.945 84.190,116.775 82.687,121.562 83.938 M144.562 96.234 L 144.562 97.334 146.421 97.334 C 148.505 97.334,148.255 97.504,148.605 95.853 L 148.758 95.133 146.660 95.133 L 144.562 95.133 144.562 96.234 M144.567 106.771 L 144.572 109.268 145.066 108.160 C 145.338 107.551,145.791 106.427,146.073 105.663 L 146.585 104.274 145.573 104.274 L 144.562 104.274 144.567 106.771 " stroke="none" fill="#043c68" fill-rule="evenodd"></path><path id="path2" d="M185.441 89.607 C 183.168 90.665,182.988 91.356,182.988 99.027 C 182.988 109.014,182.719 108.734,192.383 108.811 C 199.497 108.868,199.810 108.834,200.930 107.875 C 202.399 106.618,202.370 106.799,202.370 99.027 C 202.370 88.825,202.748 89.208,192.658 89.210 C 186.343 89.212,186.281 89.215,185.441 89.607 M138.129 99.017 L 138.129 108.675 140.753 108.675 L 143.377 108.675 143.377 105.891 L 143.377 103.107 148.582 103.056 C 154.374 102.999,154.309 103.011,155.604 101.770 C 157.434 100.017,157.263 92.077,155.361 90.474 C 154.144 89.448,154.317 89.467,145.874 89.411 L 138.129 89.359 138.129 99.017 M160.474 99.019 L 160.474 108.675 163.013 108.675 L 165.552 108.675 165.552 105.370 L 165.552 102.064 167.786 102.111 L 170.020 102.158 172.568 105.416 L 175.116 108.675 177.444 108.675 L 179.771 108.675 179.771 107.361 L 179.771 106.046 177.916 103.933 C 175.719 101.432,175.816 101.764,177.108 101.143 C 179.051 100.208,179.552 98.814,179.390 94.795 C 179.271 91.822,178.693 90.671,176.894 89.822 C 176.157 89.474,175.878 89.461,168.303 89.412 L 160.474 89.362 160.474 99.019 M204.317 91.660 L 204.317 93.942 207.829 93.987 L 211.342 94.033 211.386 101.354 L 211.430 108.675 213.967 108.675 L 216.504 108.675 216.504 101.312 L 216.504 93.948 219.262 93.948 L 222.020 93.948 222.732 93.223 L 223.445 92.497 223.445 90.937 L 223.445 89.378 213.881 89.378 L 204.317 89.378 204.317 91.660 M226.153 99.027 L 226.153 108.675 234.702 108.675 L 243.250 108.675 243.250 106.390 L 243.250 104.105 237.325 104.105 L 231.401 104.105 231.401 102.666 L 231.401 101.227 235.802 101.227 L 240.203 101.227 240.203 99.027 L 240.203 96.826 235.802 96.826 L 231.401 96.826 231.401 95.387 L 231.401 93.948 236.528 93.948 L 241.655 93.948 242.452 93.138 L 243.250 92.329 243.250 90.853 L 243.250 89.378 234.702 89.378 L 226.153 89.378 226.153 99.027 M249.127 89.563 C 246.245 90.241,245.959 91.097,245.959 99.027 C 245.959 105.748,245.996 106.062,246.917 107.138 C 248.156 108.586,248.143 108.584,256.242 108.643 L 263.394 108.695 263.394 106.316 L 263.394 103.936 257.479 103.936 L 251.564 103.936 251.300 103.559 C 250.833 102.892,250.915 94.789,251.393 94.355 C 251.724 94.056,252.112 94.029,256.852 93.982 L 261.955 93.932 262.675 93.228 L 263.394 92.524 263.394 90.951 L 263.394 89.378 256.581 89.395 C 252.833 89.404,249.479 89.480,249.127 89.563 M265.256 91.660 L 265.256 93.942 268.769 93.987 L 272.281 94.033 272.325 101.354 L 272.369 108.675 274.907 108.675 L 277.444 108.675 277.444 101.312 L 277.444 93.948 280.202 93.948 L 282.960 93.948 283.672 93.223 L 284.384 92.497 284.384 90.937 L 284.384 89.378 274.820 89.378 L 265.256 89.378 265.256 91.660 M287.093 99.027 L 287.093 108.675 295.641 108.675 L 304.190 108.675 304.190 106.390 L 304.190 104.105 298.265 104.105 L 292.340 104.105 292.340 102.666 L 292.340 101.227 296.741 101.227 L 301.143 101.227 301.143 99.027 L 301.143 96.826 296.741 96.826 L 292.340 96.826 292.340 95.387 L 292.340 93.948 297.467 93.948 L 302.594 93.948 303.392 93.138 L 304.190 92.329 304.190 90.853 L 304.190 89.378 295.641 89.378 L 287.093 89.378 287.093 99.027 M307.575 99.028 L 307.575 108.694 315.573 108.642 C 327.290 108.567,326.788 108.997,326.788 99.027 C 326.788 92.173,326.769 92.028,325.710 90.852 C 324.441 89.444,324.620 89.469,315.573 89.412 L 307.575 89.362 307.575 99.028 M197.025 94.225 C 197.360 94.650,197.376 94.877,197.376 99.027 C 197.376 103.177,197.360 103.403,197.025 103.828 L 196.675 104.274 192.831 104.274 C 187.691 104.274,188.235 104.891,188.235 99.073 C 188.235 93.142,187.694 93.779,192.735 93.779 L 196.675 93.779 197.025 94.225 M151.348 94.433 C 151.834 95.033,151.816 97.443,151.321 98.073 L 150.970 98.519 147.173 98.519 L 143.377 98.519 143.377 96.222 L 143.377 93.925 147.201 93.979 C 150.985 94.032,151.028 94.037,151.348 94.433 M173.829 94.355 C 174.116 94.615,174.185 94.876,174.185 95.696 C 174.185 97.380,174.316 97.334,169.589 97.334 L 165.552 97.334 165.552 95.754 C 165.552 94.885,165.607 94.119,165.674 94.053 C 165.983 93.743,173.460 94.021,173.829 94.355 M321.269 94.355 C 321.762 94.802,321.829 103.091,321.345 103.626 C 321.088 103.910,320.721 103.936,316.944 103.936 L 312.823 103.936 312.823 98.933 L 312.823 93.931 316.868 93.982 C 320.567 94.029,320.944 94.061,321.269 94.355 " stroke="none" fill="#040404" fill-rule="evenodd"></path><path id="path3" d="M115.700 61.623 C 114.415 61.823,112.492 62.402,111.722 62.820 L 111.130 63.142 111.807 63.015 C 112.677 62.853,123.168 62.859,123.783 63.023 C 124.642 63.251,124.260 62.847,123.275 62.485 C 121.012 61.654,117.829 61.292,115.700 61.623 M115.193 83.696 C 112.364 84.258,109.782 85.560,107.911 87.367 L 107.063 88.187 102.748 88.235 C 100.376 88.262,102.134 88.301,106.656 88.323 C 116.231 88.369,116.145 88.357,117.550 89.773 C 119.795 92.035,119.409 96.821,116.881 98.049 C 115.971 98.491,115.946 98.603,116.703 98.853 C 120.451 100.090,120.732 107.100,117.115 109.104 L 116.208 109.606 107.321 109.695 C 100.134 109.767,99.422 109.792,103.597 109.826 L 108.760 109.868 109.924 110.622 C 119.631 116.910,132.456 109.876,132.456 98.265 C 132.455 88.926,124.149 81.916,115.193 83.696 M137.022 88.405 C 136.978 88.521,136.961 93.377,136.985 99.196 L 137.029 109.776 140.076 109.781 L 143.123 109.787 140.118 109.735 L 137.114 109.683 137.114 99.026 L 137.114 88.369 140.542 88.320 L 143.970 88.270 140.536 88.232 C 137.917 88.202,137.084 88.243,137.022 88.405 M104.311 94.752 L 104.359 96.572 108.362 96.572 C 113.231 96.572,113.712 96.307,113.083 93.970 C 112.810 92.958,112.694 92.933,108.258 92.933 L 104.263 92.933 104.311 94.752 M144.448 96.234 C 144.449 96.885,144.480 97.131,144.516 96.780 C 144.553 96.429,144.552 95.896,144.515 95.595 C 144.477 95.295,144.448 95.582,144.448 96.234 M129.124 96.050 C 132.257 97.691,131.223 102.243,127.718 102.243 C 124.471 102.243,123.368 97.676,126.247 96.156 C 126.997 95.760,128.466 95.705,129.124 96.050 M104.286 103.216 C 104.293 104.310,104.356 105.058,104.426 104.879 C 104.540 104.587,104.565 104.583,104.663 104.837 C 104.760 105.091,105.187 105.121,108.817 105.121 C 113.814 105.121,113.754 105.144,113.754 103.162 C 113.754 101.148,113.961 101.227,108.675 101.227 L 104.274 101.227 104.286 103.216 M144.447 105.290 C 144.447 105.895,144.478 106.143,144.515 105.840 C 144.553 105.537,144.553 105.042,144.515 104.740 C 144.478 104.437,144.447 104.685,144.447 105.290 M144.432 107.152 C 144.432 107.478,144.467 107.611,144.509 107.448 C 144.552 107.285,144.552 107.019,144.509 106.856 C 144.467 106.693,144.432 106.826,144.432 107.152 " stroke="none" fill="#065797" fill-rule="evenodd"></path><path id="path4" d="M145.705 88.319 C 146.473 88.350,147.730 88.350,148.498 88.319 C 149.266 88.288,148.637 88.262,147.101 88.262 C 145.565 88.262,144.937 88.288,145.705 88.319 M159.842 88.314 C 160.099 88.353,160.480 88.352,160.688 88.312 C 160.896 88.272,160.686 88.240,160.220 88.241 C 159.755 88.243,159.584 88.276,159.842 88.314 M189.727 89.166 C 191.433 89.194,194.175 89.194,195.821 89.166 C 197.468 89.138,196.073 89.116,192.721 89.116 C 189.369 89.116,188.022 89.138,189.727 89.166 M160.384 99.027 C 160.384 104.380,160.405 106.570,160.432 103.893 C 160.458 101.217,160.458 96.837,160.432 94.160 C 160.405 91.483,160.384 93.673,160.384 99.027 M223.506 90.901 C 223.506 91.786,223.534 92.148,223.569 91.705 C 223.604 91.263,223.604 90.540,223.569 90.097 C 223.534 89.655,223.506 90.017,223.506 90.901 M243.285 90.811 L 243.250 92.329 242.448 93.181 L 241.646 94.033 242.540 93.178 L 243.434 92.322 243.377 90.808 L 243.320 89.293 243.285 90.811 M263.455 90.901 C 263.455 91.786,263.484 92.148,263.518 91.705 C 263.553 91.263,263.553 90.540,263.518 90.097 C 263.484 89.655,263.455 90.017,263.455 90.901 M284.445 90.901 C 284.445 91.786,284.474 92.148,284.509 91.705 C 284.544 91.263,284.544 90.540,284.509 90.097 C 284.474 89.655,284.445 90.017,284.445 90.901 M304.224 90.811 L 304.190 92.329 303.388 93.181 L 302.586 94.033 303.479 93.178 L 304.373 92.322 304.316 90.808 L 304.259 89.293 304.224 90.811 M200.762 89.939 C 200.762 89.968,201.009 90.215,201.312 90.489 L 201.862 90.986 201.365 90.436 C 200.901 89.923,200.762 89.808,200.762 89.939 M325.518 90.647 C 325.834 90.973,326.131 91.240,326.177 91.240 C 326.224 91.240,326.004 90.973,325.688 90.647 C 325.372 90.322,325.075 90.055,325.029 90.055 C 324.982 90.055,325.203 90.322,325.518 90.647 M245.866 99.027 C 245.866 102.425,245.888 103.815,245.916 102.116 C 245.944 100.417,245.944 97.636,245.916 95.937 C 245.888 94.238,245.866 95.628,245.866 99.027 M156.820 96.234 C 156.821 98.003,156.846 98.703,156.876 97.791 C 156.907 96.878,156.907 95.431,156.876 94.574 C 156.845 93.718,156.820 94.465,156.820 96.234 M202.531 99.027 C 202.531 102.239,202.553 103.553,202.581 101.947 C 202.609 100.341,202.609 97.713,202.581 96.107 C 202.553 94.501,202.531 95.815,202.531 99.027 M145.112 94.075 C 146.113 94.105,147.751 94.105,148.752 94.075 C 149.752 94.045,148.934 94.020,146.932 94.020 C 144.930 94.020,144.111 94.045,145.112 94.075 M165.625 94.173 C 165.577 94.297,165.564 95.078,165.595 95.908 L 165.652 97.419 165.687 95.771 L 165.722 94.124 169.488 94.075 L 173.254 94.026 169.483 93.987 C 166.474 93.956,165.693 93.994,165.625 94.173 M207.743 94.073 L 211.253 94.125 211.300 101.400 L 211.347 108.675 211.344 101.354 L 211.342 94.033 207.787 94.028 L 204.232 94.022 207.743 94.073 M217.816 94.074 C 218.584 94.106,219.841 94.106,220.609 94.074 C 221.377 94.043,220.749 94.017,219.213 94.017 C 217.677 94.017,217.048 94.043,217.816 94.074 M254.644 94.075 C 256.023 94.104,258.232 94.103,259.553 94.075 C 260.874 94.046,259.746 94.023,257.046 94.023 C 254.346 94.023,253.265 94.047,254.644 94.075 M268.682 94.073 L 272.193 94.125 272.240 101.400 L 272.286 108.675 272.284 101.354 L 272.281 94.033 268.726 94.028 L 265.171 94.022 268.682 94.073 M278.756 94.074 C 279.524 94.106,280.781 94.106,281.549 94.074 C 282.317 94.043,281.689 94.017,280.152 94.017 C 278.616 94.017,277.988 94.043,278.756 94.074 M314.727 94.075 C 315.821 94.104,317.611 94.104,318.705 94.075 C 319.799 94.045,318.904 94.021,316.716 94.021 C 314.528 94.021,313.633 94.045,314.727 94.075 M197.281 99.027 C 197.281 101.494,197.305 102.503,197.333 101.270 C 197.362 100.036,197.362 98.017,197.333 96.784 C 197.305 95.550,197.281 96.559,197.281 99.027 M151.562 96.234 C 151.562 97.072,151.591 97.436,151.626 97.043 C 151.662 96.650,151.662 95.964,151.627 95.519 C 151.592 95.074,151.563 95.396,151.562 96.234 M145.373 97.459 C 145.958 97.493,146.872 97.492,147.404 97.459 C 147.936 97.425,147.457 97.398,146.339 97.399 C 145.222 97.399,144.787 97.426,145.373 97.459 M145.291 98.476 C 146.390 98.506,148.142 98.505,149.184 98.476 C 150.226 98.446,149.327 98.422,147.186 98.422 C 145.044 98.422,144.192 98.447,145.291 98.476 M155.470 101.947 L 154.972 102.497 155.523 102.000 C 155.825 101.726,156.073 101.479,156.073 101.449 C 156.073 101.319,155.933 101.434,155.470 101.947 M156.233 102.708 L 155.650 103.343 156.284 102.760 C 156.875 102.217,156.997 102.074,156.868 102.074 C 156.839 102.074,156.554 102.359,156.233 102.708 M165.623 105.375 C 165.623 107.237,165.648 108.021,165.678 107.119 C 165.709 106.216,165.709 104.692,165.679 103.733 C 165.648 102.774,165.624 103.512,165.623 105.375 M145.715 103.216 C 147.047 103.245,149.180 103.244,150.455 103.216 C 151.729 103.187,150.639 103.164,148.032 103.164 C 145.425 103.164,144.383 103.187,145.715 103.216 M263.461 106.306 C 263.461 107.656,263.488 108.208,263.520 107.533 C 263.552 106.858,263.552 105.753,263.520 105.078 C 263.488 104.403,263.461 104.956,263.461 106.306 M243.317 106.390 C 243.317 107.694,243.344 108.204,243.376 107.525 C 243.408 106.846,243.408 105.780,243.375 105.156 C 243.343 104.531,243.317 105.087,243.317 106.390 M304.256 106.390 C 304.257 107.694,304.283 108.204,304.315 107.525 C 304.348 106.846,304.347 105.780,304.315 105.156 C 304.282 104.531,304.256 105.087,304.256 106.390 M201.174 107.702 L 200.677 108.252 201.227 107.755 C 201.740 107.292,201.855 107.152,201.724 107.152 C 201.695 107.152,201.448 107.399,201.174 107.702 M144.443 108.506 C 144.443 109.018,144.475 109.228,144.514 108.972 C 144.553 108.716,144.553 108.297,144.514 108.041 C 144.475 107.785,144.443 107.994,144.443 108.506 M189.801 108.971 C 191.454 108.999,194.158 108.999,195.810 108.971 C 197.463 108.944,196.111 108.921,192.806 108.921 C 189.501 108.921,188.149 108.944,189.801 108.971 " stroke="none" fill="#616161" fill-rule="evenodd"></path></g></svg>