<?xml version="1.0" encoding="UTF-8"?>
<svg id="Vrstva_1" xmlns="http://www.w3.org/2000/svg" version="1.1" xmlns:xlink="http://www.w3.org/1999/xlink" viewBox="0 0 283.46 94.8">
  <!-- Generator: Adobe Illustrator 29.7.1, SVG Export Plug-In . SVG Version: 2.1.1 Build 8)  -->
  <defs>
    <style>
      .st0 {
        fill: #1d1d1b;
      }

      .st1 {
        fill: #fff;
      }

      .st2 {
        fill: url(#radial-gradient);
      }

      .st3 {
        fill: url(#radial-gradient5);
      }

      .st4 {
        fill: url(#radial-gradient1);
      }

      .st5 {
        clip-path: url(#clippath-1);
      }

      .st6 {
        fill: url(#radial-gradient7);
      }

      .st7 {
        clip-path: url(#clippath-3);
      }

      .st8 {
        fill: url(#radial-gradient6);
      }

      .st9 {
        fill: url(#radial-gradient2);
      }

      .st10 {
        clip-path: url(#clippath-2);
      }

      .st11 {
        fill: url(#radial-gradient4);
      }

      .st12 {
        fill: url(#radial-gradient3);
      }

      .st13 {
        clip-path: url(#clippath);
      }
    </style>
    <radialGradient id="radial-gradient" cx="50.32" cy="46.35" fx="50.32" fy="46.35" r="36.57" gradientUnits="userSpaceOnUse">
      <stop offset="0" stop-color="#00589f"/>
      <stop offset=".49" stop-color="#004379"/>
      <stop offset="1" stop-color="#003154"/>
    </radialGradient>
    <clipPath id="clippath">
      <path class="st2" d="M31.07,11.97c-12.45,3.02-16.81,4.23-16.81,4.23,0,0-2.05,11.83,3.59,33.69,4.56,17.65,19.51,28.98,32.47,33.18,12.96-4.2,27.91-15.54,32.47-33.18,5.65-21.86,3.59-33.69,3.59-33.69,0,0-4.36-1.21-16.81-4.23-.13-.03-.26-.06-.39-.1-12.37-3-25.34-3-37.71,0-.13.03-.26.06-.39.1"/>
    </clipPath>
    <radialGradient id="radial-gradient1" cx="-278.8" cy="344.9" fx="-278.8" fy="344.9" r=".66" gradientTransform="translate(16052.31 19841.55) scale(57.4 -57.4)" xlink:href="#radial-gradient"/>
    <radialGradient id="radial-gradient2" cx="50.32" cy="60.81" fx="50.32" fy="60.81" r="42.21" xlink:href="#radial-gradient"/>
    <radialGradient id="radial-gradient3" cx="50.32" cy="60.81" fx="50.32" fy="60.81" r="42.21" xlink:href="#radial-gradient"/>
    <clipPath id="clippath-1">
      <path class="st12" d="M97.53,31.47c-5.11,12.77-11.67,24.91-20.81,35.91-5.69,6.85-12.26,12.96-20.36,17.71-1.77,1.03-3.65,1.91-5.47,2.88-.15.08-.28.12-.41.14-.02,0-.03,0-.05,0-.04,0-.08,0-.11,0s-.08,0-.11,0c-.02,0-.03,0-.05,0-.13-.02-.27-.06-.41-.14-1.81-.97-3.7-1.85-5.47-2.88-8.1-4.75-14.67-10.86-20.36-17.71C14.77,56.39,8.21,44.25,3.1,31.47c-.62-1.55-1.19-3.11-1.78-4.66-.02,0-.05.01-.07.01,0,.12-.02.25,0,.36.52,2.9.95,5.81,1.59,8.68,2.44,11.06,6.54,21.6,13.09,31.35,8.12,12.08,19.17,21.44,33.8,27.46.11.04.2.07.3.09h0c.1.03.19.04.28.04.1,0,.19,0,.29-.02h0c.1-.04.19-.06.3-.11,14.62-6.02,25.67-15.37,33.8-27.46,6.56-9.75,10.66-20.29,13.09-31.35.63-2.87,1.06-5.79,1.59-8.68.02-.12,0-.24,0-.36-.02,0-.05,0-.07-.01-.59,1.55-1.16,3.12-1.78,4.66"/>
    </clipPath>
    <radialGradient id="radial-gradient4" cx="-279.72" cy="345.98" fx="-279.72" fy="345.98" r=".84" gradientTransform="translate(17503.97 -14050.28) rotate(-90) scale(50.45 -50.45)" xlink:href="#radial-gradient"/>
    <radialGradient id="radial-gradient5" cy="21.43" fy="21.43" r="38.88" xlink:href="#radial-gradient"/>
    <radialGradient id="radial-gradient6" cy="21.43" fy="21.43" r="38.88" xlink:href="#radial-gradient"/>
    <clipPath id="clippath-2">
      <path class="st8" d="M27.62,2.5C17.86,4.56,8.62,7.73.26,12.66c-.49.29-.68.54-.54,1.09,2.16,8.35,5.17,16.45,9.31,24.22.86,1.62,1.8,3.21,2.75,4.89.06-.14.08-.16.07-.18-.2-.62-.41-1.24-.6-1.85-2.52-7.83-4.09-15.8-4.6-23.93-.03-.43.12-.67.54-.87,1.89-.87,3.75-1.81,5.67-2.62,6.33-2.65,13-4.45,19.87-5.67,6.51-1.15,13.08-1.81,19.74-1.62,6.37.18,12.65.98,18.83,2.29,7.67,1.63,15.01,3.98,21.83,7.49.67.34.83.71.78,1.33-.53,7.39-1.87,14.65-4.03,21.81-.36,1.19-.75,2.37-1.12,3.56.03.01.07.02.1.04.08-.11.16-.21.22-.32,1.7-3.21,3.51-6.38,5.07-9.64,2.9-6.09,5.01-12.41,6.68-18.84.1-.38.29-.75-.3-1.04-2.9-1.45-5.71-3.05-8.68-4.38-6.33-2.84-13.07-4.74-20-6.14C65.78,1.04,59.62.26,53.38.05c-1.04-.03-2.08-.05-3.12-.05-7.65,0-15.19.93-22.64,2.5"/>
    </clipPath>
    <radialGradient id="radial-gradient7" cx="-279.96" cy="346.28" fx="-279.96" fy="346.28" r=".93" gradientTransform="translate(14543.24 -11695.74) rotate(-90) scale(41.85 -41.85)" xlink:href="#radial-gradient"/>
    <clipPath id="clippath-3">
      <path class="st0" d="M57.86,46.35c0,1.97,1.6,3.57,3.57,3.57s3.57-1.6,3.57-3.57-1.6-3.57-3.57-3.57-3.57,1.6-3.57,3.57"/>
    </clipPath>
  </defs>
  <g>
    <path class="st2" d="M31.07,11.97c-12.45,3.02-16.81,4.23-16.81,4.23,0,0-2.05,11.83,3.59,33.69,4.56,17.65,19.51,28.98,32.47,33.18,12.96-4.2,27.91-15.54,32.47-33.18,5.65-21.86,3.59-33.69,3.59-33.69,0,0-4.36-1.21-16.81-4.23-.13-.03-.26-.06-.39-.1-12.37-3-25.34-3-37.71,0-.13.03-.26.06-.39.1"/>
    <g class="st13">
      <rect class="st4" x="12.2" y="7.63" width="76.23" height="75.45"/>
    </g>
  </g>
  <g>
    <path class="st9" d="M97.53,31.47c-5.11,12.77-11.67,24.91-20.81,35.91-5.69,6.85-12.26,12.96-20.36,17.71-1.77,1.03-3.65,1.91-5.47,2.88-.15.08-.28.12-.41.14-.02,0-.03,0-.05,0-.04,0-.08,0-.11,0s-.08,0-.11,0c-.02,0-.03,0-.05,0-.13-.02-.27-.06-.41-.14-1.81-.97-3.7-1.85-5.47-2.88-8.1-4.75-14.67-10.86-20.36-17.71C14.77,56.39,8.21,44.25,3.1,31.47c-.62-1.55-1.19-3.11-1.78-4.66-.02,0-.05.01-.07.01,0,.12-.02.25,0,.36.52,2.9.95,5.81,1.59,8.68,2.44,11.06,6.54,21.6,13.09,31.35,8.12,12.08,19.17,21.44,33.8,27.46.11.04.2.07.3.09h0c.1.03.19.04.28.04.1,0,.19,0,.29-.02h0c.1-.04.19-.06.3-.11,14.62-6.02,25.67-15.37,33.8-27.46,6.56-9.75,10.66-20.29,13.09-31.35.63-2.87,1.06-5.79,1.59-8.68.02-.12,0-.24,0-.36-.02,0-.05,0-.07-.01-.59,1.55-1.16,3.12-1.78,4.66"/>
    <g class="st5">
      <rect class="st11" x="1.23" y="26.81" width="98.16" height="68"/>
    </g>
  </g>
  <g>
    <path class="st3" d="M27.62,2.5C17.86,4.56,8.62,7.73.26,12.66c-.49.29-.68.54-.54,1.09,2.16,8.35,5.17,16.45,9.31,24.22.86,1.62,1.8,3.21,2.75,4.89.06-.14.08-.16.07-.18-.2-.62-.41-1.24-.6-1.85-2.52-7.83-4.09-15.8-4.6-23.93-.03-.43.12-.67.54-.87,1.89-.87,3.75-1.81,5.67-2.62,6.33-2.65,13-4.45,19.87-5.67,6.51-1.15,13.08-1.81,19.74-1.62,6.37.18,12.65.98,18.83,2.29,7.67,1.63,15.01,3.98,21.83,7.49.67.34.83.71.78,1.33-.53,7.39-1.87,14.65-4.03,21.81-.36,1.19-.75,2.37-1.12,3.56.03.01.07.02.1.04.08-.11.16-.21.22-.32,1.7-3.21,3.51-6.38,5.07-9.64,2.9-6.09,5.01-12.41,6.68-18.84.1-.38.29-.75-.3-1.04-2.9-1.45-5.71-3.05-8.68-4.38-6.33-2.84-13.07-4.74-20-6.14C65.78,1.04,59.62.26,53.38.05c-1.04-.03-2.08-.05-3.12-.05-7.65,0-15.19.93-22.64,2.5"/>
    <g class="st10">
      <rect class="st6" x="-.42" y="0" width="101.56" height="42.86"/>
    </g>
  </g>
  <g>
    <path class="st0" d="M57.86,46.35c0,1.97,1.6,3.57,3.57,3.57s3.57-1.6,3.57-3.57-1.6-3.57-3.57-3.57-3.57,1.6-3.57,3.57"/>
    <g class="st7">
      <rect class="st0" x="57.86" y="42.78" width="7.14" height="7.14"/>
    </g>
  </g>
  <path class="st0" d="M28.97,58.2v-23.69h17.09c1.69,0,3.05.51,4.06,1.52s1.52,2.37,1.52,4.06v.85c0,1.69-.54,2.99-1.62,3.89-.45.38-.98.67-1.59.85v.34c.72.13,1.37.41,1.93.81,1.31.9,1.96,2.27,1.96,4.1v1.69c0,1.69-.51,3.05-1.52,4.06-1.02,1.02-2.37,1.52-4.06,1.52h-17.77ZM35.41,43.65h8.29c1.02,0,1.52-.51,1.52-1.52v-1.02c0-1.02-.51-1.52-1.52-1.52h-8.29v4.06ZM35.41,53.12h8.97c1.02,0,1.52-.51,1.52-1.52v-1.35c0-1.02-.51-1.52-1.52-1.52h-8.97v4.4Z"/>
  <g>
    <path class="st0" d="M71.76,58.2v-23.69h16.88c1.84,0,3.35.58,4.48,1.71,1.14,1.14,1.71,2.65,1.71,4.48v5.19c0,1.84-.58,3.34-1.71,4.48-1.14,1.14-2.65,1.71-4.49,1.71h-8.76v6.11h-8.12ZM86.5,44.58c.1,0,.17-.01.21-.02,0-.02,0-2.33,0-2.33,0-.1-.01-.17-.02-.2,0,0-6.81,0-6.81,0v2.56h6.62Z"/>
    <path class="st0" d="M113.31,58.2l-5.71-7.32h-3v7.32h-8.12v-23.69h17.19c1.84,0,3.35.58,4.49,1.71,1.14,1.14,1.71,2.65,1.71,4.48v3.97c0,2.06-.84,3.72-2.43,4.81-.17.11-.35.22-.53.31l3.42,3.91v4.5h-7.01ZM111.53,43.36c.1,0,.17,0,.2-.02,0-.02,0-1.11,0-1.11,0-.1-.01-.17-.02-.2,0,0-7.12,0-7.12,0v1.33h6.93Z"/>
    <path class="st0" d="M127.71,58.5c-1.84,0-3.35-.58-4.49-1.71-1.14-1.14-1.71-2.65-1.71-4.49v-11.9c0-1.84.58-3.35,1.71-4.49,1.14-1.14,2.65-1.71,4.49-1.71h11.6c1.84,0,3.35.58,4.48,1.71,1.14,1.14,1.71,2.65,1.71,4.49v11.9c0,1.84-.58,3.35-1.71,4.48-1.14,1.14-2.64,1.71-4.48,1.71h-11.6ZM137.17,50.99c.1,0,.17,0,.2-.02,0-.02,0-9.04,0-9.04,0-.1-.01-.17-.02-.2,0,0-7.52,0-7.52,0-.1,0-.17,0-.2.02,0,.02,0,9.04,0,9.04,0,.1.01.17.02.2h.02s7.5,0,7.5,0Z"/>
    <polygon class="st0" points="152.95 58.2 152.95 42.02 145.16 42.02 145.16 34.51 168.85 34.51 168.85 39.51 166.34 42.02 161.07 42.02 161.07 58.2 152.95 58.2"/>
    <polygon class="st0" points="169.43 58.2 169.43 34.51 190.83 34.51 190.83 39.36 188.32 41.87 177.55 41.87 177.55 42.75 187.32 42.75 187.32 49.96 177.55 49.96 177.55 50.84 190.83 50.84 190.83 58.2 169.43 58.2"/>
    <path class="st0" d="M197.45,58.2c-1.84,0-3.35-.58-4.49-1.71-1.14-1.14-1.71-2.65-1.71-4.48v-11.29c0-1.84.58-3.35,1.71-4.48,1.14-1.14,2.65-1.72,4.49-1.72h15.66v5l-2.51,2.52h-11.01c-.1,0-.17,0-.2.02,0,.02,0,8.43,0,8.43,0,.1.01.17.02.2,0,0,13.72,0,13.72,0v7.52h-15.66Z"/>
    <polygon class="st0" points="220.55 58.2 220.55 42.02 212.77 42.02 212.77 34.51 236.46 34.51 236.46 39.51 233.95 42.02 228.68 42.02 228.68 58.2 220.55 58.2"/>
    <polygon class="st0" points="237.03 58.2 237.03 34.51 258.44 34.51 258.44 39.36 255.92 41.87 245.16 41.87 245.16 42.75 254.93 42.75 254.93 49.96 245.16 49.96 245.16 50.84 258.44 50.84 258.44 58.2 237.03 58.2"/>
    <path class="st0" d="M259.77,58.2v-23.69h17.49c1.84,0,3.35.58,4.48,1.72,1.14,1.14,1.71,2.64,1.71,4.48v11.29c0,1.84-.58,3.35-1.71,4.48s-2.65,1.71-4.48,1.71h-17.49ZM275.13,50.68c.1,0,.17,0,.2-.02,0-.02,0-8.43,0-8.43,0-.1-.01-.17-.02-.2,0,0-7.42,0-7.42,0v8.66h7.23Z"/>
  </g>
  <g>
    <path class="st1" d="M72.92,57.04v-21.37h15.72c1.53,0,2.75.46,3.66,1.37.92.92,1.37,2.14,1.37,3.66v5.19c0,1.53-.46,2.75-1.37,3.66-.92.92-2.14,1.37-3.66,1.37h-9.92v6.11h-5.8ZM78.72,45.74h7.78c.92,0,1.37-.46,1.37-1.37v-2.14c0-.92-.46-1.37-1.37-1.37h-7.78v4.88Z"/>
    <path class="st1" d="M97.64,57.04v-21.37h16.02c1.53,0,2.75.46,3.66,1.37.92.92,1.37,2.14,1.37,3.66v3.97c0,1.69-.64,2.97-1.92,3.85-.55.37-1.18.61-1.89.73l4.27,4.88v2.9h-5.28l-5.71-7.32h-4.73v7.32h-5.8ZM103.44,44.52h8.09c.92,0,1.37-.46,1.37-1.37v-.92c0-.92-.46-1.37-1.37-1.37h-8.09v3.66Z"/>
    <path class="st1" d="M122.67,52.31v-11.9c0-1.53.46-2.75,1.37-3.66.92-.92,2.14-1.37,3.66-1.37h11.6c1.53,0,2.75.46,3.66,1.37.92.92,1.37,2.14,1.37,3.66v11.9c0,1.53-.46,2.75-1.37,3.66-.92.92-2.14,1.37-3.66,1.37h-11.6c-1.53,0-2.75-.46-3.66-1.37-.92-.92-1.37-2.14-1.37-3.66ZM129.84,52.15h7.33c.92,0,1.37-.46,1.37-1.37v-8.85c0-.92-.46-1.37-1.37-1.37h-7.33c-.92,0-1.37.46-1.37,1.37v8.85c0,.92.46,1.37,1.37,1.37Z"/>
    <path class="st1" d="M154.11,57.04v-16.18h-7.78v-5.19h21.37v3.36l-1.83,1.83h-5.95v16.18h-5.8Z"/>
    <path class="st1" d="M170.59,57.04v-21.37h19.08v3.2l-1.83,1.83h-11.45v3.2h9.77v4.89h-9.77v3.2h13.28v5.04h-19.08Z"/>
    <path class="st1" d="M192.41,52v-11.29c0-1.53.46-2.75,1.37-3.66.92-.92,2.14-1.37,3.66-1.37h14.5v3.36l-1.83,1.83h-10.53c-.92,0-1.37.46-1.37,1.37v8.24c0,.92.46,1.37,1.37,1.37h12.36v5.19h-14.5c-1.53,0-2.75-.46-3.66-1.37-.92-.92-1.37-2.14-1.37-3.66Z"/>
    <path class="st1" d="M221.71,57.04v-16.18h-7.78v-5.19h21.37v3.36l-1.83,1.83h-5.95v16.18h-5.8Z"/>
    <path class="st1" d="M238.2,57.04v-21.37h19.08v3.2l-1.83,1.83h-11.45v3.2h9.77v4.89h-9.77v3.2h13.28v5.04h-19.08Z"/>
    <path class="st1" d="M260.94,57.04v-21.37h16.33c1.53,0,2.75.46,3.66,1.37.92.92,1.37,2.14,1.37,3.66v11.29c0,1.53-.46,2.75-1.37,3.66-.92.92-2.14,1.37-3.66,1.37h-16.33ZM266.73,51.85h8.39c.92,0,1.37-.46,1.37-1.37v-8.24c0-.92-.46-1.37-1.37-1.37h-8.39v10.99Z"/>
  </g>
</svg>