<?xml version="1.0" encoding="UTF-8"?>
<svg version="1.1" xmlns="http://www.w3.org/2000/svg" width="2126" height="1132">
<path d="M0 0 C1.23985657 0.00182281 2.47971313 0.00364563 3.75714111 0.00552368 C23.31255437 0.05368818 42.63247633 0.65636804 62.04504395 3.0625 C64.12146393 3.31980672 66.19882959 3.56829933 68.27636719 3.81640625 C129.29264237 11.2110827 188.66072727 27.11803192 243.75 54.5 C244.76495544 55.004245 244.76495544 55.004245 245.80041504 55.51867676 C254.4166169 59.81495308 262.81060873 64.34321436 271.0625 69.3125 C270.47827981 76.7437808 268.82859949 83.53965775 266.75 90.6875 C266.40171143 91.89067871 266.05342285 93.09385742 265.69458008 94.33349609 C255.95668127 127.54635757 243.33550216 159.24861546 228.0625 190.3125 C228.99691535 191.58560312 229.93517111 192.855888 230.875 194.125 C231.39707031 194.83269531 231.91914062 195.54039062 232.45703125 196.26953125 C233.89378877 198.09781393 235.38065763 199.71146688 237.0625 201.3125 C245.92262895 181.95536625 253.60907739 162.24366294 261.0625 142.3125 C261.7225 142.6425 262.3825 142.9725 263.0625 143.3125 C262.28662852 151.36216665 260.94604085 159.28475766 259.5625 167.25 C259.33446745 168.58916412 259.10660167 169.92835664 258.87890625 171.26757812 C258.66105469 172.52892578 258.44320312 173.79027344 258.21875 175.08984375 C258.02087891 176.23702881 257.82300781 177.38421387 257.61914062 178.56616211 C257.0625 181.3125 257.0625 181.3125 256.0625 183.3125 C257.10518036 183.30805878 258.14786072 183.30361755 259.22213745 183.29904175 C269.07882557 183.25838685 278.93549654 183.22846352 288.79224968 183.20887566 C293.85893135 183.19846662 298.92554498 183.1843603 303.9921875 183.16162109 C308.88755074 183.13978967 313.7828488 183.12790974 318.67825699 183.12274551 C320.54003042 183.11906818 322.40180053 183.11188754 324.26354599 183.10103989 C338.22717571 183.02296173 349.5504844 183.42410939 361.6875 190.9375 C370.84074963 200.09074963 372.36124334 210.49339126 372.38476562 222.90234375 C372.38259033 223.6072998 372.38041504 224.31225586 372.37817383 225.03857422 C372.37501702 227.17597665 372.39851945 229.31198693 372.42382812 231.44921875 C372.47078288 241.64002946 371.76345811 251.12244009 365.0625 259.3125 C362.80971327 261.41963241 360.48003793 263.397484 358.0625 265.3125 C359.70132206 269.34652354 362.54901832 272.20377354 365.5 275.3125 C367.37074115 277.2987797 369.22097145 279.29858467 371.0625 281.3125 C371.60567871 281.90643555 372.14885742 282.50037109 372.70849609 283.11230469 C374.49556075 286.0162042 374.40537007 287.99733514 374.35546875 291.390625 C374.3409668 293.13085938 374.3409668 293.13085938 374.32617188 294.90625 C374.30103516 296.1128125 374.27589844 297.319375 374.25 298.5625 C374.23646484 299.78453125 374.22292969 301.0065625 374.20898438 302.265625 C374.1736398 305.28169498 374.1242956 308.29687487 374.0625 311.3125 C368.83432377 311.6115158 363.61121509 311.8278942 358.37646484 311.97167969 C356.60084296 312.03165166 354.82580446 312.1132725 353.05224609 312.21777344 C338.81019378 313.03526884 338.81019378 313.03526884 334.33099365 310.22686768 C330.84002306 307.10051803 328.49134655 303.30190979 326.0625 299.3125 C324.97273718 297.8594829 323.86822922 296.41727407 322.7421875 294.9921875 C321.80577074 293.72508092 320.87084596 292.45687022 319.9375 291.1875 C319.42872314 290.51517334 318.91994629 289.84284668 318.39575195 289.15014648 C316.15537877 286.18748465 314.02656232 283.25520906 312.05078125 280.10546875 C310.10591078 276.94284415 310.10591078 276.94284415 306.0625 273.3125 C301.1125 272.9825 296.1625 272.6525 291.0625 272.3125 C291.0625 285.1825 291.0625 298.0525 291.0625 311.3125 C276.2125 311.3125 261.3625 311.3125 246.0625 311.3125 C245.7325 284.5825 245.4025 257.8525 245.0625 230.3125 C240.61616508 244.00735426 240.61616508 244.00735426 236.8984375 257.79296875 C235.9281075 260.71756152 234.57831895 263.30572337 233.17333984 266.04272461 C231.56924061 269.32037528 230.23181243 272.69092906 228.86816406 276.07421875 C209.12719933 324.99392953 181.5424363 369.77407377 145.65625 408.49609375 C143.19035427 411.17367029 140.78092369 413.89361745 138.375 416.625 C135.10638164 420.27233529 131.69105656 423.52205154 127.94921875 426.67578125 C126.1130395 428.26865725 124.43580967 429.93762156 122.75 431.6875 C118.67440947 435.81804231 114.20020279 439.40516647 109.66943359 443.02197266 C107.96354558 444.39197023 106.27234764 445.77881404 104.58203125 447.16796875 C95.73587093 454.40004723 86.60516385 461.03119735 77.0625 467.3125 C75.98838867 468.0235791 75.98838867 468.0235791 74.89257812 468.74902344 C57.38861929 480.27207813 39.05185793 490.15184456 20.0625 499 C18.98282959 499.5053125 17.90315918 500.010625 16.79077148 500.53125 C13.90247802 501.85098947 10.9967597 503.09904789 8.0625 504.3125 C7.03962891 504.78163818 7.03962891 504.78163818 5.99609375 505.26025391 C-0.75182841 507.77311532 -6.78132249 504.11737536 -12.9375 501.3125 C-14.0507666 500.81508301 -15.1640332 500.31766602 -16.31103516 499.80517578 C-19.81322078 498.20539954 -23.28441704 496.55254374 -26.75 494.875 C-27.36946503 494.57591736 -27.98893005 494.27683472 -28.62716675 493.96868896 C-45.74103459 485.67690101 -62.39483778 476.29568183 -77.9375 465.3125 C-79.04684836 464.54032631 -80.156225 463.76819324 -81.265625 462.99609375 C-92.58262296 455.06555625 -103.40987873 446.58640297 -113.875 437.5625 C-114.47755615 437.04389404 -115.0801123 436.52528809 -115.70092773 435.9909668 C-119.38419321 432.77977106 -122.87678757 429.43399589 -126.28833008 425.93530273 C-128.01726287 424.23401239 -129.82440665 422.67724 -131.6875 421.125 C-136.75677344 416.75189371 -141.1535479 411.7692307 -145.60888672 406.78955078 C-146.81212363 405.45188388 -148.03208854 404.12931071 -149.25390625 402.80859375 C-155.56194769 395.9588958 -161.29902798 388.71277049 -166.9375 381.3125 C-167.47536133 380.6097998 -168.01322266 379.90709961 -168.56738281 379.18310547 C-216.16707896 316.72053481 -243.66502769 243.25983683 -257.53961182 166.47943115 C-257.95900727 164.19536966 -258.39728376 161.91540696 -258.83740234 159.63525391 C-259.12492484 158.10714344 -259.41220451 156.57898726 -259.69921875 155.05078125 C-259.83842239 154.34817673 -259.97762604 153.6455722 -260.12104797 152.92167664 C-260.82681689 149.09367428 -261.01411559 146.07223285 -259.9375 142.3125 C-257.67997193 145.69879211 -256.3289106 149.19411605 -254.8828125 152.96875 C-254.26845342 154.55098134 -253.65377539 156.13308886 -253.03881836 157.71508789 C-252.71686493 158.54638214 -252.3949115 159.37767639 -252.0632019 160.23416138 C-245.49621129 177.15421065 -238.61000656 193.85814994 -230.9375 210.3125 C-230.12829102 212.04838379 -230.12829102 212.04838379 -229.30273438 213.81933594 C-217.48666926 239.01194996 -204.70628966 263.70873112 -189.9375 287.3125 C-189.31198242 288.31442383 -188.68646484 289.31634766 -188.04199219 290.34863281 C-180.50605916 302.37622984 -172.88153928 314.26622011 -164.27050781 325.55566406 C-162.84901212 327.42912248 -161.45031276 329.3181382 -160.0546875 331.2109375 C-143.02599637 354.2466308 -124.39764685 375.89536473 -104.1875 396.1875 C-102.99918579 397.38282349 -102.99918579 397.38282349 -101.78686523 398.60229492 C-96.99860719 403.37752914 -92.09351061 407.93766386 -86.9375 412.3125 C-86.30134766 412.85535645 -85.66519531 413.39821289 -85.00976562 413.95751953 C-60.28777949 434.91394635 -33.62310951 451.42057146 -4.9375 466.3125 C-4.28064209 466.72612793 -3.62378418 467.13975586 -2.94702148 467.56591797 C0.81922742 468.9651634 4.12525442 467.70280975 7.70532227 466.21191406 C8.58760498 465.75526367 9.4698877 465.29861328 10.37890625 464.828125 C11.37978271 464.31185547 12.38065918 463.79558594 13.41186523 463.26367188 C14.47219971 462.70228516 15.53253418 462.14089844 16.625 461.5625 C17.73109619 460.98048828 18.83719238 460.39847656 19.97680664 459.79882812 C46.25774194 445.79840441 70.74497575 428.70215854 92.65625 408.5078125 C94.0054535 407.27688333 95.36321869 406.05468518 96.74975586 404.8659668 C102.64977232 399.80465991 108.14182107 394.38166149 113.625 388.875 C114.53185547 387.97201172 115.43871094 387.06902344 116.37304688 386.13867188 C121.47956693 381.0247457 126.37645014 375.81261082 131.0625 370.3125 C132.01168161 369.22929376 132.96214904 368.14721255 133.9140625 367.06640625 C141.06059733 358.8714582 147.73365276 350.37769514 154.25952148 341.68286133 C155.57634495 339.95164413 156.91184994 338.23459153 158.25805664 336.52612305 C164.82309296 328.15683432 170.81450576 319.47721355 176.6862793 310.61010742 C178.25284259 308.2457097 179.8280237 305.88722947 181.40429688 303.52929688 C186.90928853 295.26515655 192.16910468 286.95726769 197.0625 278.3125 C188.4825 278.3125 179.9025 278.3125 171.0625 278.3125 C169.5775 283.2625 169.5775 283.2625 168.0625 288.3125 C166.9116016 291.25510883 165.74247853 294.16071144 164.5 297.0625 C162.50310803 301.76855114 160.60509158 306.43146395 159.0625 311.3125 C158.4025 311.3125 157.7425 311.3125 157.0625 311.3125 C156.69125 312.56546875 156.69125 312.56546875 156.3125 313.84375 C154.90286678 317.75548217 153.11082302 321.20565114 151.0625 324.8125 C150.66659668 325.51101074 150.27069336 326.20952148 149.86279297 326.92919922 C145.73184006 334.08185269 141.04057414 340.7307132 136.0625 347.3125 C135.63743164 347.88178223 135.21236328 348.45106445 134.77441406 349.03759766 C127.50421068 358.73940781 119.47167629 367.59042412 111.0625 376.3125 C109.82306641 377.61380859 109.82306641 377.61380859 108.55859375 378.94140625 C103.10197744 384.55420478 97.19414814 389.4566174 91.0625 394.3125 C89.96692531 395.19857297 88.87189135 396.08531485 87.77734375 396.97265625 C64.95026924 415.35733602 39.15035579 429.90020258 11.8125 440.4375 C11.03825684 440.74534424 10.26401367 441.05318848 9.46630859 441.37036133 C0.30953925 444.75482027 -6.7659281 441.50689553 -15.4375 438 C-16.53465332 437.5570459 -17.63180664 437.1140918 -18.76220703 436.65771484 C-42.1851276 426.99201991 -64.24470944 414.27318912 -83.9375 398.3125 C-84.8553125 397.58675781 -85.773125 396.86101562 -86.71875 396.11328125 C-100.85826237 384.79760827 -114.4825065 372.22388402 -125.65234375 357.94824219 C-126.56235298 356.78998576 -127.47978129 355.63754056 -128.40234375 354.48925781 C-170.21053239 302.43754166 -183.76996744 235.25604701 -190.9375 170.3125 C-191.02536774 169.54617249 -191.11323547 168.77984497 -191.20376587 167.99029541 C-192.85300397 153.3185323 -193.22138483 138.77805005 -193.14331055 124.02099609 C-193.12477177 120.39283366 -193.12280367 116.76492419 -193.12304688 113.13671875 C-193.11813944 110.80208114 -193.11231454 108.46744523 -193.10546875 106.1328125 C-193.10435593 105.0619339 -193.1032431 103.9910553 -193.10209656 102.88772583 C-193.06660282 97.27142278 -192.77139656 91.86820585 -191.9375 86.3125 C-174.07199148 80.94761537 -155.99039349 76.47796701 -137.88354492 72.0168457 C-134.46891364 71.17532674 -131.05555585 70.32892497 -127.64331055 69.4777832 C-102.21163099 63.13522308 -76.84462445 56.98655997 -50.75 54.0625 C-49.4055072 53.90180755 -48.06110634 53.74034407 -46.71679688 53.578125 C-31.17636493 51.73634145 -15.75721674 51.07301942 -0.125 51.0625 C1.24319885 51.06148788 1.24319885 51.06148788 2.63903809 51.06045532 C56.99234582 51.12363487 108.52922606 64.05147056 160.875 77.3125 C161.64072201 77.50637802 162.40644402 77.70025604 163.19536972 77.90000916 C167.63534408 79.02457112 172.07448868 80.15232025 176.51246262 81.28475189 C177.88487057 81.6347213 179.25746065 81.98397736 180.63023758 82.33249664 C182.52205718 82.81313555 184.41302964 83.29710523 186.30395508 83.78125 C187.37212967 84.05388672 188.44030426 84.32652344 189.54084778 84.60742188 C192.0625 85.3125 192.0625 85.3125 194.0625 86.3125 C195.12574588 93.02349774 195.23572412 99.69298562 195.265625 106.4765625 C195.27245804 107.53539139 195.27929108 108.59422028 195.28633118 109.68513489 C195.30336467 113.10262247 195.30965886 116.51997244 195.3125 119.9375 C195.31550613 121.67811203 195.31550613 121.67811203 195.318573 123.45388794 C195.32702523 143.41063678 195.17652919 163.69157481 191.0625 183.3125 C192.08988281 183.28929687 193.11726563 183.26609375 194.17578125 183.2421875 C202.37664872 183.1152882 210.02986576 183.4064512 218.0625 185.3125 C218.20945312 183.80236328 218.20945312 183.80236328 218.359375 182.26171875 C218.94367052 177.5904191 219.94111847 173.03137048 220.94271851 168.4342804 C224.17274145 153.60580136 226.91727141 138.79411106 228.9375 123.75 C229.09200623 122.62073593 229.09200623 122.62073593 229.24963379 121.46865845 C229.93335232 116.42398973 230.52569963 111.37475107 231.0625 106.3125 C231.1505188 105.53900208 231.2385376 104.76550415 231.32922363 103.96856689 C231.585112 101.63840663 231.80181923 99.30770151 232.0078125 96.97265625 C232.08933563 96.26257919 232.17085876 95.55250214 232.25485229 94.82090759 C232.48376544 92.55963936 232.48376544 92.55963936 232.0625 89.3125 C228.37985849 85.48753227 223.75605219 83.46959226 219 81.25 C218.17983398 80.86642334 217.35966797 80.48284668 216.51464844 80.08764648 C139.21307378 44.60926127 49.98710607 28.9744663 -182.01580811 66.59710693 C-207.5590941 74.75944613 -207.5590941 74.75944613 -229.9375 88.3125 C-230.34018376 96.80631799 -229.22964264 105.20264565 -228.25 113.625 C-228.16102448 114.39605072 -228.07204895 115.16710144 -227.9803772 115.96151733 C-224.07515592 149.48165714 -216.72445349 182.11121154 -206.82226562 214.35693359 C-205.43702773 218.98433148 -204.17798551 223.64450915 -202.9375 228.3125 C-203.5975 228.6425 -204.2575 228.9725 -204.9375 229.3125 C-277.04281448 103.76008654 -277.04281448 103.76008654 -268.9375 69.3125 C-262.74082646 63.95015722 -254.73060027 60.36158729 -247.5 56.625 C-246.91580292 56.32291626 -246.33160583 56.02083252 -245.72970581 55.70959473 C-190.96596536 27.50276056 -129.83220865 12.09737766 -69 4.0625 C-67.30049194 3.83590698 -67.30049194 3.83590698 -65.56665039 3.60473633 C-43.75555382 0.88314619 -21.96721969 -0.06765932 0 0 Z M291.0625 224.3125 C291.0625 226.6225 291.0625 228.9325 291.0625 231.3125 C296.17113896 231.3371501 301.27974359 231.35533607 306.38842773 231.36743164 C308.12769168 231.37247204 309.86695136 231.3793043 311.60620117 231.38793945 C314.10075937 231.40001792 316.59526173 231.40573108 319.08984375 231.41015625 C320.2632859 231.41789818 320.2632859 231.41789818 321.46043396 231.42579651 C323.32817114 231.42599226 325.19579204 231.37449694 327.0625 231.3125 C328.35883621 230.24604885 328.35883621 230.24604885 328.125 227.75 C328.104375 226.945625 328.08375 226.14125 328.0625 225.3125 C315.72072514 224.67655271 303.42258863 224.13922773 291.0625 224.3125 Z M184.0625 225.3125 C183.0725 229.2725 182.0825 233.2325 181.0625 237.3125 C185.3525 237.3125 189.6425 237.3125 194.0625 237.3125 C194.0625 233.3525 194.0625 229.3925 194.0625 225.3125 C190.7625 225.3125 187.4625 225.3125 184.0625 225.3125 Z " fill="#013B6A" transform="translate(575.9375,312.6875)"/>
<path d="M0 0 C1.23985657 0.00182281 2.47971313 0.00364563 3.75714111 0.00552368 C23.31255437 0.05368818 42.63247633 0.65636804 62.04504395 3.0625 C64.12146393 3.31980672 66.19882959 3.56829933 68.27636719 3.81640625 C129.29264237 11.2110827 188.66072727 27.11803192 243.75 54.5 C244.76495544 55.004245 244.76495544 55.004245 245.80041504 55.51867676 C254.4166169 59.81495308 262.81060873 64.34321436 271.0625 69.3125 C270.47827981 76.7437808 268.82859949 83.53965775 266.75 90.6875 C266.40171143 91.89067871 266.05342285 93.09385742 265.69458008 94.33349609 C255.95668127 127.54635757 243.33550216 159.24861546 228.0625 190.3125 C228.99691535 191.58560312 229.93517111 192.855888 230.875 194.125 C231.39707031 194.83269531 231.91914062 195.54039062 232.45703125 196.26953125 C233.89378877 198.09781393 235.38065763 199.71146688 237.0625 201.3125 C245.92262895 181.95536625 253.60907739 162.24366294 261.0625 142.3125 C261.7225 142.6425 262.3825 142.9725 263.0625 143.3125 C262.28662852 151.36216665 260.94604085 159.28475766 259.5625 167.25 C259.33446745 168.58916412 259.10660167 169.92835664 258.87890625 171.26757812 C258.66105469 172.52892578 258.44320312 173.79027344 258.21875 175.08984375 C258.02087891 176.23702881 257.82300781 177.38421387 257.61914062 178.56616211 C257.0625 181.3125 257.0625 181.3125 256.0625 183.3125 C257.10518036 183.30805878 258.14786072 183.30361755 259.22213745 183.29904175 C269.07882557 183.25838685 278.93549654 183.22846352 288.79224968 183.20887566 C293.85893135 183.19846662 298.92554498 183.1843603 303.9921875 183.16162109 C308.88755074 183.13978967 313.7828488 183.12790974 318.67825699 183.12274551 C320.54003042 183.11906818 322.40180053 183.11188754 324.26354599 183.10103989 C338.22717571 183.02296173 349.5504844 183.42410939 361.6875 190.9375 C370.84074963 200.09074963 372.36124334 210.49339126 372.38476562 222.90234375 C372.38259033 223.6072998 372.38041504 224.31225586 372.37817383 225.03857422 C372.37501702 227.17597665 372.39851945 229.31198693 372.42382812 231.44921875 C372.47078288 241.64002946 371.76345811 251.12244009 365.0625 259.3125 C362.80971327 261.41963241 360.48003793 263.397484 358.0625 265.3125 C359.70132206 269.34652354 362.54901832 272.20377354 365.5 275.3125 C367.37074115 277.2987797 369.22097145 279.29858467 371.0625 281.3125 C371.60567871 281.90643555 372.14885742 282.50037109 372.70849609 283.11230469 C374.49556075 286.0162042 374.40537007 287.99733514 374.35546875 291.390625 C374.3409668 293.13085938 374.3409668 293.13085938 374.32617188 294.90625 C374.30103516 296.1128125 374.27589844 297.319375 374.25 298.5625 C374.23646484 299.78453125 374.22292969 301.0065625 374.20898438 302.265625 C374.1736398 305.28169498 374.1242956 308.29687487 374.0625 311.3125 C368.83432377 311.6115158 363.61121509 311.8278942 358.37646484 311.97167969 C356.60084296 312.03165166 354.82580446 312.1132725 353.05224609 312.21777344 C338.81019378 313.03526884 338.81019378 313.03526884 334.33099365 310.22686768 C330.84002306 307.10051803 328.49134655 303.30190979 326.0625 299.3125 C324.97273718 297.8594829 323.86822922 296.41727407 322.7421875 294.9921875 C321.80577074 293.72508092 320.87084596 292.45687022 319.9375 291.1875 C319.42872314 290.51517334 318.91994629 289.84284668 318.39575195 289.15014648 C316.15537877 286.18748465 314.02656232 283.25520906 312.05078125 280.10546875 C310.10591078 276.94284415 310.10591078 276.94284415 306.0625 273.3125 C301.1125 272.9825 296.1625 272.6525 291.0625 272.3125 C291.0625 285.1825 291.0625 298.0525 291.0625 311.3125 C276.2125 311.3125 261.3625 311.3125 246.0625 311.3125 C245.7325 284.5825 245.4025 257.8525 245.0625 230.3125 C240.61616508 244.00735426 240.61616508 244.00735426 236.8984375 257.79296875 C235.9281075 260.71756152 234.57831895 263.30572337 233.17333984 266.04272461 C231.56924061 269.32037528 230.23181243 272.69092906 228.86816406 276.07421875 C209.12719933 324.99392953 181.5424363 369.77407377 145.65625 408.49609375 C143.19035427 411.17367029 140.78092369 413.89361745 138.375 416.625 C135.10638164 420.27233529 131.69105656 423.52205154 127.94921875 426.67578125 C126.1130395 428.26865725 124.43580967 429.93762156 122.75 431.6875 C118.67440947 435.81804231 114.20020279 439.40516647 109.66943359 443.02197266 C107.96354558 444.39197023 106.27234764 445.77881404 104.58203125 447.16796875 C95.73587093 454.40004723 86.60516385 461.03119735 77.0625 467.3125 C75.98838867 468.0235791 75.98838867 468.0235791 74.89257812 468.74902344 C57.38861929 480.27207813 39.05185793 490.15184456 20.0625 499 C18.98282959 499.5053125 17.90315918 500.010625 16.79077148 500.53125 C13.90247802 501.85098947 10.9967597 503.09904789 8.0625 504.3125 C7.03962891 504.78163818 7.03962891 504.78163818 5.99609375 505.26025391 C-0.75182841 507.77311532 -6.78132249 504.11737536 -12.9375 501.3125 C-14.0507666 500.81508301 -15.1640332 500.31766602 -16.31103516 499.80517578 C-19.81322078 498.20539954 -23.28441704 496.55254374 -26.75 494.875 C-27.36946503 494.57591736 -27.98893005 494.27683472 -28.62716675 493.96868896 C-45.74103459 485.67690101 -62.39483778 476.29568183 -77.9375 465.3125 C-79.04684836 464.54032631 -80.156225 463.76819324 -81.265625 462.99609375 C-92.58262296 455.06555625 -103.40987873 446.58640297 -113.875 437.5625 C-114.47755615 437.04389404 -115.0801123 436.52528809 -115.70092773 435.9909668 C-119.38419321 432.77977106 -122.87678757 429.43399589 -126.28833008 425.93530273 C-128.01726287 424.23401239 -129.82440665 422.67724 -131.6875 421.125 C-136.75677344 416.75189371 -141.1535479 411.7692307 -145.60888672 406.78955078 C-146.81212363 405.45188388 -148.03208854 404.12931071 -149.25390625 402.80859375 C-155.56194769 395.9588958 -161.29902798 388.71277049 -166.9375 381.3125 C-167.47536133 380.6097998 -168.01322266 379.90709961 -168.56738281 379.18310547 C-216.16707896 316.72053481 -243.66502769 243.25983683 -257.53961182 166.47943115 C-257.95900727 164.19536966 -258.39728376 161.91540696 -258.83740234 159.63525391 C-259.12492484 158.10714344 -259.41220451 156.57898726 -259.69921875 155.05078125 C-259.83842239 154.34817673 -259.97762604 153.6455722 -260.12104797 152.92167664 C-260.82681689 149.09367428 -261.01411559 146.07223285 -259.9375 142.3125 C-257.67997193 145.69879211 -256.3289106 149.19411605 -254.8828125 152.96875 C-254.26845342 154.55098134 -253.65377539 156.13308886 -253.03881836 157.71508789 C-252.71686493 158.54638214 -252.3949115 159.37767639 -252.0632019 160.23416138 C-245.49621129 177.15421065 -238.61000656 193.85814994 -230.9375 210.3125 C-230.12829102 212.04838379 -230.12829102 212.04838379 -229.30273438 213.81933594 C-217.48666926 239.01194996 -204.70628966 263.70873112 -189.9375 287.3125 C-189.31198242 288.31442383 -188.68646484 289.31634766 -188.04199219 290.34863281 C-180.50605916 302.37622984 -172.88153928 314.26622011 -164.27050781 325.55566406 C-162.84901212 327.42912248 -161.45031276 329.3181382 -160.0546875 331.2109375 C-143.02599637 354.2466308 -124.39764685 375.89536473 -104.1875 396.1875 C-102.99918579 397.38282349 -102.99918579 397.38282349 -101.78686523 398.60229492 C-96.99860719 403.37752914 -92.09351061 407.93766386 -86.9375 412.3125 C-86.30134766 412.85535645 -85.66519531 413.39821289 -85.00976562 413.95751953 C-60.28777949 434.91394635 -33.62310951 451.42057146 -4.9375 466.3125 C-4.28064209 466.72612793 -3.62378418 467.13975586 -2.94702148 467.56591797 C0.81922742 468.9651634 4.12525442 467.70280975 7.70532227 466.21191406 C8.58760498 465.75526367 9.4698877 465.29861328 10.37890625 464.828125 C11.37978271 464.31185547 12.38065918 463.79558594 13.41186523 463.26367188 C14.47219971 462.70228516 15.53253418 462.14089844 16.625 461.5625 C17.73109619 460.98048828 18.83719238 460.39847656 19.97680664 459.79882812 C46.25774194 445.79840441 70.74497575 428.70215854 92.65625 408.5078125 C94.0054535 407.27688333 95.36321869 406.05468518 96.74975586 404.8659668 C102.64977232 399.80465991 108.14182107 394.38166149 113.625 388.875 C114.53185547 387.97201172 115.43871094 387.06902344 116.37304688 386.13867188 C121.47956693 381.0247457 126.37645014 375.81261082 131.0625 370.3125 C132.01168161 369.22929376 132.96214904 368.14721255 133.9140625 367.06640625 C141.06059733 358.8714582 147.73365276 350.37769514 154.25952148 341.68286133 C155.57634495 339.95164413 156.91184994 338.23459153 158.25805664 336.52612305 C164.82309296 328.15683432 170.81450576 319.47721355 176.6862793 310.61010742 C178.25284259 308.2457097 179.8280237 305.88722947 181.40429688 303.52929688 C186.90928853 295.26515655 192.16910468 286.95726769 197.0625 278.3125 C188.4825 278.3125 179.9025 278.3125 171.0625 278.3125 C169.5775 283.2625 169.5775 283.2625 168.0625 288.3125 C166.9116016 291.25510883 165.74247853 294.16071144 164.5 297.0625 C163.89259227 298.49397046 163.28708451 299.92624879 162.68359375 301.359375 C162.4198999 301.97651367 162.15620605 302.59365234 161.88452148 303.22949219 C160.83693355 305.88408687 159.9649585 308.60512451 159.0625 311.3125 C137.2825 310.8175 137.2825 310.8175 115.0625 310.3125 C115.0625 268.7325 115.0625 227.1525 115.0625 184.3125 C137.4921875 184.003125 137.4921875 184.003125 160.375 183.6875 C167.42935425 183.58187744 167.42935425 183.58187744 174.6262207 183.47412109 C180.41638184 183.40161133 180.41638184 183.40161133 183.13615417 183.37026978 C185.0157243 183.34660754 186.89524494 183.31877083 188.77470398 183.2875061 C209.12869171 182.95489316 209.12869171 182.95489316 218.0625 185.3125 C218.20945312 183.80236328 218.20945312 183.80236328 218.359375 182.26171875 C218.94367052 177.5904191 219.94111847 173.03137048 220.94271851 168.4342804 C224.17274145 153.60580136 226.91727141 138.79411106 228.9375 123.75 C229.09200623 122.62073593 229.09200623 122.62073593 229.24963379 121.46865845 C229.93335232 116.42398973 230.52569963 111.37475107 231.0625 106.3125 C231.1505188 105.53900208 231.2385376 104.76550415 231.32922363 103.96856689 C231.585112 101.63840663 231.80181923 99.30770151 232.0078125 96.97265625 C232.08933563 96.26257919 232.17085876 95.55250214 232.25485229 94.82090759 C232.48376544 92.55963936 232.48376544 92.55963936 232.0625 89.3125 C228.37985849 85.48753227 223.75605219 83.46959226 219 81.25 C218.17983398 80.86642334 217.35966797 80.48284668 216.51464844 80.08764648 C139.21307378 44.60926127 49.98710607 28.9744663 -182.01580811 66.59710693 C-207.5590941 74.75944613 -207.5590941 74.75944613 -229.9375 88.3125 C-230.34018376 96.80631799 -229.22964264 105.20264565 -228.25 113.625 C-228.16102448 114.39605072 -228.07204895 115.16710144 -227.9803772 115.96151733 C-224.07515592 149.48165714 -216.72445349 182.11121154 -206.82226562 214.35693359 C-205.43702773 218.98433148 -204.17798551 223.64450915 -202.9375 228.3125 C-203.5975 228.6425 -204.2575 228.9725 -204.9375 229.3125 C-277.04281448 103.76008654 -277.04281448 103.76008654 -268.9375 69.3125 C-262.74082646 63.95015722 -254.73060027 60.36158729 -247.5 56.625 C-246.91580292 56.32291626 -246.33160583 56.02083252 -245.72970581 55.70959473 C-190.96596536 27.50276056 -129.83220865 12.09737766 -69 4.0625 C-67.30049194 3.83590698 -67.30049194 3.83590698 -65.56665039 3.60473633 C-43.75555382 0.88314619 -21.96721969 -0.06765932 0 0 Z M291.0625 224.3125 C291.0625 226.6225 291.0625 228.9325 291.0625 231.3125 C296.17113896 231.3371501 301.27974359 231.35533607 306.38842773 231.36743164 C308.12769168 231.37247204 309.86695136 231.3793043 311.60620117 231.38793945 C314.10075937 231.40001792 316.59526173 231.40573108 319.08984375 231.41015625 C320.2632859 231.41789818 320.2632859 231.41789818 321.46043396 231.42579651 C323.32817114 231.42599226 325.19579204 231.37449694 327.0625 231.3125 C328.35883621 230.24604885 328.35883621 230.24604885 328.125 227.75 C328.104375 226.945625 328.08375 226.14125 328.0625 225.3125 C315.72072514 224.67655271 303.42258863 224.13922773 291.0625 224.3125 Z M184.0625 225.3125 C183.0725 229.2725 182.0825 233.2325 181.0625 237.3125 C185.3525 237.3125 189.6425 237.3125 194.0625 237.3125 C194.0625 233.3525 194.0625 229.3925 194.0625 225.3125 C190.7625 225.3125 187.4625 225.3125 184.0625 225.3125 Z " fill="#023761" transform="translate(575.9375,312.6875)"/>
<path d="M0 0 C2.25752807 3.38629211 3.6085894 6.88161605 5.0546875 10.65625 C5.66904658 12.23848134 6.28372461 13.82058886 6.89868164 15.40258789 C7.22063507 16.23388214 7.5425885 17.06517639 7.8742981 17.92166138 C14.44128871 34.84171065 21.32749344 51.54564994 29 68 C29.53947266 69.15725586 30.07894531 70.31451172 30.63476562 71.50683594 C42.45083074 96.69944996 55.23121034 121.39623112 70 145 C70.93827637 146.50288574 70.93827637 146.50288574 71.89550781 148.03613281 C79.43144084 160.06372984 87.05596072 171.95372011 95.66699219 183.24316406 C97.08848788 185.11662248 98.48718724 187.0056382 99.8828125 188.8984375 C116.91150363 211.9341308 135.53985315 233.58286473 155.75 253.875 C156.93831421 255.07032349 156.93831421 255.07032349 158.15063477 256.28979492 C162.93889281 261.06502914 167.84398939 265.62516386 173 270 C173.63615234 270.54285645 174.27230469 271.08571289 174.92773438 271.64501953 C199.64972051 292.60144635 226.31439049 309.10807146 255 324 C255.65685791 324.41362793 256.31371582 324.82725586 256.99047852 325.25341797 C260.75672742 326.6526634 264.06275442 325.39030975 267.64282227 323.89941406 C268.52510498 323.44276367 269.4073877 322.98611328 270.31640625 322.515625 C271.31728271 321.99935547 272.31815918 321.48308594 273.34936523 320.95117188 C274.40969971 320.38978516 275.47003418 319.82839844 276.5625 319.25 C277.66859619 318.66798828 278.77469238 318.08597656 279.91430664 317.48632812 C306.19524194 303.48590441 330.68247575 286.38965854 352.59375 266.1953125 C353.9429535 264.96438333 355.30071869 263.74218518 356.68725586 262.5534668 C362.58727232 257.49215991 368.07932107 252.06916149 373.5625 246.5625 C374.46935547 245.65951172 375.37621094 244.75652344 376.31054688 243.82617188 C381.41706693 238.7122457 386.31395014 233.50011082 391 228 C391.94918161 226.91679376 392.89964904 225.83471255 393.8515625 224.75390625 C400.9980156 216.55905192 407.67113909 208.06546416 414.19677734 199.37060547 C415.5143191 197.63850007 416.85066436 195.92065226 418.19775391 194.21142578 C424.74770857 185.86262289 430.71658677 177.20193955 436.56884766 168.35253906 C438.1252149 165.99967513 439.68896479 163.65185509 441.25390625 161.3046875 C442.27623695 159.76575471 443.29837499 158.22669392 444.3203125 156.6875 C444.81612823 155.94479355 445.31194397 155.2020871 445.82278442 154.43687439 C448.08485365 151.02157902 450.26290828 147.60368137 452.24560547 144.01782227 C456.94834829 135.55567394 456.94834829 135.55567394 459.95263672 133.96826172 C461.9296875 133.65234375 461.9296875 133.65234375 465.875 133.9375 C475.06538116 134.19062264 482.14970164 132.43512876 489 126 C490.0173873 125.01769502 491.02596117 124.02530403 492 123 C491.41884222 128.93962948 489.08417302 133.92215702 486.6875 139.3125 C486.0219812 140.82070313 486.0219812 140.82070313 485.34301758 142.359375 C465.07525438 187.92927718 439.55632813 229.5371912 405.59375 266.18359375 C403.12785427 268.86117029 400.71842369 271.58111745 398.3125 274.3125 C395.04388164 277.95983529 391.62855656 281.20955154 387.88671875 284.36328125 C386.0505395 285.95615725 384.37330967 287.62512156 382.6875 289.375 C378.61190947 293.50554231 374.13770279 297.09266647 369.60693359 300.70947266 C367.90104558 302.07947023 366.20984764 303.46631404 364.51953125 304.85546875 C355.67337093 312.08754723 346.54266385 318.71869735 337 325 C335.92588867 325.7110791 335.92588867 325.7110791 334.83007812 326.43652344 C317.32611929 337.95957813 298.98935793 347.83934456 280 356.6875 C278.92032959 357.1928125 277.84065918 357.698125 276.72827148 358.21875 C273.83997802 359.53848947 270.9342597 360.78654789 268 362 C266.97712891 362.46913818 266.97712891 362.46913818 265.93359375 362.94775391 C259.18567159 365.46061532 253.15617751 361.80487536 247 359 C245.8867334 358.50258301 244.7734668 358.00516602 243.62646484 357.49267578 C240.12427922 355.89289954 236.65308296 354.24004374 233.1875 352.5625 C232.56803497 352.26341736 231.94856995 351.96433472 231.31033325 351.65618896 C214.19646541 343.36440101 197.54266222 333.98318183 182 323 C180.89065164 322.22782631 179.781275 321.45569324 178.671875 320.68359375 C167.35487704 312.75305625 156.52762127 304.27390297 146.0625 295.25 C145.45994385 294.73139404 144.8573877 294.21278809 144.23657227 293.6784668 C140.55330679 290.46727106 137.06071243 287.12149589 133.64916992 283.62280273 C131.92023713 281.92151239 130.11309335 280.36474 128.25 278.8125 C123.18072656 274.43939371 118.7839521 269.4567307 114.32861328 264.47705078 C113.12537637 263.13938388 111.90541146 261.81681071 110.68359375 260.49609375 C104.37555231 253.6463958 98.63847202 246.40027049 93 239 C92.46213867 238.2972998 91.92427734 237.59459961 91.37011719 236.87060547 C43.77042104 174.40803481 16.27247231 100.94733683 2.39788818 24.16693115 C1.97849273 21.88286966 1.54021624 19.60290696 1.10009766 17.32275391 C0.81257516 15.79464344 0.52529549 14.26648726 0.23828125 12.73828125 C0.09907761 12.03567673 -0.04012604 11.3330722 -0.18354797 10.60917664 C-0.88931689 6.78117428 -1.07661559 3.75973285 0 0 Z " fill="#013966" transform="translate(316,455)"/>
<path d="M0 0 C0.74369339 -0.0065712 1.48738678 -0.0131424 2.25361633 -0.01991272 C4.71131504 -0.03959659 7.16895262 -0.05130043 9.62670898 -0.0612793 C10.4698509 -0.06535482 11.31299282 -0.06943035 12.18168449 -0.07362938 C16.64878975 -0.0944742 21.11586448 -0.10877997 25.58300781 -0.11816406 C30.17365724 -0.12919514 34.76381751 -0.16356109 39.35429478 -0.20333576 C42.90360855 -0.22961903 46.45280812 -0.23786647 50.00221062 -0.24144554 C51.69292422 -0.24628523 53.38363362 -0.25782358 55.07425117 -0.27648354 C66.9658171 -0.39952479 77.73750239 0.10544154 87.02514648 8.41918945 C89.11474479 10.81185927 90.79819823 13.53384519 92.56030273 16.17700195 C92.89030273 11.22700195 93.22030273 6.27700195 93.56030273 1.17700195 C135.47030273 1.17700195 177.38030273 1.17700195 220.56030273 1.17700195 C220.56030273 29.17700195 220.56030273 29.17700195 215.87280273 37.42700195 C207.56030273 42.17700195 207.56030273 42.17700195 178.56030273 42.17700195 C178.56030273 70.88700195 178.56030273 99.59700195 178.56030273 129.17700195 C164.04030273 129.17700195 149.52030273 129.17700195 134.56030273 129.17700195 C134.56030273 100.46700195 134.56030273 71.75700195 134.56030273 42.17700195 C121.69030273 42.17700195 108.82030273 42.17700195 95.56030273 42.17700195 C95.60670898 46.68098633 95.65311523 51.1849707 95.70092773 55.82543945 C95.72139099 58.69655657 95.74064832 61.56758246 95.75561523 64.4387207 C95.77943095 68.98562536 95.80745644 73.53220465 95.86206055 78.07885742 C95.90585456 81.74880132 95.92950961 85.41839583 95.93981171 89.08858109 C95.94714349 90.48149737 95.96145919 91.87439678 95.98322296 93.26716232 C96.15532358 104.74816498 94.67834367 113.82846043 86.62670898 122.41918945 C79.62693694 128.37362692 72.07992782 130.31947484 63.12060547 130.35400391 C62.37691208 130.3605751 61.63321869 130.3671463 60.86698914 130.37391663 C58.40929043 130.39360049 55.95165285 130.40530433 53.49389648 130.4152832 C52.65075457 130.41935873 51.80761265 130.42343426 50.93892097 130.42763329 C46.47181572 130.44847811 42.00474099 130.46278387 37.53759766 130.47216797 C32.94694823 130.48319905 28.35678796 130.51756499 23.76631069 130.55733967 C20.21699692 130.58362294 16.66779735 130.59187037 13.11839485 130.59544945 C11.42768125 130.60028914 9.73697184 130.61182749 8.04635429 130.63048744 C-4.29121443 130.75814346 -15.32544706 130.1250504 -24.71704102 121.17700195 C-30.79543634 114.11999877 -32.58340288 107.47632273 -32.61669922 98.35424805 C-32.62327042 97.56993408 -32.62984161 96.78562012 -32.63661194 95.97753906 C-32.65629976 93.38517145 -32.66799942 90.79286175 -32.67797852 88.20043945 C-32.68205404 87.31191914 -32.68612957 86.42339882 -32.6903286 85.50795364 C-32.71117328 80.80209843 -32.72548014 76.09627222 -32.73486328 71.39038086 C-32.74590522 66.5485402 -32.78028403 61.70716193 -32.82003498 56.86548424 C-32.84628256 53.12662956 -32.85456247 49.38788354 -32.85814476 45.64894485 C-32.86299219 43.86530063 -32.87455312 42.08166066 -32.89318275 40.29810715 C-33.01571876 27.78597369 -32.51642106 17.5484146 -23.50610352 7.93481445 C-16.50633147 1.98037699 -8.95932235 0.03452906 0 0 Z M11.56030273 41.17700195 C11.56030273 57.01700195 11.56030273 72.85700195 11.56030273 89.17700195 C24.76030273 89.17700195 37.96030273 89.17700195 51.56030273 89.17700195 C51.56030273 73.33700195 51.56030273 57.49700195 51.56030273 41.17700195 C38.36030273 41.17700195 25.16030273 41.17700195 11.56030273 41.17700195 Z " fill="#FCFCFC" transform="translate(988.439697265625,494.822998046875)"/>
<path d="M0 0 C2.08041376 0.00056485 4.16082792 0.00024612 6.24124146 -0.00088501 C11.86234695 -0.00145665 17.48336634 0.01026711 23.10445189 0.02426291 C28.98876361 0.03680174 34.8730775 0.03794325 40.75740051 0.04031372 C51.88829165 0.04651924 63.0191433 0.06291748 74.15001708 0.0830127 C86.82717177 0.10540062 99.50432838 0.1163724 112.18149793 0.12640357 C138.2483805 0.14728453 164.31522807 0.18244243 190.38208008 0.22705078 C190.51913455 4.72153791 190.60180908 9.21548163 190.67504883 13.71142578 C190.71432495 14.97776855 190.75360107 16.24411133 190.79406738 17.54882812 C190.88880548 25.30472004 190.65336578 30.35101638 185.69458008 36.47705078 C177.38208008 41.22705078 177.38208008 41.22705078 148.38208008 41.22705078 C148.38208008 69.93705078 148.38208008 98.64705078 148.38208008 128.22705078 C133.86208008 128.22705078 119.34208008 128.22705078 104.38208008 128.22705078 C104.38208008 99.51705078 104.38208008 70.80705078 104.38208008 41.22705078 C90.85208008 41.22705078 77.32208008 41.22705078 63.38208008 41.22705078 C62.88708008 36.77205078 62.88708008 36.77205078 62.38208008 32.22705078 C61.89485977 32.86400375 61.40763947 33.50095673 60.90565491 34.1572113 C56.62141377 39.14522272 53.53841168 41.80854945 46.85253906 42.34057617 C44.36140161 42.38070812 41.86916513 42.37306743 39.37817383 42.32470703 C37.39963158 42.33889931 37.39963158 42.33889931 35.38111877 42.3533783 C31.90330327 42.37782644 28.42796313 42.34908089 24.95037842 42.30859375 C21.39043001 42.27677845 17.83075793 42.29568454 14.27075195 42.31103516 C7.30581518 42.33739445 0.34866983 42.28016598 -6.61791992 42.22705078 C-6.94791992 57.07705078 -7.27791992 71.92705078 -7.61791992 87.22705078 C16.47208008 87.22705078 40.56208008 87.22705078 65.38208008 87.22705078 C65.38208008 100.75705078 65.38208008 114.28705078 65.38208008 128.22705078 C44.07093272 128.3072684 44.07093272 128.3072684 34.94458008 128.32470703 C28.73197996 128.33663458 22.51943913 128.35070262 16.30688477 128.37792969 C11.29481229 128.39975656 6.28280346 128.4116401 1.2706871 128.41680527 C-0.63574347 128.42048341 -2.5421708 128.42766565 -4.44857407 128.43851089 C-31.87711506 128.58825667 -31.87711506 128.58825667 -43.43823242 118.66455078 C-52.36881592 109.33007155 -52.21906053 97.00907124 -52.14916992 84.91455078 C-52.15187146 83.25268325 -52.15575935 81.59081726 -52.1607666 79.92895508 C-52.16663061 76.46273604 -52.15819975 72.99693211 -52.1394043 69.53076172 C-52.11661629 65.11619513 -52.12975618 60.70260168 -52.15369415 56.28807068 C-52.16823666 52.86137733 -52.16350775 49.43490986 -52.15318298 46.00820923 C-52.15053896 44.38172283 -52.15370236 42.75521505 -52.1631012 41.12875366 C-52.21765775 29.03823603 -51.41363756 18.08731662 -42.59057617 8.94580078 C-30.56202661 -1.53451963 -14.96429053 -0.05703736 0 0 Z " fill="#000000" transform="translate(1378.617919921875,495.77294921875)"/>
<path d="M0 0 C23.203125 -0.0928125 23.203125 -0.0928125 46.875 -0.1875 C51.74362793 -0.21481201 56.61225586 -0.24212402 61.62841797 -0.27026367 C67.61352539 -0.28381348 67.61352539 -0.28381348 70.42312622 -0.28633118 C72.36854109 -0.29091172 74.31394791 -0.30140819 76.25930786 -0.31672668 C79.22103474 -0.33886503 82.18224507 -0.34171207 85.14404297 -0.34057617 C86.42506299 -0.35676766 86.42506299 -0.35676766 87.7319622 -0.37328625 C97.84340847 -0.32179116 106.30749718 2.41922344 113.625 9.5625 C120.30954782 18.25890202 120.94385811 28.41037243 120 39 C118.8688677 45.61277345 116.86530752 50.35584282 112 55 C106.2125 59 106.2125 59 103 59 C103 59.99 103 60.98 103 62 C103.825 62.061875 104.65 62.12375 105.5 62.1875 C111.86107809 63.66417884 116.40622036 66.58313629 119.9375 72.125 C123.59124115 78.4911795 123.25336934 84.44259584 123.3125 91.625 C123.35600586 93.35169922 123.35600586 93.35169922 123.40039062 95.11328125 C123.46648212 104.03054854 121.71468775 109.84812462 116.875 117.25 C108.84497278 124.9308956 99.96805659 126.15555477 89.34448242 126.11352539 C87.87161884 126.11370619 87.87161884 126.11370619 86.36900043 126.11389065 C83.19779998 126.11314563 80.02665866 126.10553606 76.85546875 126.09765625 C74.89473499 126.09618556 72.93400083 126.09516563 70.9732666 126.09460449 C63.71133841 126.08936633 56.44941862 126.0754051 49.1875 126.0625 C32.955625 126.041875 16.72375 126.02125 0 126 C0 84.42 0 42.84 0 0 Z " fill="#000000" transform="translate(464,497)"/>
<path d="M0 0 C23.4196875 -0.061875 23.4196875 -0.061875 47.3125 -0.125 C52.22423096 -0.14320801 57.13596191 -0.16141602 62.1965332 -0.18017578 C68.24060059 -0.18920898 68.24060059 -0.18920898 71.07902527 -0.19088745 C73.04188445 -0.19393855 75.00474013 -0.20093064 76.96757507 -0.21115112 C108.50499967 -0.36701539 108.50499967 -0.36701539 119.07421875 10.04296875 C127.51502967 20.04099426 127.45374639 31.33914421 127.3984375 43.8125 C127.40046313 45.43335094 127.40337861 47.05420098 127.40713501 48.67504883 C127.4115354 52.05721796 127.40520161 55.43914794 127.39111328 58.82128906 C127.37402265 63.13158715 127.38387619 67.4413246 127.40183067 71.75160217 C127.4127307 75.09415829 127.40919384 78.436584 127.4014473 81.77914429 C127.39946243 83.36738147 127.40184352 84.95563095 127.40888596 86.54385376 C127.44958131 98.29768706 126.9540941 108.60845449 119.078125 117.95703125 C110.02202014 126.85993132 99.16666878 128.32769655 86.96044922 128.22705078 C85.99776186 128.22729185 85.0350745 128.22753292 84.0432148 128.2277813 C80.96360773 128.22630264 77.88425058 128.21113703 74.8046875 128.1953125 C72.88875444 128.19236757 70.97281976 128.1903299 69.05688477 128.18920898 C61.99623178 128.17877383 54.93561337 128.15085132 47.875 128.125 C32.07625 128.08375 16.2775 128.0425 0 128 C0 85.76 0 43.52 0 0 Z M44 41 C44 56.18 44 71.36 44 87 C56.87 87 69.74 87 83 87 C83 72.15 83 57.3 83 42 C79.535 41.835 76.07 41.67 72.5 41.5 C71.44490234 41.44779297 70.38980469 41.39558594 69.30273438 41.34179688 C60.8393817 40.95737639 52.50356456 41 44 41 Z " fill="#FCFCFC" transform="translate(1692,496)"/>
<path d="M0 0 C37.95 0 75.9 0 115 0 C115 27 115 27 109.8359375 35.6328125 C98.88810486 44.49534368 84.95194613 42.48375363 71.625 41.875 C68.94299359 41.79663995 66.26067443 41.73984892 63.578125 41.68359375 C57.0481643 41.53033489 50.52492082 41.29699401 44 41 C44 41.99 44 42.98 44 44 C61.16 44 78.32 44 96 44 C96 57.2 96 70.4 96 84 C78.84 84 61.68 84 44 84 C44 84.99 44 85.98 44 87 C67.43 87 90.86 87 115 87 C115 100.53 115 114.06 115 128 C77.05 128 39.1 128 0 128 C0 85.76 0 43.52 0 0 Z " fill="#FEFEFE" transform="translate(1571,496)"/>
<path d="M0 0 C37.95 0 75.9 0 115 0 C115 27 115 27 109.8359375 35.6328125 C98.88810486 44.49534368 84.95194613 42.48375363 71.625 41.875 C68.94299359 41.79663995 66.26067443 41.73984892 63.578125 41.68359375 C57.0481643 41.53033489 50.52492082 41.29699401 44 41 C44 41.99 44 42.98 44 44 C61.16 44 78.32 44 96 44 C96 57.2 96 70.4 96 84 C78.84 84 61.68 84 44 84 C44 84.99 44 85.98 44 87 C67.43 87 90.86 87 115 87 C115 100.53 115 114.06 115 128 C77.05 128 39.1 128 0 128 C0 85.76 0 43.52 0 0 Z " fill="#FEFEFE" transform="translate(1211,496)"/>
<path d="M0 0 C14.97375 -0.0825 29.9475 -0.165 45.375 -0.25 C50.08700684 -0.28641602 54.79901367 -0.32283203 59.65380859 -0.36035156 C65.44848633 -0.37841797 65.44848633 -0.37841797 68.1690979 -0.3817749 C70.05203034 -0.38788046 71.93494804 -0.40187199 73.81777954 -0.42230225 C96.33829038 -0.65425835 96.33829038 -0.65425835 104.65625 6.18359375 C105.2646875 6.92738281 105.873125 7.67117188 106.5 8.4375 C107.1290625 9.17871094 107.758125 9.91992188 108.40625 10.68359375 C111.866429 15.71272646 112.3182797 20.2733189 112.3359375 26.265625 C112.3459227 27.45487579 112.3459227 27.45487579 112.35610962 28.66815186 C112.36620824 30.34238374 112.3709275 32.01665566 112.37060547 33.69091797 C112.37496262 36.22823011 112.41126475 38.76377828 112.44921875 41.30078125 C112.57536228 59.13474933 112.57536228 59.13474933 106.25830078 65.85205078 C102.31899014 69.53501699 98.51929756 72 93 72 C98.40675532 78.75191425 103.9535025 85.24988603 109.8359375 91.58984375 C110.90714844 92.78287109 110.90714844 92.78287109 112 94 C112.58652344 94.59425781 113.17304687 95.18851563 113.77734375 95.80078125 C115.64254003 99.15575091 115.31591333 102.52272065 115.1875 106.25 C115.16719727 107.36761719 115.16719727 107.36761719 115.14648438 108.5078125 C115.11127204 110.33885416 115.05746851 112.16952169 115 114 C87.72847365 116.07448708 87.72847365 116.07448708 82.19921875 111.78515625 C79.68985301 108.65974327 77.86371865 105.54464187 76 102 C74.41914478 99.78455283 72.71139332 97.67803501 71 95.5625 C68.36148574 92.2691099 65.97941934 89.07516905 64.02734375 85.32421875 C61.8759242 81.49087408 59.92958779 78.18352978 56 76 C47.72948711 74.11619986 39.44487935 74.77776633 31 75 C31 87.87 31 100.74 31 114 C20.77 114 10.54 114 0 114 C0 76.38 0 38.76 0 0 Z M38 34 C38 36.31 38 38.62 38 41 C43.10863896 41.0246501 48.21724359 41.04283607 53.32592773 41.05493164 C55.06519168 41.05997204 56.80445136 41.0668043 58.54370117 41.07543945 C61.03825937 41.08751792 63.53276173 41.09323108 66.02734375 41.09765625 C67.2007859 41.10539818 67.2007859 41.10539818 68.39793396 41.11329651 C70.26567114 41.11349226 72.13329204 41.06199694 74 41 C75.29633621 39.93354885 75.29633621 39.93354885 75.0625 37.4375 C75.041875 36.633125 75.02125 35.82875 75 35 C62.65822514 34.36405271 50.36008863 33.82672773 38 34 Z " fill="#FEFEFE" transform="translate(829,503)"/>
<path d="M0 0 C22.460625 -0.1546875 22.460625 -0.1546875 45.375 -0.3125 C50.08700684 -0.35802002 54.79901367 -0.40354004 59.65380859 -0.45043945 C65.44848633 -0.47302246 65.44848633 -0.47302246 68.1690979 -0.47721863 C70.05205203 -0.48485066 71.93498312 -0.50234046 73.81777954 -0.52787781 C95.77721803 -0.81059929 95.77721803 -0.81059929 103.88046265 6.75590515 C110.14118218 13.26615279 111.46279668 20.05713981 111.43359375 28.7734375 C111.4388356 29.69661774 111.44407745 30.61979797 111.44947815 31.57095337 C111.45587519 33.51571654 111.45459152 35.46051852 111.44604492 37.40527344 C111.43754479 40.35943509 111.46631285 43.31165439 111.49804688 46.265625 C111.49965954 48.16406193 111.49908011 50.06250224 111.49609375 51.9609375 C111.50732773 52.83309906 111.51856171 53.70526062 111.53013611 54.60385132 C111.44728078 62.00194692 109.14831749 67.49903817 105.3125 73.75 C99.28721454 79.61243991 92.50224349 82.13152662 84.22167969 82.11352539 C83.0607782 82.11344986 81.89987671 82.11337433 80.70379639 82.11329651 C78.8317453 82.10555458 78.8317453 82.10555458 76.921875 82.09765625 C75.64016418 82.0962413 74.35845337 82.09482635 73.03790283 82.09336853 C69.6381636 82.08955901 66.2384674 82.07974214 62.83874512 82.06866455 C59.36646111 82.05841674 55.8941699 82.05380883 52.421875 82.04882812 C45.61454538 82.0386497 38.80733379 82.0190741 32 82 C32 92.56 32 103.12 32 114 C21.44 114 10.88 114 0 114 C0 76.38 0 38.76 0 0 Z M63 35 C62.01 38.96 61.02 42.92 60 47 C64.29 47 68.58 47 73 47 C73 43.04 73 39.08 73 35 C69.7 35 66.4 35 63 35 Z " fill="#FCFCFC" transform="translate(697,503)"/>
<path d="M0 0 C0.83909912 -0.00014603 1.67819824 -0.00029205 2.54272461 -0.0004425 C5.32391928 0.00025571 8.10504746 0.00804384 10.88623047 0.01586914 C12.81151289 0.01773365 14.73679579 0.0191574 16.66207886 0.02015686 C21.73542587 0.02397948 26.80874436 0.0338076 31.88208008 0.04486084 C37.0566367 0.05508044 42.23119792 0.05965566 47.40576172 0.06469727 C57.56332635 0.07543008 67.72086979 0.09250346 77.87841797 0.11352539 C79.20897692 16.26092594 79.20897692 16.26092594 76.37205505 22.34303284 C72.25618878 27.01441882 68.43736033 28.61029179 62.28881836 29.1953125 C59.76798029 29.2220662 57.24632408 29.20154019 54.72607422 29.14086914 C53.37608526 29.14144525 52.02609208 29.14628583 50.6761322 29.15516663 C47.1496719 29.16837052 43.62576761 29.12999984 40.09973145 29.07849121 C35.11032875 29.01501281 30.12045277 29.0213893 25.13072205 29.02186584 C22.47760419 29.02208772 19.8278268 28.9994765 17.17457581 28.96531677 C15.98251022 28.95613724 14.79044464 28.9469577 13.56225586 28.9375 C12.51018448 28.92367783 11.4581131 28.90985565 10.37416077 28.89561462 C7.70404525 28.859284 7.70404525 28.859284 5.87841797 31.11352539 C5.57222503 33.4036259 5.57222503 33.4036259 5.61962891 36.08227539 C5.61332458 37.11674805 5.60702026 38.1512207 5.6005249 39.21704102 C5.60457336 40.33788086 5.60862183 41.4587207 5.61279297 42.61352539 C5.61087952 43.76014648 5.60896606 44.90676758 5.60699463 46.08813477 C5.60563175 48.51587137 5.6093353 50.94361523 5.61767578 53.37133789 C5.62837359 57.09806612 5.61778366 60.82431225 5.60498047 64.55102539 C5.60630204 66.90519313 5.6088644 69.25936056 5.61279297 71.61352539 C5.60874451 72.73436523 5.60469604 73.85520508 5.6005249 75.01000977 C5.60682922 76.04448242 5.61313354 77.07895508 5.61962891 78.14477539 C5.62122009 79.05807617 5.62281128 79.97137695 5.62445068 80.91235352 C5.6713178 83.32069166 5.6713178 83.32069166 7.87841797 85.11352539 C10.91417966 85.44664415 10.91417966 85.44664415 14.53125 85.43237305 C15.21429199 85.44241867 15.89733398 85.45246429 16.60107422 85.46281433 C18.86278426 85.49374909 21.12437541 85.51070962 23.38623047 85.52758789 C24.95279979 85.54629131 26.51935895 85.56586409 28.08590698 85.58627319 C32.21223979 85.63768791 36.3386053 85.67726342 40.46508789 85.7144165 C44.67456207 85.7543978 48.88389915 85.80551685 53.09326172 85.85571289 C61.35489393 85.95258276 69.61658229 86.03592281 77.87841797 86.11352539 C77.87841797 95.35352539 77.87841797 104.59352539 77.87841797 114.11352539 C66.80358934 114.20402877 55.72900783 114.27735809 44.65389252 114.32077408 C39.51082071 114.3416155 34.36801585 114.36987022 29.22509766 114.4152832 C24.25840138 114.45886379 19.29196128 114.4826884 14.3250885 114.49303436 C12.4337206 114.50040383 10.54236612 114.51479467 8.65110779 114.53644562 C5.99415193 114.56564221 3.33824376 114.56947466 0.68115234 114.56762695 C-0.09424896 114.58200806 -0.86965027 114.59638916 -1.66854858 114.61120605 C-9.19393638 114.55487784 -15.79040042 111.44470701 -21.12158203 106.11352539 C-25.52877339 99.35916129 -27.23447516 94.28422237 -27.29858398 86.20874023 C-27.30515518 85.52196198 -27.31172638 84.83518372 -27.3184967 84.12759399 C-27.33816754 81.85988236 -27.34988089 79.59223689 -27.35986328 77.32446289 C-27.36393881 76.5462682 -27.36801434 75.7680735 -27.37221336 74.96629715 C-27.39305173 70.84398924 -27.40736078 66.72171436 -27.41674805 62.59936523 C-27.42778331 58.362836 -27.46215575 54.1268362 -27.50191975 49.89049339 C-27.52819802 46.61486912 -27.53644995 43.33936861 -27.54002953 40.06364822 C-27.5448698 38.5032864 -27.55640993 36.94292914 -27.57506752 35.38267136 C-27.68901958 25.21827755 -26.76858354 17.19186124 -21.43408203 8.30102539 C-15.13705062 2.34437405 -8.45581916 -0.03814559 0 0 Z " fill="#FCFCFC" transform="translate(1360.12158203125,502.886474609375)"/>
<path d="M0 0 C0.99 0.495 0.99 0.495 2 1 C1.22412852 9.04966665 -0.11645915 16.97225766 -1.5 24.9375 C-1.72803255 26.27666412 -1.95589833 27.61585664 -2.18359375 28.95507812 C-2.40144531 30.21642578 -2.61929688 31.47777344 -2.84375 32.77734375 C-3.04162109 33.92452881 -3.23949219 35.07171387 -3.44335938 36.25366211 C-4 39 -4 39 -5 41 C-3.43597946 40.99333817 -3.43597946 40.99333817 -1.84036255 40.98654175 C8.01632557 40.94588685 17.87299654 40.91596352 27.72974968 40.89637566 C32.79643135 40.88596662 37.86304498 40.8718603 42.9296875 40.84912109 C47.82505074 40.82728967 52.7203488 40.81540974 57.61575699 40.81024551 C59.47753042 40.80656818 61.33930053 40.79938754 63.20104599 40.78853989 C77.16467571 40.71046173 88.4879844 41.11160939 100.625 48.625 C109.77824963 57.77824963 111.29874334 68.18089126 111.32226562 80.58984375 C111.32009033 81.2947998 111.31791504 81.99975586 111.31567383 82.72607422 C111.31251702 84.86347665 111.33601945 86.99948693 111.36132812 89.13671875 C111.40828288 99.32752946 110.70095811 108.80994009 104 117 C101.74721327 119.10713241 99.41753793 121.084984 97 123 C98.63882206 127.03402354 101.48651832 129.89127354 104.4375 133 C106.30824115 134.9862797 108.15847145 136.98608467 110 139 C110.54317871 139.59393555 111.08635742 140.18787109 111.64599609 140.79980469 C113.43306075 143.7037042 113.34287007 145.68483514 113.29296875 149.078125 C113.28330078 150.23828125 113.27363281 151.3984375 113.26367188 152.59375 C113.2259668 154.40359375 113.2259668 154.40359375 113.1875 156.25 C113.17396484 157.47203125 113.16042969 158.6940625 113.14648438 159.953125 C113.1111398 162.96919498 113.0617956 165.98437487 113 169 C107.77182377 169.2990158 102.54871509 169.5153942 97.31396484 169.65917969 C95.53834296 169.71915166 93.76330446 169.8007725 91.98974609 169.90527344 C77.74769378 170.72276884 77.74769378 170.72276884 73.26849365 167.91436768 C69.77752306 164.78801803 67.42884655 160.98940979 65 157 C63.91023718 155.5469829 62.80572922 154.10477407 61.6796875 152.6796875 C60.74327074 151.41258092 59.80834596 150.14437022 58.875 148.875 C58.36622314 148.20267334 57.85744629 147.53034668 57.33325195 146.83764648 C55.09287877 143.87498465 52.96406232 140.94270906 50.98828125 137.79296875 C49.04341078 134.63034415 49.04341078 134.63034415 45 131 C40.05 130.67 35.1 130.34 30 130 C30 142.87 30 155.74 30 169 C15.15 169 0.3 169 -15 169 C-15.33 142.27 -15.66 115.54 -16 88 C-20.04365973 100.62951156 -20.04365973 100.62951156 -23.6875 113.375 C-25.93652307 121.68105113 -30.79859114 126.91802643 -38.1953125 131.30078125 C-53.37409883 139.00219498 -73.45729067 136.1180066 -90 136 C-90.17523193 136.62036133 -90.35046387 137.24072266 -90.53100586 137.87988281 C-92.21149757 143.67392358 -94.18919139 149.20717603 -96.5625 154.75 C-97.16990773 156.18147046 -97.77541549 157.61374879 -98.37890625 159.046875 C-98.6426001 159.66401367 -98.90629395 160.28115234 -99.17797852 160.91699219 C-100.22556645 163.57158687 -101.0975415 166.29262451 -102 169 C-123.78 168.505 -123.78 168.505 -146 168 C-146 126.42 -146 84.84 -146 42 C-123.539375 41.690625 -123.539375 41.690625 -100.625 41.375 C-95.91299316 41.30458496 -91.20098633 41.23416992 -86.34619141 41.16162109 C-80.55151367 41.08911133 -80.55151367 41.08911133 -77.8309021 41.05776978 C-75.94795509 41.03408425 -74.06505735 41.00624205 -72.18222046 40.9750061 C-69.31503519 40.92827289 -66.44796584 40.89511533 -63.58056641 40.86474609 C-62.34170402 40.83989923 -62.34170402 40.83989923 -61.0778141 40.8145504 C-49.33137397 40.73026742 -38.65893601 43.59816577 -29.9765625 51.9453125 C-28.58083519 53.57252629 -27.2808806 55.28092341 -26 57 C-25.34 57.66 -24.68 58.32 -24 59 C-15.13987105 39.64286625 -7.45342261 19.93116294 0 0 Z M-140 48 C-140 85.62 -140 123.24 -140 162 C-129.44 162 -118.88 162 -108 162 C-108 151.44 -108 140.88 -108 130 C-103.92914062 130.04640625 -99.85828125 130.0928125 -95.6640625 130.140625 C-92.39321886 130.16639633 -89.12240438 130.18807058 -85.85151672 130.20700073 C-82.41235571 130.22801717 -78.97359689 130.25604271 -75.53466797 130.30175781 C-71.57785092 130.35402097 -67.62119111 130.37303456 -63.6640625 130.390625 C-62.44699615 130.41127014 -61.22992981 130.43191528 -59.97598267 130.45318604 C-51.23362731 130.45546212 -44.6797214 128.80783284 -37.1875 124.3125 C-32.45361589 119.30810822 -28.93021957 112.82980971 -28.80712891 105.87084961 C-28.78303452 104.62826637 -28.78303452 104.62826637 -28.75845337 103.36058044 C-28.71367058 99.55753615 -28.67289771 95.75466316 -28.64990234 91.95141602 C-28.63340335 89.95455217 -28.60619412 87.95774589 -28.56787109 85.96118164 C-27.90030101 69.27343012 -27.90030101 69.27343012 -35.75634766 55.12280273 C-42.10499046 49.00301749 -48.72107761 47.54952108 -57.23999023 47.65942383 C-58.15275506 47.65906222 -59.06551989 47.65870062 -60.00594425 47.65832806 C-62.94038925 47.66055495 -65.87425194 47.68334402 -68.80859375 47.70703125 C-70.6282931 47.7114459 -72.44799627 47.7145041 -74.2677002 47.71618652 C-80.99102515 47.73187113 -87.71426839 47.77375498 -94.4375 47.8125 C-116.9909375 47.9053125 -116.9909375 47.9053125 -140 48 Z M-8 48 C-8 85.62 -8 123.24 -8 162 C2.23 162 12.46 162 23 162 C23 149.13 23 136.26 23 123 C46.82554131 122.24363361 46.82554131 122.24363361 51.6171875 126.55078125 C54.02430484 129.39731693 55.86055614 132.5728911 57.68212891 135.81591797 C60.19822043 139.98578733 63.34223746 143.69917225 66.375 147.5 C67.53014643 148.98841995 68.68385998 150.47795337 69.8359375 151.96875 C70.38838135 152.65372559 70.9408252 153.33870117 71.51000977 154.04443359 C73 156 73 156 74.00366211 157.85009766 C75.07342308 159.86311006 75.07342308 159.86311006 78 162 C82.94502635 162.73553379 87.83337742 162.56401289 92.8125 162.375 C94.18679094 162.34488122 95.56114499 162.31750872 96.93554688 162.29296875 C100.29196969 162.22230722 103.64518065 162.12367705 107 162 C108.15965045 152.21421784 108.15965045 152.21421784 105.3125 143.09765625 C102.97895803 140.59801147 100.51804794 138.31264826 98 136 C96.36428011 134.08906374 94.7594972 132.15119085 93.1875 130.1875 C92.47980469 129.31480469 91.77210938 128.44210937 91.04296875 127.54296875 C89.02520924 125.031379 87.01093444 122.51705726 85 120 C85.825 119.95875 86.65 119.9175 87.5 119.875 C92.84369134 118.53907717 97.0728487 115.61186982 100.36328125 111.15234375 C103.56346603 105.6713 104.17862415 101.10297669 104.23828125 94.89453125 C104.25038887 93.6974781 104.25038887 93.6974781 104.26274109 92.47624207 C104.27656752 90.7858598 104.28729612 89.09544979 104.29516602 87.4050293 C104.30666271 85.68554439 104.32707792 83.96609452 104.35668945 82.24682617 C104.39961289 79.75414938 104.41557063 77.26253295 104.42578125 74.76953125 C104.45204338 73.63158867 104.45204338 73.63158867 104.47883606 72.47065735 C104.45251192 65.89782412 102.37710988 60.8215695 98.140625 55.79296875 C97.51671875 55.26316406 96.8928125 54.73335938 96.25 54.1875 C95.63640625 53.64480469 95.0228125 53.10210937 94.390625 52.54296875 C87.9757535 48.40265136 82.08330067 47.56306687 74.64648438 47.65942383 C73.73359901 47.65906222 72.82071365 47.65870062 71.8801651 47.65832806 C68.95113001 47.6605514 66.02268144 47.6833239 63.09375 47.70703125 C61.2750679 47.71144701 59.45638199 47.71450452 57.63769531 47.71618652 C50.92507173 47.73185835 44.21252999 47.7737422 37.5 47.8125 C14.9775 47.9053125 14.9775 47.9053125 -8 48 Z " fill="#040404" transform="translate(837,455)"/>
<path d="M0 0 C37.62 0 75.24 0 114 0 C114 6.27 114 12.54 114 19 C109.545 23.455 109.545 23.455 105 28 C94.44 28 83.88 28 73 28 C73 56.38 73 84.76 73 114 C62.44 114 51.88 114 41 114 C41 85.62 41 57.24 41 28 C27.47 28 13.94 28 0 28 C0 18.76 0 9.52 0 0 Z " fill="#FCFCFC" transform="translate(1448,503)"/>
<path d="M0 0 C37.62 0 75.24 0 114 0 C114 6.27 114 12.54 114 19 C109.545 23.455 109.545 23.455 105 28 C94.44 28 83.88 28 73 28 C73 56.38 73 84.76 73 114 C62.44 114 51.88 114 41 114 C41 85.62 41 57.24 41 28 C27.47 28 13.94 28 0 28 C0 18.76 0 9.52 0 0 Z " fill="#FCFCFC" transform="translate(1088,503)"/>
<path d="M0 0 C0.74369339 -0.0065712 1.48738678 -0.0131424 2.25361633 -0.01991272 C4.71131504 -0.03959659 7.16895262 -0.05130043 9.62670898 -0.0612793 C10.4698509 -0.06535482 11.31299282 -0.06943035 12.18168449 -0.07362938 C16.64878975 -0.0944742 21.11586448 -0.10877997 25.58300781 -0.11816406 C30.17365724 -0.12919514 34.76381751 -0.16356109 39.35429478 -0.20333576 C42.90360855 -0.22961903 46.45280812 -0.23786647 50.00221062 -0.24144554 C51.69292422 -0.24628523 53.38363362 -0.25782358 55.07425117 -0.27648354 C66.9658171 -0.39952479 77.73750239 0.10544154 87.02514648 8.41918945 C89.11474479 10.81185927 90.79819823 13.53384519 92.56030273 16.17700195 C92.89030273 11.22700195 93.22030273 6.27700195 93.56030273 1.17700195 C135.47030273 1.17700195 177.38030273 1.17700195 220.56030273 1.17700195 C220.56030273 29.17700195 220.56030273 29.17700195 215.87280273 37.42700195 C207.56030273 42.17700195 207.56030273 42.17700195 178.56030273 42.17700195 C178.56030273 70.88700195 178.56030273 99.59700195 178.56030273 129.17700195 C164.04030273 129.17700195 149.52030273 129.17700195 134.56030273 129.17700195 C134.56030273 100.46700195 134.56030273 71.75700195 134.56030273 42.17700195 C121.69030273 42.17700195 108.82030273 42.17700195 95.56030273 42.17700195 C95.60670898 46.68098633 95.65311523 51.1849707 95.70092773 55.82543945 C95.72139099 58.69655657 95.74064832 61.56758246 95.75561523 64.4387207 C95.77943095 68.98562536 95.80745644 73.53220465 95.86206055 78.07885742 C95.90585456 81.74880132 95.92950961 85.41839583 95.93981171 89.08858109 C95.94714349 90.48149737 95.96145919 91.87439678 95.98322296 93.26716232 C96.15532358 104.74816498 94.67834367 113.82846043 86.62670898 122.41918945 C79.62693694 128.37362692 72.07992782 130.31947484 63.12060547 130.35400391 C62.37691208 130.3605751 61.63321869 130.3671463 60.86698914 130.37391663 C58.40929043 130.39360049 55.95165285 130.40530433 53.49389648 130.4152832 C52.65075457 130.41935873 51.80761265 130.42343426 50.93892097 130.42763329 C46.47181572 130.44847811 42.00474099 130.46278387 37.53759766 130.47216797 C32.94694823 130.48319905 28.35678796 130.51756499 23.76631069 130.55733967 C20.21699692 130.58362294 16.66779735 130.59187037 13.11839485 130.59544945 C11.42768125 130.60028914 9.73697184 130.61182749 8.04635429 130.63048744 C-4.29121443 130.75814346 -15.32544706 130.1250504 -24.71704102 121.17700195 C-30.79543634 114.11999877 -32.58340288 107.47632273 -32.61669922 98.35424805 C-32.62327042 97.56993408 -32.62984161 96.78562012 -32.63661194 95.97753906 C-32.65629976 93.38517145 -32.66799942 90.79286175 -32.67797852 88.20043945 C-32.68205404 87.31191914 -32.68612957 86.42339882 -32.6903286 85.50795364 C-32.71117328 80.80209843 -32.72548014 76.09627222 -32.73486328 71.39038086 C-32.74590522 66.5485402 -32.78028403 61.70716193 -32.82003498 56.86548424 C-32.84628256 53.12662956 -32.85456247 49.38788354 -32.85814476 45.64894485 C-32.86299219 43.86530063 -32.87455312 42.08166066 -32.89318275 40.29810715 C-33.01571876 27.78597369 -32.51642106 17.5484146 -23.50610352 7.93481445 C-16.50633147 1.98037699 -8.95932235 0.03452906 0 0 Z M-20.43969727 14.17700195 C-24.58057804 20.66556157 -26.58720994 25.8093846 -26.61669922 33.53491211 C-26.62327042 34.28167206 -26.62984161 35.02843201 -26.63661194 35.79782104 C-26.65632901 38.27056992 -26.66800643 40.74325798 -26.67797852 43.21606445 C-26.68205404 44.06261974 -26.68612957 44.90917503 -26.6903286 45.78138351 C-26.71118655 50.26563014 -26.7254872 54.74984623 -26.73486328 59.23413086 C-26.74590307 63.85078752 -26.78027537 68.46695893 -26.82003498 73.0834446 C-26.84627244 76.645547 -26.85456161 80.20753528 -26.85814476 83.7697258 C-26.86299547 85.47046547 -26.87456594 87.17120056 -26.89318275 88.87184525 C-27.13264999 101.56794269 -27.13264999 101.56794269 -22.43969727 113.17700195 C-21.88282227 114.08450195 -21.32594727 114.99200195 -20.75219727 115.92700195 C-14.22426967 122.27849907 -7.23410647 124.28545035 1.64868164 124.35400391 C2.35496704 124.3605751 3.06125244 124.3671463 3.78894043 124.37391663 C6.12158326 124.39359123 8.45416175 124.40530154 10.78686523 124.4152832 C11.98725496 124.42139649 11.98725496 124.42139649 13.21189499 124.42763329 C17.45091236 124.44847306 21.68989761 124.46278162 25.92895508 124.47216797 C30.28654592 124.48320471 34.64362224 124.51757858 39.00103188 124.55733967 C42.36930221 124.58361112 45.73745213 124.59186927 49.10581589 124.59544945 C50.71083409 124.60029131 52.31584779 124.61183607 53.92076492 124.63048744 C64.09774972 124.74137073 73.22740917 124.58243577 81.43530273 117.80200195 C87.46302419 110.35599309 89.78810423 104.20009438 89.86669922 94.56445312 C89.87918449 93.47510719 89.87918449 93.47510719 89.891922 92.36375427 C89.91585531 89.98243723 89.92477343 87.60139496 89.93139648 85.2199707 C89.94037546 83.54999212 89.94949752 81.88001429 89.95875549 80.21003723 C89.97520276 76.71585137 89.98293781 73.22176084 89.98583984 69.72753906 C89.9912194 65.27235089 90.0288996 60.81807118 90.07458401 56.36313915 C90.10447416 52.91507271 90.11156598 49.46722193 90.11256599 46.01903725 C90.11674456 44.37772778 90.12908286 42.73641625 90.15008354 41.09523582 C90.27122768 30.80981746 89.93049343 22.00941596 82.59959412 14.04753113 C73.69476846 5.35314755 63.59326981 5.71464514 51.94311523 5.7434082 C50.31940494 5.73883954 48.69569657 5.73353195 47.07199097 5.7275238 C43.677878 5.7186183 40.28400063 5.72098587 36.88989258 5.73095703 C32.56372833 5.74243469 28.23838182 5.72224111 23.91232491 5.69303989 C20.56117682 5.67459546 17.21022166 5.6749868 13.85903549 5.68067741 C12.26520517 5.68082967 10.67136097 5.67486533 9.0775795 5.66238594 C-1.59445381 5.59059226 -12.59103881 5.87984873 -20.43969727 14.17700195 Z M99.56030273 8.17700195 C99.56030273 17.41700195 99.56030273 26.65700195 99.56030273 36.17700195 C113.09030273 36.17700195 126.62030273 36.17700195 140.56030273 36.17700195 C140.56030273 64.55700195 140.56030273 92.93700195 140.56030273 122.17700195 C151.12030273 122.17700195 161.68030273 122.17700195 172.56030273 122.17700195 C172.56030273 93.79700195 172.56030273 65.41700195 172.56030273 36.17700195 C183.12030273 36.17700195 193.68030273 36.17700195 204.56030273 36.17700195 C209.01530273 31.72200195 209.01530273 31.72200195 213.56030273 27.17700195 C213.56030273 20.90700195 213.56030273 14.63700195 213.56030273 8.17700195 C175.94030273 8.17700195 138.32030273 8.17700195 99.56030273 8.17700195 Z " fill="#000000" transform="translate(988.439697265625,494.822998046875)"/>
<path d="M0 0 C37.95 0 75.9 0 115 0 C115 27 115 27 109.8359375 35.6328125 C98.88810486 44.49534368 84.95194613 42.48375363 71.625 41.875 C68.94299359 41.79663995 66.26067443 41.73984892 63.578125 41.68359375 C57.0481643 41.53033489 50.52492082 41.29699401 44 41 C44 41.99 44 42.98 44 44 C61.16 44 78.32 44 96 44 C96 57.2 96 70.4 96 84 C78.84 84 61.68 84 44 84 C44 84.99 44 85.98 44 87 C67.43 87 90.86 87 115 87 C115 100.53 115 114.06 115 128 C77.05 128 39.1 128 0 128 C0 85.76 0 43.52 0 0 Z M6 7 C6 44.62 6 82.24 6 121 C39.66 121 73.32 121 108 121 C108 112.09 108 103.18 108 94 C84.57 94 61.14 94 37 94 C37 88.39 37 82.78 37 77 C54.16 77 71.32 77 89 77 C89 68.42 89 59.84 89 51 C72.17 51 55.34 51 38 51 C38 45.39 38 39.78 38 34 C39.80073975 34.04713135 41.60147949 34.0942627 43.45678711 34.14282227 C49.43559484 34.28850026 55.41389641 34.39160343 61.39392757 34.46630955 C65.0166461 34.51310011 68.63742885 34.57645103 72.2590332 34.67895508 C75.76054658 34.77742922 79.26021033 34.83069374 82.7630024 34.85389519 C84.7359289 34.87839202 86.70812001 34.94854764 88.67991638 35.01966858 C94.90179249 35.02313372 99.42659512 34.52840854 104.38891602 30.57006836 C109.63195829 23.58908259 109.63195829 23.58908259 108 7 C74.34 7 40.68 7 6 7 Z " fill="#020202" transform="translate(1571,496)"/>
<path d="M0 0 C37.95 0 75.9 0 115 0 C115 27 115 27 109.8359375 35.6328125 C98.88810486 44.49534368 84.95194613 42.48375363 71.625 41.875 C68.94299359 41.79663995 66.26067443 41.73984892 63.578125 41.68359375 C57.0481643 41.53033489 50.52492082 41.29699401 44 41 C44 41.99 44 42.98 44 44 C61.16 44 78.32 44 96 44 C96 57.2 96 70.4 96 84 C78.84 84 61.68 84 44 84 C44 84.99 44 85.98 44 87 C67.43 87 90.86 87 115 87 C115 100.53 115 114.06 115 128 C77.05 128 39.1 128 0 128 C0 85.76 0 43.52 0 0 Z M6 7 C6 44.62 6 82.24 6 121 C39.66 121 73.32 121 108 121 C108 112.09 108 103.18 108 94 C84.57 94 61.14 94 37 94 C37 88.39 37 82.78 37 77 C54.16 77 71.32 77 89 77 C89 68.42 89 59.84 89 51 C72.17 51 55.34 51 38 51 C38 45.39 38 39.78 38 34 C39.80073975 34.04713135 41.60147949 34.0942627 43.45678711 34.14282227 C49.43559484 34.28850026 55.41389641 34.39160343 61.39392757 34.46630955 C65.0166461 34.51310011 68.63742885 34.57645103 72.2590332 34.67895508 C75.76054658 34.77742922 79.26021033 34.83069374 82.7630024 34.85389519 C84.7359289 34.87839202 86.70812001 34.94854764 88.67991638 35.01966858 C94.90179249 35.02313372 99.42659512 34.52840854 104.38891602 30.57006836 C109.63195829 23.58908259 109.63195829 23.58908259 108 7 C74.34 7 40.68 7 6 7 Z " fill="#020202" transform="translate(1211,496)"/>
<path d="M0 0 C0.99 0.495 0.99 0.495 2 1 C1.22688305 9.02987378 -0.11521424 16.93028627 -1.5 24.875 C-1.72805454 26.20569663 -1.95592044 27.53642559 -2.18359375 28.8671875 C-3.87128531 38.61385594 -3.87128531 38.61385594 -5 42 C-7.97 42 -10.94 42 -14 42 C-13.9371582 43.56790283 -13.9371582 43.56790283 -13.87304688 45.16748047 C-13.10540004 66.18683697 -13.24072096 84.43835711 -21.00708008 104.29394531 C-22.38197171 108.04100674 -23.38714889 111.85629693 -24.375 115.72070312 C-26.32026258 122.8148326 -32.01522557 127.63891479 -38.1953125 131.30078125 C-53.37409883 139.00219498 -73.45729067 136.1180066 -90 136 C-90.17523193 136.62036133 -90.35046387 137.24072266 -90.53100586 137.87988281 C-92.21149757 143.67392358 -94.18919139 149.20717603 -96.5625 154.75 C-97.16990773 156.18147046 -97.77541549 157.61374879 -98.37890625 159.046875 C-98.6426001 159.66401367 -98.90629395 160.28115234 -99.17797852 160.91699219 C-100.22556645 163.57158687 -101.0975415 166.29262451 -102 169 C-123.78 168.505 -123.78 168.505 -146 168 C-146 126.42 -146 84.84 -146 42 C-123.539375 41.690625 -123.539375 41.690625 -100.625 41.375 C-95.91299316 41.30458496 -91.20098633 41.23416992 -86.34619141 41.16162109 C-80.55151367 41.08911133 -80.55151367 41.08911133 -77.8309021 41.05776978 C-75.94795509 41.03408425 -74.06505735 41.00624205 -72.18222046 40.9750061 C-69.31503519 40.92827289 -66.44796584 40.89511533 -63.58056641 40.86474609 C-62.34170402 40.83989923 -62.34170402 40.83989923 -61.0778141 40.8145504 C-49.33137397 40.73026742 -38.65893601 43.59816577 -29.9765625 51.9453125 C-28.58083519 53.57252629 -27.2808806 55.28092341 -26 57 C-25.34 57.66 -24.68 58.32 -24 59 C-15.13987105 39.64286625 -7.45342261 19.93116294 0 0 Z M-140 48 C-140 85.62 -140 123.24 -140 162 C-129.44 162 -118.88 162 -108 162 C-108 151.44 -108 140.88 -108 130 C-103.92914062 130.04640625 -99.85828125 130.0928125 -95.6640625 130.140625 C-92.39321886 130.16639633 -89.12240438 130.18807058 -85.85151672 130.20700073 C-82.41235571 130.22801717 -78.97359689 130.25604271 -75.53466797 130.30175781 C-71.57785092 130.35402097 -67.62119111 130.37303456 -63.6640625 130.390625 C-62.44699615 130.41127014 -61.22992981 130.43191528 -59.97598267 130.45318604 C-51.23362731 130.45546212 -44.6797214 128.80783284 -37.1875 124.3125 C-32.45361589 119.30810822 -28.93021957 112.82980971 -28.80712891 105.87084961 C-28.78303452 104.62826637 -28.78303452 104.62826637 -28.75845337 103.36058044 C-28.71367058 99.55753615 -28.67289771 95.75466316 -28.64990234 91.95141602 C-28.63340335 89.95455217 -28.60619412 87.95774589 -28.56787109 85.96118164 C-27.90030101 69.27343012 -27.90030101 69.27343012 -35.75634766 55.12280273 C-42.10499046 49.00301749 -48.72107761 47.54952108 -57.23999023 47.65942383 C-58.15275506 47.65906222 -59.06551989 47.65870062 -60.00594425 47.65832806 C-62.94038925 47.66055495 -65.87425194 47.68334402 -68.80859375 47.70703125 C-70.6282931 47.7114459 -72.44799627 47.7145041 -74.2677002 47.71618652 C-80.99102515 47.73187113 -87.71426839 47.77375498 -94.4375 47.8125 C-116.9909375 47.9053125 -116.9909375 47.9053125 -140 48 Z " fill="#000000" transform="translate(837,455)"/>
<path d="M0 0 C23.4196875 -0.061875 23.4196875 -0.061875 47.3125 -0.125 C52.22423096 -0.14320801 57.13596191 -0.16141602 62.1965332 -0.18017578 C68.24060059 -0.18920898 68.24060059 -0.18920898 71.07902527 -0.19088745 C73.04188445 -0.19393855 75.00474013 -0.20093064 76.96757507 -0.21115112 C108.50499967 -0.36701539 108.50499967 -0.36701539 119.07421875 10.04296875 C127.51502967 20.04099426 127.45374639 31.33914421 127.3984375 43.8125 C127.40046313 45.43335094 127.40337861 47.05420098 127.40713501 48.67504883 C127.4115354 52.05721796 127.40520161 55.43914794 127.39111328 58.82128906 C127.37402265 63.13158715 127.38387619 67.4413246 127.40183067 71.75160217 C127.4127307 75.09415829 127.40919384 78.436584 127.4014473 81.77914429 C127.39946243 83.36738147 127.40184352 84.95563095 127.40888596 86.54385376 C127.44958131 98.29768706 126.9540941 108.60845449 119.078125 117.95703125 C110.02202014 126.85993132 99.16666878 128.32769655 86.96044922 128.22705078 C85.99776186 128.22729185 85.0350745 128.22753292 84.0432148 128.2277813 C80.96360773 128.22630264 77.88425058 128.21113703 74.8046875 128.1953125 C72.88875444 128.19236757 70.97281976 128.1903299 69.05688477 128.18920898 C61.99623178 128.17877383 54.93561337 128.15085132 47.875 128.125 C32.07625 128.08375 16.2775 128.0425 0 128 C0 85.76 0 43.52 0 0 Z M6 7 C6 44.62 6 82.24 6 121 C29.2340625 121.12375 29.2340625 121.12375 52.9375 121.25 C57.81523193 121.28641602 62.69296387 121.32283203 67.71850586 121.36035156 C72.11853228 121.37373526 72.11853228 121.37373526 76.51856995 121.3817749 C78.46737834 121.38788815 80.41617228 121.40189597 82.36488342 121.42230225 C85.32937611 121.45177417 88.29295015 121.45561773 91.25756836 121.45410156 C92.11517982 121.468494 92.97279127 121.48288643 93.85639095 121.497715 C101.2742696 121.44725945 107.24545786 119.39525404 112.875 114.5 C113.57625 113.675 114.2775 112.85 115 112 C115.53625 111.4225 116.0725 110.845 116.625 110.25 C121.79093911 101.7966451 121.45873642 92.74859253 121.43359375 83.1953125 C121.43816498 81.66510794 121.44347332 80.13490542 121.44947815 78.60470581 C121.45837322 75.40907412 121.45602818 72.2136928 121.44604492 69.01806641 C121.43456855 64.95096143 121.45476399 60.88472648 121.48396206 56.81773567 C121.502433 53.66041703 121.50200997 50.50330264 121.49632454 47.34594345 C121.4961726 45.84783586 121.50210962 44.34971327 121.51461601 42.85165787 C121.58937106 32.43014098 121.16367768 22.19984792 113.875 14.0625 C106.97610935 8.10766965 99.13664505 6.39423206 90.23583984 6.54589844 C89.30288904 6.5454163 88.36993824 6.54493416 87.4087162 6.54443741 C84.42571816 6.54739359 81.44375373 6.57771592 78.4609375 6.609375 C76.60457845 6.6152653 74.74821274 6.61934036 72.8918457 6.62158203 C66.052795 6.64244741 59.21388706 6.69829251 52.375 6.75 C37.07125 6.8325 21.7675 6.915 6 7 Z " fill="#000000" transform="translate(1692,496)"/>
<path d="M0 0 C0.9077417 -0.01583633 1.8154834 -0.03167267 2.75073242 -0.04798889 C3.72373291 -0.04302902 4.6967334 -0.03806915 5.69921875 -0.03295898 C7.20802612 -0.04225685 7.20802612 -0.04225685 8.74731445 -0.05174255 C10.87222323 -0.05884083 12.99718762 -0.05566661 15.12207031 -0.04296875 C18.37538815 -0.02910103 21.6258313 -0.06317716 24.87890625 -0.10131836 C26.94401112 -0.10226953 29.0091196 -0.10041084 31.07421875 -0.09545898 C32.04721924 -0.10871719 33.02021973 -0.1219754 34.02270508 -0.13563538 C38.10837058 -0.07922494 40.59049886 -0.01854985 43.99584961 2.34228516 C46.13555459 7.25155036 45.97711802 11.91939182 45.953125 17.22094727 C45.95932358 18.3562085 45.96552216 19.49146973 45.97190857 20.66113281 C45.97900389 23.05834089 45.97583785 25.45559828 45.96313477 27.8527832 C45.94926696 31.52069707 45.98335094 35.1860612 46.02148438 38.85375977 C46.02243555 41.18448956 46.02057682 43.51522254 46.015625 45.84594727 C46.02888321 46.94189209 46.04214142 48.03783691 46.05580139 49.16699219 C45.99928281 53.78730127 45.87934528 56.70707132 43.484375 60.72460938 C39.03367345 63.32354126 35.2675907 63.2334442 30.1953125 63.16235352 C28.72192162 63.16597145 28.72192162 63.16597145 27.21876526 63.16966248 C25.14686028 63.16868489 23.07492891 63.15531261 21.00317383 63.13037109 C17.83129287 63.09602387 14.66219244 63.10972673 11.49023438 63.12915039 C9.47524856 63.12225287 7.46026992 63.11258135 5.4453125 63.09985352 C4.02332802 63.10729332 4.02332802 63.10729332 2.57261658 63.11488342 C1.68812332 63.09904709 0.80363007 63.08321075 -0.10766602 63.06689453 C-1.27085106 63.05759666 -1.27085106 63.05759666 -2.45753479 63.04811096 C-5.52870137 62.31489953 -6.71779475 61.02455567 -8.61328125 58.53344727 C-9.12121582 56.02929688 -9.12121582 56.02929688 -9.13085938 53.18579102 C-9.14346802 52.1178833 -9.15607666 51.04997559 -9.16906738 49.94970703 C-9.16097046 48.80171631 -9.15287354 47.65372559 -9.14453125 46.47094727 C-9.14835815 45.28750732 -9.15218506 44.10406738 -9.15612793 42.88476562 C-9.15884934 40.38321075 -9.15147228 37.88162752 -9.13476562 35.38012695 C-9.11336128 31.54777678 -9.1345617 27.71730152 -9.16015625 23.88500977 C-9.15751302 21.45531812 -9.15238814 19.02562764 -9.14453125 16.59594727 C-9.15262817 15.44795654 -9.1607251 14.29996582 -9.16906738 13.1171875 C-9.15645874 12.04927979 -9.1438501 10.98137207 -9.13085938 9.88110352 C-9.127677 8.94274658 -9.12449463 8.00438965 -9.12121582 7.03759766 C-8.09393058 1.97301476 -4.95335646 0.03856105 0 0 Z M-1.61328125 7.53344727 C-1.61328125 23.37344727 -1.61328125 39.21344727 -1.61328125 55.53344727 C11.58671875 55.53344727 24.78671875 55.53344727 38.38671875 55.53344727 C38.38671875 39.69344727 38.38671875 23.85344727 38.38671875 7.53344727 C25.18671875 7.53344727 11.98671875 7.53344727 -1.61328125 7.53344727 Z " fill="#0F0F0F" transform="translate(1001.61328125,528.466552734375)"/>
<path d="M0 0 C0.96480286 -0.00960754 1.92960571 -0.01921509 2.92364502 -0.02911377 C3.97461365 -0.03336365 5.02558228 -0.03761353 6.10839844 -0.04199219 C7.18273132 -0.04769226 8.25706421 -0.05339233 9.36395264 -0.05926514 C11.64382945 -0.06873344 13.92372005 -0.07525635 16.20361328 -0.07910156 C19.68904657 -0.08878736 23.17388547 -0.11978587 26.65917969 -0.15136719 C28.87141576 -0.15789887 31.08365606 -0.16314869 33.29589844 -0.16699219 C34.86020599 -0.18551239 34.86020599 -0.18551239 36.45611572 -0.20440674 C45.61027281 -0.17629931 45.61027281 -0.17629931 49.46777344 3.16113281 C51.74997244 6.58443132 51.76518507 8.0025095 51.78027344 12.03613281 C51.79703125 13.06480469 51.81378906 14.09347656 51.83105469 15.15332031 C51.38658362 18.83334961 50.10878895 21.5201173 47.46777344 24.16113281 C45.810389 24.25460197 44.149027 24.27858258 42.48901367 24.2746582 C41.42798935 24.27458267 40.36696503 24.27450714 39.27378845 24.27442932 C37.54256493 24.26668739 37.54256493 24.26668739 35.77636719 24.25878906 C34.60139175 24.25737411 33.42641632 24.25595917 32.21583557 24.25450134 C28.4456228 24.24888273 24.6754684 24.23632707 20.90527344 24.22363281 C18.35644617 24.21862021 15.80761797 24.21405689 13.25878906 24.20996094 C6.99509711 24.19890726 0.73143944 24.18215103 -5.53222656 24.16113281 C-5.56109892 20.34864855 -5.57898148 16.53619211 -5.59472656 12.72363281 C-5.60310547 11.63501953 -5.61148437 10.54640625 -5.62011719 9.42480469 C-5.62333984 8.39033203 -5.6265625 7.35585938 -5.62988281 6.29003906 C-5.63511963 5.33170166 -5.64035645 4.37336426 -5.64575195 3.38598633 C-5.44101133 -0.62648958 -3.54001562 0.02833082 0 0 Z " fill="#044B84" transform="translate(502.5322265625,571.8388671875)"/>
<path d="M0 0 C11.7871875 -0.0928125 11.7871875 -0.0928125 23.8125 -0.1875 C27.53043823 -0.22846802 27.53043823 -0.22846802 31.32348633 -0.27026367 C33.28466301 -0.27902421 35.24584512 -0.28666917 37.20703125 -0.29296875 C38.2280896 -0.30831665 39.24914795 -0.32366455 40.30114746 -0.33947754 C41.27531616 -0.33984009 42.24948486 -0.34020264 43.25317383 -0.34057617 C44.09922684 -0.34723801 44.94527985 -0.35389984 45.81697083 -0.36076355 C48 0 48 0 49.77142334 1.21136475 C51.39448055 3.57430834 51.38665202 5.10117972 51.40405273 7.95874023 C51.41673691 8.96666122 51.42942108 9.97458221 51.44248962 11.01304626 C51.43955399 12.10057693 51.43661835 13.1881076 51.43359375 14.30859375 C51.4388356 15.4268605 51.44407745 16.54512726 51.44947815 17.69728088 C51.45590514 20.06355966 51.45455265 22.42987036 51.44604492 24.79614258 C51.43754104 28.42001184 51.46627936 32.04230243 51.49804688 35.66601562 C51.49965906 37.96354119 51.49908102 40.26106956 51.49609375 42.55859375 C51.50732773 43.64410019 51.51856171 44.72960663 51.53013611 45.8480072 C51.51606468 47.36461693 51.51606468 47.36461693 51.50170898 48.91186523 C51.50154282 49.7999437 51.50137665 50.68802216 51.50120544 51.60301208 C50.8238528 54.84241444 49.61925247 56.02358394 47 58 C44.73468018 58.48101807 44.73468018 58.48101807 42.23144531 58.45410156 C41.2777002 58.45361816 40.32395508 58.45313477 39.34130859 58.45263672 C37.84978271 58.42194092 37.84978271 58.42194092 36.328125 58.390625 C35.40821777 58.38659668 34.48831055 58.38256836 33.54052734 58.37841797 C30.11014815 58.35751824 26.68005367 58.30167259 23.25 58.25 C11.74125 58.12625 11.74125 58.12625 0 58 C0 38.86 0 19.72 0 0 Z M6 6 C6 21.18 6 36.36 6 52 C18.87 52 31.74 52 45 52 C45 37.15 45 22.3 45 7 C41.535 6.835 38.07 6.67 34.5 6.5 C33.44490234 6.44779297 32.38980469 6.39558594 31.30273438 6.34179688 C22.8393817 5.95737639 14.50356456 6 6 6 Z " fill="#000000" transform="translate(1730,531)"/>
<path d="M0 0 C6.90577429 -0.09180498 13.80943379 -0.17145382 20.71533203 -0.21972656 C23.06468884 -0.23984814 25.41399554 -0.26714851 27.76318359 -0.30175781 C31.13912315 -0.3502504 34.51440086 -0.37296357 37.890625 -0.390625 C38.94179504 -0.41127014 39.99296509 -0.43191528 41.07598877 -0.45318604 C48.33945678 -0.45542366 48.33945678 -0.45542366 51.65893555 1.83325195 C53.49263092 4.79594018 53.56650999 6.96885562 53.5625 10.4375 C53.58441406 11.54996094 53.60632813 12.66242187 53.62890625 13.80859375 C52.77295203 18.1521627 51.5632402 19.36101323 48 22 C44.33137505 22.69066429 40.7333556 22.58206005 37.01171875 22.48828125 C35.95338333 22.48120651 34.89504791 22.47413177 33.80464172 22.46684265 C30.43153563 22.43890219 27.06010254 22.37616121 23.6875 22.3125 C21.39781047 22.28741682 19.10809486 22.26460369 16.81835938 22.24414062 C11.21107997 22.19333164 5.60740754 22.09547232 0 22 C0 14.74 0 7.48 0 0 Z " fill="#054C86" transform="translate(497,524)"/>
<path d="M0 0 C4.99069887 4.7815079 8.10125663 8.60528823 8.3125 15.6875 C8.23631621 20.91370793 7.19531067 24.82008779 4 29 C-1.06537647 33.62791214 -5.7495027 35.3774463 -12.58984375 35.27734375 C-18.00920558 34.65372189 -22.28951203 32.1197627 -25.875 28.0625 C-29.49158132 22.85036809 -30.94370523 18.3936029 -30 12 C-27.77715004 5.15463251 -23.89027944 1.14989127 -17.625 -2.3125 C-11.08960235 -4.02415177 -5.82832617 -3.39102613 0 0 Z " fill="#000000" transform="translate(647,544)"/>
<path d="M0 0 C6.21139041 -0.02293907 12.4226342 -0.04285754 18.6340332 -0.05493164 C20.74764504 -0.05996444 22.86125338 -0.0667912 24.97485352 -0.07543945 C28.01058818 -0.08755104 31.04627686 -0.09323881 34.08203125 -0.09765625 C35.5024749 -0.10539818 35.5024749 -0.10539818 36.95161438 -0.11329651 C38.27264412 -0.11340981 38.27264412 -0.11340981 39.62036133 -0.11352539 C40.39535477 -0.115746 41.17034821 -0.11796661 41.96882629 -0.12025452 C44 0 44 0 47 1 C49.53977065 4.80965598 49.36753945 7.95835509 49.375 12.375 C49.39949219 13.13039063 49.42398438 13.88578125 49.44921875 14.6640625 C49.45501953 15.77007813 49.45501953 15.77007813 49.4609375 16.8984375 C49.46915527 17.56536621 49.47737305 18.23229492 49.48583984 18.91943359 C48.69774722 22.29437095 47.63018178 23.7089823 45 26 C41.58565906 26.69974736 38.23806389 26.58127033 34.765625 26.48828125 C33.77246277 26.48120651 32.77930054 26.47413177 31.75604248 26.46684265 C28.58659267 26.43887288 25.41891503 26.37612801 22.25 26.3125 C20.10028594 26.28742054 17.95054418 26.26460676 15.80078125 26.24414062 C10.53262369 26.19328968 5.26829303 26.09544009 0 26 C0 17.42 0 8.84 0 0 Z M32 7 C31.01 10.96 30.02 14.92 29 19 C33.29 19 37.58 19 42 19 C42 15.04 42 11.08 42 7 C38.7 7 35.4 7 32 7 Z " fill="#0B0B0B" transform="translate(728,531)"/>
<path d="M0 0 C6.33543763 -0.04943619 12.67076298 -0.08573691 19.00634766 -0.10986328 C21.16164099 -0.1199211 23.31692068 -0.13356899 25.47216797 -0.15087891 C28.57002124 -0.17513662 31.66769409 -0.18648532 34.765625 -0.1953125 C35.72929993 -0.20563507 36.69297485 -0.21595764 37.68585205 -0.22659302 C38.58648376 -0.22674408 39.48711548 -0.22689514 40.41503906 -0.22705078 C41.20557678 -0.231492 41.9961145 -0.23593323 42.81060791 -0.24050903 C45.29528307 0.03243743 46.88695182 0.67833727 49 2 C50.3502109 4.70042181 50.24311007 6.92451627 50.3125 9.9375 C50.36857422 11.52884766 50.36857422 11.52884766 50.42578125 13.15234375 C50 16 50 16 48.26568604 17.6566925 C45.68245551 19.18826964 44.30041551 19.36511331 41.32324219 19.34057617 C39.94226349 19.34023628 39.94226349 19.34023628 38.53338623 19.33988953 C37.54783752 19.32440567 36.56228882 19.30892181 35.546875 19.29296875 C34.53151672 19.28872391 33.51615845 19.28447906 32.47003174 19.28010559 C29.22975046 19.26332424 25.99009303 19.22567241 22.75 19.1875 C20.55209232 19.17245249 18.35417488 19.1587642 16.15625 19.14648438 C10.77059327 19.11342238 5.38540238 19.06164319 0 19 C0 12.73 0 6.46 0 0 Z M7 6 C7 8.31 7 10.62 7 13 C12.10863896 13.0246501 17.21724359 13.04283607 22.32592773 13.05493164 C24.06519168 13.05997204 25.80445136 13.0668043 27.54370117 13.07543945 C30.03825937 13.08751792 32.53276173 13.09323108 35.02734375 13.09765625 C36.2007859 13.10539818 36.2007859 13.10539818 37.39793396 13.11329651 C39.26567114 13.11349226 41.13329204 13.06199694 43 13 C44.29633621 11.93354885 44.29633621 11.93354885 44.0625 9.4375 C44.041875 8.633125 44.02125 7.82875 44 7 C31.65822514 6.36405271 19.36008863 5.82672773 7 6 Z " fill="#000000" transform="translate(860,531)"/>
<path d="M0 0 C0.66 0.33 1.32 0.66 2 1 C1.22688305 9.02987378 -0.11521424 16.93028627 -1.5 24.875 C-1.72805454 26.20569663 -1.95592044 27.53642559 -2.18359375 28.8671875 C-3.87128531 38.61385594 -3.87128531 38.61385594 -5 42 C-7.97 42 -10.94 42 -14 42 C-13.9371582 43.56790283 -13.9371582 43.56790283 -13.87304688 45.16748047 C-13.06536519 67.2681969 -13.39136228 86.27687974 -22 107 C-22.33 107 -22.66 107 -23 107 C-23.02505615 105.9262915 -23.0501123 104.85258301 -23.07592773 103.74633789 C-23.17078283 99.7262168 -23.27080608 95.70623744 -23.37231445 91.6862793 C-23.41537032 89.95324034 -23.45706314 88.22016691 -23.49731445 86.48706055 C-23.55573583 83.98215388 -23.61921474 81.47741607 -23.68359375 78.97265625 C-23.70030624 78.20977798 -23.71701874 77.44689972 -23.73423767 76.66090393 C-23.85810753 72.06458462 -24.24598774 67.60191656 -24.9304657 63.05308533 C-25.0639921 59.11055481 -23.14267464 55.92638808 -21.375 52.5 C-16.8261537 43.08386965 -12.92142974 33.4863034 -9.125 23.75 C-8.56041871 22.30792917 -7.99580347 20.86587162 -7.43115234 19.42382812 C-4.90784341 12.96650811 -2.40847269 6.50119201 0 0 Z " fill="#093153" transform="translate(837,455)"/>
<path d="M0 0 C8.58 0 17.16 0 26 0 C24 12 24 12 23 14 C15.41 14 7.82 14 0 14 C0 9.38 0 4.76 0 0 Z " fill="#09375D" transform="translate(734,537)"/>
<path d="M0 0 C4.29 0 8.58 0 13 0 C11.66189423 7.10505075 9.40636868 13.33085042 6.5 19.9375 C6.09652344 20.88173828 5.69304688 21.82597656 5.27734375 22.79882812 C2.27122511 29.72877489 2.27122511 29.72877489 0 32 C0 21.44 0 10.88 0 0 Z " fill="#0B375B" transform="translate(734,590)"/>
</svg>
