<svg id="svg" version="1.1" xmlns="http://www.w3.org/2000/svg" xmlns:xlink="http://www.w3.org/1999/xlink" width="284" height="170" viewBox="58, 114, 284, 170"><g id="svgg"><path id="path0" d="M177.327 173.789 L 177.327 197.662 196.708 197.562 L 216.090 197.462 218.354 196.347 C 222.895 194.111,224.138 191.393,223.971 184.067 C 223.823 177.614,221.776 174.220,217.518 173.368 C 216.009 173.066,216.119 172.724,218.079 171.618 C 225.646 167.347,224.072 153.192,215.743 150.619 C 213.557 149.944,212.739 149.915,195.396 149.915 L 177.327 149.915 177.327 173.789 M209.167 161.036 C 210.119 162.211,210.085 166.062,209.112 167.298 L 208.411 168.190 199.299 168.190 L 190.186 168.190 190.186 164.113 L 190.186 160.037 199.354 160.137 L 208.521 160.237 209.167 161.036 M238.512 167.188 C 232.831 170.189,234.909 178.680,241.324 178.680 C 246.698 178.680,249.428 172.337,245.748 168.402 C 243.927 166.453,240.873 165.941,238.512 167.188 M210.295 179.331 C 211.090 180.079,211.168 180.390,211.168 182.822 C 211.168 187.480,211.183 187.474,199.069 187.477 L 190.186 187.479 190.186 182.891 L 190.186 178.303 199.804 178.407 L 209.422 178.511 210.295 179.331 M133.672 214.176 C 125.672 214.759,124.870 216.263,124.881 230.665 C 124.892 246.691,125.019 246.815,141.142 246.638 C 152.110 246.518,152.478 246.455,154.588 244.345 C 156.881 242.052,157.022 241.372,157.022 232.593 L 157.022 224.704 161.929 224.704 L 166.836 224.704 166.836 235.533 L 166.836 246.362 172.250 246.362 L 177.665 246.362 177.665 235.533 L 177.665 224.704 181.233 224.704 L 184.801 224.704 186.478 223.135 L 188.156 221.566 188.156 218.059 L 188.156 214.552 172.420 214.552 L 156.684 214.552 156.664 216.836 C 156.647 218.743,156.577 219.014,156.241 218.476 C 153.947 214.809,152.537 214.313,143.824 214.106 C 140.008 214.016,135.440 214.047,133.672 214.176 M58.206 230.457 L 58.206 246.362 63.790 246.362 L 69.374 246.362 69.374 242.301 L 69.374 238.240 75.823 238.240 C 87.727 238.240,89.319 236.869,89.333 226.604 C 89.348 214.801,88.967 214.552,70.900 214.552 L 58.206 214.552 58.206 230.457 M91.371 230.457 L 91.371 246.362 96.954 246.362 L 102.538 246.362 102.538 241.455 L 102.538 236.548 104.355 236.548 L 106.171 236.548 109.983 241.455 L 113.795 246.362 118.657 246.362 L 123.519 246.362 123.519 243.205 L 123.519 240.047 121.373 237.572 L 119.226 235.097 120.507 233.940 C 122.569 232.077,122.911 230.708,122.783 224.815 C 122.650 218.646,122.022 217.168,118.822 215.497 L 117.012 214.552 104.191 214.552 L 91.371 214.552 91.371 230.457 M188.914 230.372 L 189.002 246.193 203.215 246.193 L 217.428 246.193 217.428 241.286 L 217.428 236.379 208.545 236.289 C 200.959 236.212,199.662 236.125,199.662 235.697 C 199.662 235.270,200.653 235.195,206.261 235.195 L 212.860 235.195 212.860 230.464 L 212.860 225.734 206.345 225.642 C 200.821 225.564,199.831 225.473,199.831 225.042 C 199.831 224.610,200.910 224.521,207.151 224.444 L 214.471 224.353 216.034 222.681 L 217.597 221.010 217.597 217.781 L 217.597 214.552 203.212 214.552 L 188.826 214.552 188.914 230.372 M223.265 215.034 C 218.602 216.698,218.105 218.153,218.105 230.118 C 218.105 246.207,218.089 246.193,235.871 246.193 L 247.208 246.193 247.208 241.117 L 247.208 236.041 238.071 236.041 L 228.934 236.041 228.841 230.372 L 228.748 224.704 236.302 224.704 L 243.856 224.704 245.194 223.330 L 246.531 221.956 246.701 223.245 L 246.870 224.535 252.073 224.628 L 257.277 224.722 257.131 235.542 L 256.985 246.362 262.685 246.362 L 268.386 246.362 268.288 235.533 L 268.190 224.703 271.756 224.704 L 275.322 224.704 276.916 223.085 L 278.511 221.466 278.511 218.009 L 278.511 214.552 251.523 214.566 C 229.863 214.578,224.284 214.671,223.265 215.034 M279.188 230.457 L 279.188 246.362 293.570 246.362 L 307.953 246.362 307.953 241.286 L 307.953 236.210 299.154 236.210 C 293.514 236.210,290.355 236.088,290.355 235.871 C 290.355 235.658,292.724 235.533,296.785 235.533 L 303.215 235.533 303.215 230.457 L 303.215 225.381 296.785 225.381 C 292.724 225.381,290.355 225.256,290.355 225.042 C 290.355 224.828,292.925 224.704,297.389 224.704 L 304.422 224.704 306.188 222.917 L 307.953 221.129 307.953 217.840 L 307.953 214.552 293.570 214.552 L 279.188 214.552 279.188 230.457 M309.306 230.457 L 309.306 246.362 322.081 246.347 C 341.664 246.324,341.286 246.641,341.286 230.288 C 341.286 214.159,341.759 214.552,322.346 214.552 L 309.306 214.552 309.306 230.457 M150.965 215.957 C 155.163 217.381,155.499 218.405,155.499 229.780 C 155.499 245.333,155.809 245.008,140.980 245.008 C 126.128 245.008,126.565 245.455,126.565 230.285 C 126.565 215.319,126.257 215.637,140.812 215.594 C 146.787 215.576,150.201 215.698,150.965 215.957 M84.598 216.925 C 87.113 218.333,87.768 219.932,87.929 225.060 C 88.253 235.370,86.986 236.529,75.381 236.541 L 68.020 236.548 68.020 240.609 L 68.020 244.670 63.959 244.670 L 59.898 244.670 59.898 230.513 C 59.898 222.727,60.009 216.246,60.144 216.111 C 60.279 215.976,65.495 215.912,71.735 215.970 L 83.080 216.074 84.598 216.925 M117.597 216.636 C 120.531 218.261,121.151 219.790,121.151 225.414 C 121.151 231.095,120.142 233.317,117.233 234.047 C 116.139 234.321,116.048 234.149,119.120 237.625 L 121.827 240.689 121.827 242.680 L 121.827 244.670 118.190 244.646 L 114.552 244.622 110.823 239.824 L 107.094 235.025 103.970 234.928 L 100.846 234.831 100.846 239.750 L 100.846 244.670 96.954 244.670 L 93.063 244.670 93.063 230.268 L 93.063 215.865 104.822 215.970 C 115.018 216.061,116.717 216.149,117.597 216.636 M186.735 218.242 C 186.834 220.346,186.800 220.447,185.566 221.711 L 184.296 223.012 180.304 223.012 L 176.311 223.012 176.311 233.841 L 176.311 244.670 172.424 244.670 L 168.537 244.670 168.448 233.926 L 168.359 223.181 163.198 223.088 L 158.037 222.994 158.037 219.446 L 158.037 215.898 172.335 215.986 L 186.633 216.074 186.735 218.242 M215.905 218.175 C 215.905 220.337,215.845 220.507,214.652 221.729 L 213.399 223.012 205.853 223.012 L 198.308 223.012 198.308 225.042 L 198.308 227.073 204.919 227.073 L 211.530 227.073 211.434 230.372 L 211.337 233.672 204.822 233.764 L 198.308 233.856 198.308 235.879 L 198.308 237.902 207.107 237.902 L 215.905 237.902 215.905 241.286 L 215.905 244.670 203.215 244.670 L 190.525 244.670 190.525 230.288 L 190.525 215.905 203.215 215.905 L 215.905 215.905 215.905 218.175 M245.685 218.343 C 245.685 220.626,245.617 220.851,244.604 221.896 L 243.522 223.012 236.219 223.012 C 226.568 223.012,227.411 222.304,227.411 230.408 C 227.411 234.891,227.530 236.870,227.817 237.157 C 228.112 237.452,230.615 237.563,236.954 237.563 L 245.685 237.563 245.685 241.117 L 245.685 244.670 235.110 244.663 C 219.147 244.651,219.628 245.098,219.628 230.288 C 219.628 219.169,220.238 217.206,223.949 216.388 C 224.457 216.276,225.025 216.134,225.212 216.072 C 225.398 216.009,230.080 215.947,235.618 215.932 L 245.685 215.905 245.685 218.343 M276.819 218.343 C 276.819 220.626,276.750 220.851,275.737 221.896 L 274.656 223.012 270.661 223.012 L 266.667 223.012 266.667 233.841 L 266.667 244.670 262.606 244.670 L 258.545 244.670 258.545 233.841 L 258.545 223.012 253.469 223.012 L 248.393 223.012 248.393 219.459 L 248.393 215.905 262.606 215.905 L 276.819 215.905 276.819 218.343 M306.261 218.175 C 306.261 220.337,306.201 220.507,305.007 221.729 L 303.754 223.012 296.209 223.012 L 288.663 223.012 288.663 225.042 L 288.663 227.073 295.093 227.073 L 301.523 227.073 301.523 230.457 L 301.523 233.841 295.093 233.841 L 288.663 233.841 288.663 235.871 L 288.663 237.902 297.462 237.902 L 306.261 237.902 306.261 241.286 L 306.261 244.670 293.401 244.670 L 280.541 244.670 280.541 230.513 C 280.541 222.727,280.643 216.255,280.767 216.131 C 280.891 216.007,286.678 215.905,293.627 215.905 L 306.261 215.905 306.261 218.175 M334.755 216.289 C 339.158 217.232,339.767 218.987,339.735 230.626 C 339.696 245.074,340.182 244.670,322.854 244.670 L 310.998 244.670 310.998 230.513 C 310.998 222.727,311.100 216.255,311.224 216.131 C 311.623 215.732,332.820 215.875,334.755 216.289 M134.941 223.039 C 134.196 223.473,134.024 236.765,134.755 237.496 C 135.039 237.780,136.898 237.902,140.948 237.902 C 144.997 237.902,146.856 237.780,147.140 237.496 C 147.921 236.715,147.694 223.453,146.892 223.024 C 146.040 222.568,135.727 222.581,134.941 223.039 M68.020 226.227 L 68.020 229.442 73.536 229.442 C 80.032 229.442,79.865 229.528,79.865 226.171 C 79.865 222.993,79.903 223.012,73.288 223.012 L 68.020 223.012 68.020 226.227 M100.846 225.359 L 100.846 227.750 106.701 227.750 C 113.238 227.750,113.370 227.706,113.362 225.567 C 113.353 223.175,113.402 223.193,106.781 223.075 L 100.846 222.968 100.846 225.359 M319.007 223.237 C 318.883 223.362,318.782 226.636,318.782 230.513 L 318.782 237.563 324.788 237.558 C 328.092 237.555,331.024 237.409,331.303 237.232 C 332.179 236.678,332.043 224.142,331.154 223.492 C 330.464 222.988,319.487 222.757,319.007 223.237 M145.798 224.549 C 145.860 224.603,145.997 227.325,146.103 230.598 L 146.295 236.548 141.218 236.548 L 136.141 236.548 135.924 233.756 C 135.660 230.371,135.634 224.546,135.881 224.299 C 136.059 224.121,145.582 224.362,145.798 224.549 M78.173 226.227 L 78.173 227.750 73.773 227.750 L 69.374 227.750 69.374 226.227 L 69.374 224.704 73.773 224.704 L 78.173 224.704 78.173 226.227 M111.675 225.381 C 111.675 226.024,111.450 226.058,107.107 226.058 C 102.764 226.058,102.538 226.024,102.538 225.381 C 102.538 224.737,102.764 224.704,107.107 224.704 C 111.450 224.704,111.675 224.737,111.675 225.381 M330.288 230.288 L 330.288 235.871 325.381 235.871 L 320.474 235.871 320.474 230.288 L 320.474 224.704 325.381 224.704 L 330.288 224.704 330.288 230.288 " stroke="none" fill="#f4f5f6" fill-rule="evenodd"></path><path id="path1" d="M186.125 114.740 C 164.535 116.588,142.853 121.682,125.689 128.937 C 120.725 131.036,109.814 136.663,108.972 137.559 L 108.241 138.337 109.306 142.350 C 112.803 155.526,119.628 172.769,125.697 183.756 C 131.078 193.498,131.461 193.771,129.147 186.217 C 124.863 172.226,121.507 154.517,121.492 145.821 L 121.489 143.926 126.311 141.630 C 140.373 134.934,154.688 130.714,173.425 127.739 C 176.821 127.200,179.311 126.644,179.517 126.378 C 180.181 125.520,184.941 122.826,187.641 121.782 C 198.239 117.680,210.101 119.065,219.289 125.475 C 221.389 126.940,221.681 127.039,225.719 127.635 C 244.071 130.348,269.786 138.292,277.242 143.552 C 279.627 145.234,275.683 170.011,270.404 186.509 C 268.101 193.705,268.557 193.340,273.632 183.926 C 279.478 173.083,282.363 166.654,285.861 156.684 C 288.203 150.006,291.430 138.790,291.209 138.095 C 290.952 137.285,275.684 129.616,269.374 127.127 C 254.951 121.440,237.367 117.320,218.443 115.196 C 212.860 114.569,191.620 114.269,186.125 114.740 M188.663 132.020 C 178.702 132.777,172.477 133.966,152.447 138.934 C 133.117 143.728,134.785 143.156,134.453 145.100 C 132.345 157.437,137.268 194.739,143.132 210.866 L 144.192 213.779 147.663 213.956 C 151.798 214.167,154.086 215.107,155.486 217.168 L 156.345 218.431 156.345 216.491 L 156.345 214.552 164.467 214.552 C 168.934 214.552,172.589 214.484,172.589 214.402 C 172.589 214.319,172.281 213.730,171.904 213.092 C 165.921 202.950,167.457 187.719,175.453 177.903 L 176.988 176.019 176.988 162.959 L 176.988 149.899 196.193 149.992 L 215.398 150.085 216.964 150.856 C 223.725 154.187,225.394 166.840,219.600 170.844 C 217.983 171.962,217.982 171.956,219.640 173.105 C 231.776 181.515,235.161 199.292,227.484 214.302 C 227.412 214.443,233.641 214.519,241.328 214.471 L 255.303 214.382 256.562 210.829 C 259.814 201.647,263.538 183.071,265.042 168.528 C 265.586 163.264,265.610 145.392,265.074 144.144 C 264.469 142.734,231.403 134.614,219.727 133.008 C 210.030 131.674,198.168 131.297,188.663 132.020 M190.186 164.165 C 190.186 167.608,190.236 167.904,190.778 167.689 C 194.008 166.410,202.279 166.023,206.430 166.957 C 209.331 167.610,209.645 167.336,209.645 164.152 C 209.645 160.257,210.058 160.406,199.271 160.406 L 190.186 160.406 190.186 164.165 M111.337 163.168 C 111.337 164.403,113.546 176.678,114.575 181.163 C 117.094 192.139,120.828 203.373,125.232 213.226 C 126.958 217.088,126.746 216.848,127.671 215.979 C 128.897 214.827,130.930 214.152,133.750 213.958 C 135.196 213.859,136.379 213.716,136.379 213.641 C 136.379 213.566,135.864 212.699,135.235 211.715 C 128.209 200.732,119.446 182.823,113.688 167.682 C 111.759 162.610,111.337 161.799,111.337 163.168 M287.763 163.113 C 287.568 163.579,286.754 165.711,285.955 167.851 C 281.035 181.018,273.379 196.846,265.944 209.223 C 264.294 211.969,262.944 214.291,262.944 214.384 C 262.944 214.476,265.378 214.552,268.352 214.552 L 273.760 214.552 274.460 213.179 C 279.721 202.866,289.046 169.017,288.240 163.158 L 288.117 162.267 287.763 163.113 M244.317 167.167 C 246.547 168.304,247.966 171.192,247.499 173.643 C 246.069 181.152,235.190 180.400,235.196 172.793 C 235.200 167.877,239.957 164.943,244.317 167.167 M245.314 223.278 L 244.098 224.704 236.600 224.704 L 229.103 224.704 229.103 230.288 L 229.103 235.871 235.652 235.871 L 242.201 235.871 243.841 233.785 C 244.743 232.637,246.523 230.162,247.797 228.285 L 250.114 224.873 248.426 224.771 L 246.738 224.670 246.635 223.261 L 246.531 221.853 245.314 223.278 M136.041 228.769 C 136.041 233.166,136.042 233.174,137.140 234.854 L 138.240 236.536 142.047 236.542 L 145.854 236.548 145.854 231.950 L 145.854 227.353 144.782 225.859 L 143.709 224.365 139.875 224.365 L 136.041 224.365 136.041 228.769 M157.022 230.104 L 157.022 235.504 161.916 240.510 L 166.809 245.516 166.822 235.110 L 166.836 224.704 161.929 224.704 L 157.022 224.704 157.022 230.104 M178.003 235.533 L 178.003 246.362 173.076 246.362 C 169.965 246.362,168.225 246.484,168.353 246.692 C 170.255 249.769,188.546 260.419,196.882 263.304 L 200.025 264.391 203.820 262.950 C 211.889 259.886,221.592 254.379,228.693 248.834 L 231.641 246.531 227.750 246.362 C 219.284 245.994,217.974 244.101,217.951 232.205 C 217.942 228.049,217.812 224.698,217.660 224.760 C 217.508 224.822,216.366 225.406,215.123 226.058 L 212.862 227.242 212.861 231.387 L 212.860 235.533 206.430 235.533 C 202.369 235.533,200.000 235.658,200.000 235.871 C 200.000 236.088,203.158 236.210,208.799 236.210 L 217.597 236.210 217.597 241.286 L 217.597 246.362 203.215 246.362 L 188.832 246.362 188.807 237.140 L 188.782 227.919 185.503 226.311 C 182.657 224.916,181.945 224.704,180.114 224.704 L 178.003 224.704 178.003 235.533 M254.444 226.493 C 253.771 227.463,251.905 229.903,250.299 231.915 L 247.377 235.572 247.377 240.967 L 247.377 246.362 242.590 246.362 L 237.802 246.362 234.214 249.687 C 224.153 259.012,215.132 265.437,204.570 270.799 L 199.834 273.204 194.933 270.704 C 182.795 264.513,172.640 256.932,161.733 245.917 C 157.000 241.137,156.758 240.945,156.545 241.791 C 155.860 244.522,152.216 246.701,148.332 246.701 C 145.592 246.701,145.496 246.457,150.345 251.773 C 162.668 265.282,178.046 276.201,195.679 283.960 C 199.410 285.602,200.251 285.602,203.976 283.963 C 224.626 274.876,241.520 262.007,255.265 244.893 L 256.853 242.916 256.853 233.810 C 256.853 223.441,256.759 223.158,254.444 226.493 " stroke="none" fill="#043a64" fill-rule="evenodd"></path><path id="path2" d="M130.102 216.381 C 126.877 217.786,126.494 219.411,126.626 231.134 C 126.787 245.422,126.177 244.839,140.972 244.839 L 151.149 244.839 152.522 243.931 C 155.182 242.171,155.331 241.452,155.323 230.435 C 155.311 215.510,155.699 215.898,140.841 215.918 C 133.538 215.928,130.878 216.043,130.102 216.381 M60.237 230.457 L 60.237 244.670 63.959 244.670 L 67.682 244.670 67.682 240.637 L 67.682 236.604 75.381 236.491 C 86.901 236.323,87.654 235.702,87.641 226.374 C 87.626 216.396,87.383 216.244,71.415 216.244 L 60.237 216.244 60.237 230.457 M93.063 230.457 L 93.063 244.670 96.954 244.670 L 100.846 244.670 100.846 239.763 L 100.846 234.856 104.022 234.856 L 107.198 234.856 111.021 239.763 L 114.845 244.670 118.336 244.670 L 121.827 244.670 121.827 242.781 C 121.827 240.895,121.823 240.887,118.971 237.628 L 116.114 234.364 117.770 233.577 C 120.589 232.237,120.981 231.232,120.981 225.356 C 120.981 216.396,120.740 216.261,104.653 216.251 L 93.063 216.244 93.063 230.457 M158.037 219.628 L 158.037 223.012 163.283 223.012 L 168.528 223.012 168.528 233.841 L 168.528 244.670 172.250 244.670 L 175.973 244.670 175.973 233.841 L 175.973 223.012 180.137 223.012 L 184.300 223.012 185.382 221.896 C 186.380 220.866,186.464 220.605,186.464 218.512 L 186.464 216.244 172.250 216.244 L 158.037 216.244 158.037 219.628 M190.525 230.457 L 190.525 244.670 203.215 244.670 L 215.905 244.670 215.905 241.286 L 215.905 237.902 206.937 237.902 L 197.970 237.902 197.970 235.702 L 197.970 233.503 204.569 233.503 L 211.168 233.503 211.168 230.288 L 211.168 227.073 204.552 227.073 L 197.937 227.073 198.038 224.958 L 198.139 222.843 205.913 222.751 L 213.687 222.660 214.796 221.585 C 215.818 220.594,215.905 220.343,215.905 218.377 L 215.905 216.244 203.215 216.244 L 190.525 216.244 190.525 230.457 M223.148 216.888 C 220.049 218.296,219.632 219.906,219.632 230.457 C 219.632 244.711,219.353 244.453,234.941 244.607 L 245.685 244.713 245.685 241.307 L 245.685 237.902 237.203 237.902 C 232.003 237.902,228.467 237.766,228.066 237.552 C 227.264 237.123,227.037 224.198,227.817 223.418 C 228.109 223.127,230.336 223.012,235.701 223.012 L 243.179 223.012 244.432 221.729 C 245.605 220.527,245.685 220.311,245.685 218.344 L 245.685 216.244 235.110 216.251 C 225.529 216.258,224.404 216.318,223.148 216.888 M248.393 219.628 L 248.393 223.012 253.638 223.012 L 258.883 223.012 258.883 233.841 L 258.883 244.670 262.606 244.670 L 266.328 244.670 266.328 233.841 L 266.328 223.012 270.320 223.012 L 274.313 223.012 275.566 221.729 C 276.739 220.527,276.819 220.311,276.819 218.344 L 276.819 216.244 262.606 216.244 L 248.393 216.244 248.393 219.628 M280.880 230.457 L 280.880 244.670 293.570 244.670 L 306.261 244.670 306.261 241.286 L 306.261 237.902 297.293 237.902 L 288.325 237.902 288.325 235.702 L 288.325 233.503 294.924 233.503 L 301.523 233.503 301.523 230.288 L 301.523 227.073 294.908 227.073 L 288.293 227.073 288.393 224.958 L 288.494 222.843 296.101 222.751 L 303.708 222.660 304.984 221.414 C 306.170 220.255,306.261 220.028,306.261 218.205 L 306.261 216.244 293.570 216.244 L 280.880 216.244 280.880 230.457 M311.337 230.457 L 311.337 244.670 322.589 244.655 C 335.481 244.638,336.356 244.500,338.213 242.186 L 339.255 240.886 339.359 231.357 C 339.529 215.585,340.259 216.248,322.758 216.246 L 311.337 216.244 311.337 230.457 M147.208 223.004 C 147.625 223.267,147.734 224.511,147.821 229.965 C 147.962 238.927,148.532 238.240,140.959 238.240 C 133.436 238.240,134.010 238.883,134.010 230.457 C 134.010 222.037,133.449 222.672,140.882 222.679 C 144.082 222.681,146.929 222.828,147.208 223.004 M79.676 223.764 C 80.481 224.913,80.387 228.242,79.526 229.103 C 78.904 229.725,78.398 229.780,73.266 229.780 L 67.682 229.780 67.682 226.396 L 67.682 223.012 73.416 223.012 C 78.957 223.012,79.167 223.037,79.676 223.764 M112.961 223.418 C 113.663 224.120,113.479 227.328,112.713 227.738 C 112.337 227.939,109.669 228.088,106.452 228.088 L 100.846 228.088 100.846 225.550 L 100.846 223.012 106.701 223.012 C 110.803 223.012,112.677 223.133,112.961 223.418 M331.448 223.544 C 331.894 223.990,331.980 225.107,331.980 230.462 C 331.980 238.526,332.596 237.902,324.629 237.902 L 318.782 237.902 318.782 230.457 L 318.782 223.012 324.849 223.012 C 329.913 223.012,331.004 223.100,331.448 223.544 " stroke="none" fill="#040404" fill-rule="evenodd"></path><path id="path3" d="M193.232 120.118 C 189.349 120.943,185.504 122.478,182.146 124.545 C 179.119 126.408,178.760 126.867,180.457 126.705 C 181.062 126.647,183.232 126.437,185.279 126.238 C 194.728 125.319,208.210 125.471,217.710 126.604 C 221.414 127.046,221.512 126.950,219.062 125.289 C 211.599 120.229,201.871 118.281,193.232 120.118 M194.501 160.321 C 196.967 160.378,201.003 160.378,203.469 160.321 C 205.935 160.263,203.917 160.215,198.985 160.215 C 194.052 160.215,192.035 160.263,194.501 160.321 M177.069 171.004 L 176.988 176.019 175.453 177.903 C 167.427 187.756,165.955 202.002,171.833 212.944 L 172.696 214.552 180.426 214.552 L 188.156 214.552 188.156 218.033 L 188.156 221.514 186.548 223.087 C 185.364 224.245,184.629 224.688,183.756 224.766 C 182.594 224.871,182.624 224.900,185.331 226.311 C 186.848 227.102,188.257 227.750,188.461 227.750 C 188.718 227.750,188.832 225.714,188.832 221.151 L 188.832 214.552 203.215 214.552 L 217.597 214.552 217.597 217.864 L 217.597 221.176 215.985 222.764 L 214.373 224.352 207.102 224.443 C 200.905 224.521,199.831 224.610,199.831 225.042 C 199.831 225.473,200.821 225.564,206.345 225.642 C 212.579 225.730,212.860 225.763,212.860 226.403 C 212.860 227.287,212.910 227.276,215.611 225.817 C 217.806 224.632,217.936 224.494,217.944 223.364 C 217.978 218.383,220.819 215.055,225.391 214.641 L 227.432 214.456 228.586 212.050 C 234.604 199.503,231.836 184.247,221.877 175.080 C 218.202 171.697,218.103 171.636,217.111 172.156 C 216.067 172.703,216.201 173.105,217.518 173.368 C 221.781 174.221,223.825 177.614,223.966 184.076 C 224.126 191.414,222.892 194.112,218.354 196.347 L 216.090 197.462 196.712 197.562 L 177.333 197.662 177.242 181.826 C 177.192 173.116,177.114 168.246,177.069 171.004 M196.285 166.528 C 193.796 166.828,190.186 167.717,190.186 168.030 C 190.186 168.577,208.080 168.159,208.693 167.597 C 209.048 167.272,209.179 167.103,208.984 167.223 C 208.789 167.343,207.708 167.249,206.581 167.015 C 203.576 166.389,199.170 166.181,196.285 166.528 M190.186 182.891 L 190.186 187.479 199.069 187.477 C 211.183 187.474,211.168 187.480,211.168 182.822 C 211.168 180.390,211.090 180.079,210.295 179.331 L 209.422 178.511 199.804 178.407 L 190.186 178.303 190.186 182.891 M240.694 178.913 C 241.019 178.999,241.552 178.999,241.878 178.913 C 242.204 178.828,241.937 178.759,241.286 178.759 C 240.635 178.759,240.368 178.828,240.694 178.913 M147.804 214.114 C 148.225 214.195,148.834 214.192,149.158 214.107 C 149.481 214.023,149.137 213.956,148.393 213.960 C 147.648 213.964,147.383 214.033,147.804 214.114 M177.785 227.580 C 177.784 229.255,177.841 229.983,177.912 229.198 C 177.983 228.413,177.984 227.042,177.914 226.152 C 177.844 225.263,177.786 225.905,177.785 227.580 M257.001 233.503 C 257.001 238.435,257.048 240.453,257.106 237.986 C 257.164 235.520,257.164 231.485,257.106 229.019 C 257.048 226.552,257.001 228.570,257.001 233.503 M145.987 232.149 C 145.987 234.662,146.040 235.690,146.105 234.433 C 146.171 233.177,146.171 231.121,146.105 229.865 C 146.040 228.608,145.987 229.636,145.987 232.149 M199.887 235.420 C 199.763 235.544,199.664 235.811,199.667 236.012 C 199.670 236.235,199.775 236.216,199.936 235.964 C 200.125 235.666,202.009 235.520,206.614 235.448 L 213.029 235.348 206.571 235.271 C 203.019 235.229,200.011 235.296,199.887 235.420 M231.912 236.124 C 233.549 236.186,236.138 236.185,237.665 236.123 C 239.191 236.060,237.851 236.009,234.687 236.010 C 231.523 236.010,230.274 236.061,231.912 236.124 " stroke="none" fill="#055493" fill-rule="evenodd"></path><path id="path4" d="M177.134 158.037 C 177.134 162.597,177.182 164.463,177.241 162.183 C 177.299 159.903,177.299 156.172,177.241 153.892 C 177.182 151.612,177.134 153.477,177.134 158.037 M222.784 161.929 C 222.786 163.232,222.847 163.723,222.920 163.021 C 222.994 162.319,222.992 161.253,222.918 160.652 C 222.843 160.052,222.783 160.626,222.784 161.929 M133.241 214.119 C 133.842 214.194,134.908 214.195,135.610 214.122 C 136.312 214.049,135.821 213.987,134.518 213.986 C 133.215 213.984,132.640 214.044,133.241 214.119 M145.093 214.114 C 145.512 214.194,146.197 214.194,146.616 214.114 C 147.035 214.033,146.692 213.967,145.854 213.967 C 145.017 213.967,144.674 214.033,145.093 214.114 M156.291 216.615 C 156.228 217.750,156.290 218.749,156.430 218.835 C 156.569 218.921,156.684 217.992,156.684 216.771 C 156.684 213.978,156.442 213.883,156.291 216.615 M136.315 215.820 C 138.978 215.877,143.242 215.877,145.790 215.820 C 148.338 215.762,146.159 215.715,140.948 215.716 C 135.736 215.716,133.651 215.763,136.315 215.820 M60.053 216.328 C 59.964 216.561,59.932 223.071,59.983 230.795 L 60.075 244.839 60.156 230.546 L 60.237 216.253 71.151 216.159 L 82.064 216.065 71.140 215.985 C 62.650 215.923,60.179 216.000,60.053 216.328 M98.562 216.158 C 101.679 216.214,106.781 216.214,109.898 216.158 C 113.016 216.103,110.465 216.057,104.230 216.057 C 97.995 216.057,95.444 216.103,98.562 216.158 M172.235 216.157 L 186.433 216.251 186.556 218.362 L 186.679 220.474 186.656 218.274 L 186.633 216.074 172.335 216.069 L 158.037 216.063 172.235 216.157 M196.892 216.159 C 200.487 216.214,206.274 216.213,209.752 216.159 C 213.229 216.104,210.288 216.059,203.215 216.059 C 196.142 216.059,193.297 216.104,196.892 216.159 M230.372 216.158 C 233.211 216.215,237.855 216.215,240.694 216.158 C 243.532 216.102,241.210 216.055,235.533 216.055 C 229.856 216.055,227.534 216.102,230.372 216.158 M255.415 216.159 C 259.370 216.213,265.842 216.213,269.797 216.159 C 273.752 216.105,270.516 216.060,262.606 216.060 C 254.695 216.060,251.459 216.105,255.415 216.159 M280.696 216.328 C 280.607 216.561,280.575 223.071,280.626 230.795 L 280.718 244.839 280.799 230.546 L 280.880 216.252 293.655 216.159 L 306.430 216.066 293.644 215.986 C 283.665 215.923,280.823 215.998,280.696 216.328 M311.153 216.328 C 311.064 216.561,311.032 223.071,311.083 230.795 L 311.175 244.839 311.256 230.546 L 311.337 216.253 322.589 216.159 L 333.841 216.065 322.578 215.985 C 313.818 215.923,311.279 215.999,311.153 216.328 M336.717 217.026 C 336.717 217.085,337.212 217.580,337.817 218.126 L 338.917 219.120 337.923 218.020 C 336.997 216.995,336.717 216.765,336.717 217.026 M304.913 221.483 L 303.771 222.661 296.133 222.752 L 288.494 222.843 288.466 225.042 L 288.437 227.242 288.566 225.127 L 288.696 223.012 296.225 223.012 L 303.754 223.012 305.076 221.658 C 305.803 220.914,306.321 220.305,306.226 220.305 C 306.132 220.305,305.541 220.835,304.913 221.483 M244.313 221.912 L 243.147 223.181 244.416 222.015 C 245.597 220.929,245.841 220.643,245.582 220.643 C 245.526 220.643,244.955 221.214,244.313 221.912 M275.447 221.912 L 274.281 223.181 275.550 222.015 C 276.731 220.929,276.975 220.643,276.716 220.643 C 276.660 220.643,276.089 221.214,275.447 221.912 M339.573 230.457 C 339.573 235.575,339.620 237.669,339.678 235.110 C 339.735 232.551,339.735 228.363,339.678 225.804 C 339.620 223.245,339.573 225.338,339.573 230.457 M87.780 226.227 C 87.780 228.646,87.834 229.592,87.899 228.328 C 87.965 227.064,87.964 225.084,87.898 223.928 C 87.832 222.773,87.779 223.807,87.780 226.227 M155.477 230.288 C 155.476 234.941,155.524 236.891,155.583 234.622 C 155.641 232.353,155.641 228.546,155.583 226.162 C 155.525 223.778,155.477 225.635,155.477 230.288 M198.109 223.137 C 198.011 223.392,197.988 224.420,198.057 225.421 L 198.183 227.242 198.245 225.133 L 198.308 223.025 206.007 222.927 L 213.706 222.829 205.996 222.751 C 199.729 222.688,198.253 222.760,198.109 223.137 M67.753 226.311 L 67.682 229.780 73.350 229.704 L 79.019 229.629 73.532 229.527 L 68.045 229.425 67.934 226.134 L 67.824 222.843 67.753 226.311 M176.124 233.841 C 176.124 239.890,176.170 242.365,176.226 239.340 C 176.282 236.316,176.282 231.366,176.226 228.342 C 176.170 225.317,176.124 227.792,176.124 233.841 M258.696 233.841 C 258.696 239.890,258.742 242.365,258.798 239.340 C 258.854 236.316,258.854 231.366,258.798 228.342 C 258.742 225.317,258.696 227.792,258.696 233.841 M266.479 233.841 C 266.479 239.890,266.525 242.365,266.581 239.340 C 266.638 236.316,266.638 231.366,266.581 228.342 C 266.525 225.317,266.479 227.792,266.479 233.841 M134.152 230.457 C 134.152 234.086,134.202 235.571,134.262 233.756 C 134.323 231.942,134.323 228.972,134.262 227.157 C 134.202 225.343,134.152 226.827,134.152 230.457 M135.849 224.470 C 135.756 224.713,135.728 226.731,135.787 228.954 L 135.895 232.995 135.968 228.702 L 136.041 224.408 137.140 224.272 L 138.240 224.135 137.130 224.081 C 136.484 224.050,135.948 224.212,135.849 224.470 M147.688 230.457 C 147.688 234.086,147.738 235.571,147.799 233.756 C 147.860 231.942,147.860 228.972,147.799 227.157 C 147.738 225.343,147.688 226.827,147.688 230.457 M79.973 226.396 C 79.973 227.606,80.034 228.101,80.109 227.496 C 80.185 226.891,80.185 225.901,80.109 225.296 C 80.034 224.691,79.973 225.186,79.973 226.396 M228.903 230.288 C 228.903 233.452,228.954 234.792,229.016 233.265 C 229.079 231.739,229.079 229.150,229.017 227.512 C 228.955 225.875,228.904 227.124,228.903 230.288 M211.237 230.203 L 211.168 233.503 204.569 233.503 L 197.970 233.503 198.035 235.787 L 198.100 238.071 198.220 235.956 L 198.340 233.841 204.765 233.841 C 212.179 233.841,211.581 234.193,211.420 229.922 L 211.307 226.904 211.237 230.203 M103.638 228.002 C 105.266 228.064,107.931 228.064,109.560 228.002 C 111.189 227.940,109.856 227.889,106.599 227.889 C 103.342 227.889,102.009 227.940,103.638 228.002 M177.811 238.409 C 177.811 242.876,177.859 244.657,177.918 242.366 C 177.977 240.076,177.976 236.421,177.918 234.245 C 177.859 232.068,177.811 233.942,177.811 238.409 M288.390 235.787 L 288.455 238.071 288.575 235.963 L 288.695 233.855 295.194 233.756 L 301.692 233.656 295.008 233.579 L 288.325 233.503 288.390 235.787 M67.812 240.609 C 67.812 242.936,67.866 243.887,67.932 242.724 C 67.999 241.561,67.999 239.657,67.932 238.494 C 67.866 237.331,67.812 238.283,67.812 240.609 M134.660 237.648 C 135.056 238.172,135.783 238.240,140.948 238.240 C 146.112 238.240,146.839 238.172,147.235 237.648 C 147.616 237.144,147.612 237.119,147.209 237.479 C 146.868 237.782,145.098 237.902,140.948 237.902 C 136.797 237.902,135.027 237.782,134.686 237.479 C 134.283 237.119,134.279 237.144,134.660 237.648 M232.552 237.816 C 234.914 237.874,238.873 237.874,241.351 237.817 C 243.828 237.759,241.895 237.711,237.056 237.711 C 232.217 237.711,230.190 237.758,232.552 237.816 M321.556 237.815 C 323.176 237.877,325.917 237.877,327.648 237.816 C 329.379 237.754,328.054 237.704,324.704 237.703 C 321.354 237.703,319.937 237.753,321.556 237.815 " stroke="none" fill="#626262" fill-rule="evenodd"></path></g></svg>
