<?xml version="1.0" encoding="UTF-8"?>
<svg id="Vrstva_1" xmlns="http://www.w3.org/2000/svg" version="1.1" xmlns:xlink="http://www.w3.org/1999/xlink" viewBox="0 0 156.89 94.8">
  <!-- Generator: Adobe Illustrator 29.7.1, SVG Export Plug-In . SVG Version: 2.1.1 Build 8)  -->
  <defs>
    <style>
      .st0 {
        fill: #1d1d1b;
      }

      .st1 {
        fill: #fff;
      }

      .st2 {
        fill: url(#radial-gradient);
      }

      .st3 {
        fill: url(#radial-gradient1);
      }

      .st4 {
        fill: url(#radial-gradient2);
      }

      .st5 {
        clip-path: url(#clippath);
      }
    </style>
    <radialGradient id="radial-gradient" cx="78.44" cy="46.35" fx="78.44" fy="46.35" r="36.57" gradientUnits="userSpaceOnUse">
      <stop offset="0" stop-color="#00589f"/>
      <stop offset=".49" stop-color="#004379"/>
      <stop offset="1" stop-color="#003154"/>
    </radialGradient>
    <radialGradient id="radial-gradient1" cx="78.44" cy="60.81" fx="78.44" fy="60.81" r="42.21" xlink:href="#radial-gradient"/>
    <radialGradient id="radial-gradient2" cx="78.44" cy="21.43" fx="78.44" fy="21.43" r="38.88" xlink:href="#radial-gradient"/>
    <clipPath id="clippath">
      <path class="st1" d="M98.06,32.3c0,1.87,1.52,3.39,3.39,3.39s3.39-1.52,3.39-3.39-1.52-3.39-3.39-3.39-3.39,1.52-3.39,3.39"/>
    </clipPath>
  </defs>
  <path class="st2" d="M59.19,11.97c-12.45,3.02-16.81,4.23-16.81,4.23,0,0-2.05,11.83,3.59,33.69,4.56,17.65,19.51,28.98,32.47,33.18,12.96-4.2,27.91-15.54,32.47-33.18,5.65-21.86,3.59-33.69,3.59-33.69,0,0-4.36-1.21-16.81-4.23-.13-.03-.26-.06-.39-.1-12.37-3-25.34-3-37.71,0-.13.03-.26.06-.39.1"/>
  <path class="st3" d="M125.66,31.47c-5.11,12.77-11.67,24.91-20.81,35.91-5.69,6.85-12.26,12.96-20.36,17.71-1.77,1.03-3.65,1.91-5.47,2.88-.15.08-.28.12-.41.14-.02,0-.03,0-.05,0-.04,0-.08,0-.11,0s-.08,0-.11,0c-.02,0-.03,0-.05,0-.13-.02-.27-.06-.41-.14-1.81-.97-3.7-1.85-5.47-2.88-8.1-4.75-14.67-10.86-20.36-17.71-9.14-11-15.7-23.14-20.81-35.91-.62-1.55-1.19-3.11-1.78-4.66-.02,0-.05.01-.07.01,0,.12-.02.25,0,.36.52,2.9.95,5.81,1.59,8.68,2.44,11.06,6.54,21.6,13.09,31.35,8.12,12.08,19.17,21.44,33.8,27.46.11.04.2.07.3.09h0c.1.03.19.04.28.04.1,0,.19,0,.29-.02h0c.1-.04.19-.06.3-.11,14.62-6.02,25.67-15.37,33.8-27.46,6.56-9.75,10.66-20.29,13.09-31.35.63-2.87,1.06-5.79,1.59-8.68.02-.12,0-.24,0-.36-.02,0-.05,0-.07-.01-.59,1.55-1.16,3.12-1.78,4.66"/>
  <path class="st4" d="M55.75,2.5c-9.76,2.06-19,5.22-27.36,10.16-.49.29-.68.54-.54,1.09,2.16,8.35,5.17,16.45,9.31,24.22.86,1.62,1.8,3.21,2.75,4.89.06-.14.08-.16.07-.18-.2-.62-.41-1.24-.6-1.85-2.52-7.83-4.09-15.8-4.6-23.93-.03-.43.12-.67.54-.87,1.89-.87,3.75-1.81,5.67-2.62,6.33-2.65,13-4.45,19.87-5.67,6.51-1.15,13.08-1.81,19.74-1.62,6.37.18,12.65.98,18.83,2.29,7.67,1.63,15.01,3.98,21.83,7.49.67.34.83.71.78,1.33-.53,7.39-1.87,14.65-4.03,21.81-.36,1.19-.75,2.37-1.12,3.56.03.01.07.02.1.04.08-.11.16-.21.22-.32,1.7-3.21,3.51-6.38,5.07-9.64,2.9-6.09,5.01-12.41,6.68-18.84.1-.38.29-.75-.3-1.04-2.9-1.45-5.71-3.05-8.68-4.38-6.33-2.84-13.07-4.74-20-6.14-6.08-1.23-12.24-2.01-18.48-2.21C80.47.02,79.43,0,78.39,0,70.74,0,63.2.93,55.75,2.5"/>
  <g>
    <g>
      <path class="st1" d="M98.06,32.3c0,1.87,1.52,3.39,3.39,3.39s3.39-1.52,3.39-3.39-1.52-3.39-3.39-3.39-3.39,1.52-3.39,3.39"/>
      <g class="st5">
        <rect class="st1" x="98.06" y="28.91" width="6.78" height="6.78"/>
      </g>
    </g>
    <path class="st1" d="M65.89,46.13v-26.43h19.07c1.89,0,3.4.57,4.53,1.7s1.7,2.64,1.7,4.53v.95c0,1.89-.6,3.34-1.81,4.34-.5.43-1.1.74-1.77.94v.38c.81.15,1.52.45,2.15.91,1.46,1.01,2.19,2.53,2.19,4.57v1.89c0,1.89-.57,3.4-1.7,4.53-1.13,1.13-2.64,1.7-4.53,1.7h-19.82ZM73.06,29.89h9.25c1.13,0,1.7-.57,1.7-1.7v-1.13c0-1.13-.57-1.7-1.7-1.7h-9.25v4.53ZM73.06,40.46h10.01c1.13,0,1.7-.57,1.7-1.7v-1.51c0-1.13-.57-1.7-1.7-1.7h-10.01v4.91Z"/>
  </g>
  <g>
    <path class="st1" d="M0,73.13v-17.56h12.51c1.36,0,2.48.43,3.32,1.27.84.84,1.27,1.96,1.27,3.32v3.85c0,1.36-.43,2.48-1.27,3.32-.84.84-1.96,1.27-3.32,1.27h-6.49v4.52H0ZM10.93,63.03c.08,0,.12,0,.15-.01,0-.02,0-1.73,0-1.73,0-.08,0-.12-.01-.15,0,0-5.05,0-5.05,0v1.89h4.91Z"/>
    <path class="st0" d="M.86,72.27v-15.83h11.65c1.13,0,2.03.34,2.71,1.02.68.68,1.02,1.58,1.02,2.71v3.85c0,1.13-.34,2.03-1.02,2.71-.68.68-1.58,1.02-2.71,1.02h-7.35v4.52H.86ZM5.16,63.9h5.77c.68,0,1.02-.34,1.02-1.02v-1.58c0-.68-.34-1.02-1.02-1.02h-5.77v3.62Z"/>
    <path class="st1" d="M30.8,73.13l-4.23-5.43h-2.22v5.43h-6.02v-17.56h12.74c1.36,0,2.48.43,3.32,1.27.84.84,1.27,1.96,1.27,3.32v2.94c0,1.53-.62,2.76-1.8,3.56-.13.08-.26.16-.39.23l2.53,2.89v3.34h-5.2ZM29.47,62.13c.08,0,.12,0,.15-.01,0-.02,0-.82,0-.82,0-.08,0-.12-.01-.15,0,0-5.28,0-5.28,0v.99h5.13Z"/>
    <path class="st0" d="M19.18,72.27v-15.83h11.87c1.13,0,2.04.34,2.71,1.02.68.68,1.02,1.58,1.02,2.71v2.94c0,1.25-.47,2.2-1.42,2.85-.41.27-.88.45-1.4.54l3.17,3.62v2.15h-3.91l-4.23-5.43h-3.51v5.43h-4.3ZM23.48,62.99h5.99c.68,0,1.02-.34,1.02-1.02v-.68c0-.68-.34-1.02-1.02-1.02h-5.99v2.71Z"/>
    <path class="st1" d="M41.46,73.35c-1.36,0-2.48-.43-3.32-1.27-.84-.85-1.27-1.96-1.27-3.32v-8.82c0-1.36.43-2.48,1.27-3.32.84-.84,1.96-1.27,3.32-1.27h8.59c1.36,0,2.48.43,3.32,1.27.84.84,1.27,1.96,1.27,3.32v8.82c0,1.36-.43,2.48-1.27,3.32-.84.84-1.96,1.27-3.32,1.27h-8.59ZM48.47,67.78c.08,0,.12,0,.15-.01,0-.02,0-6.7,0-6.7,0-.08,0-.12-.01-.15,0,0-5.57,0-5.57,0-.08,0-.12,0-.15.01,0,.02,0,6.7,0,6.7,0,.08,0,.12.01.15h.01s5.56,0,5.56,0Z"/>
    <path class="st0" d="M37.73,68.76v-8.82c0-1.13.34-2.04,1.02-2.71.68-.68,1.58-1.02,2.71-1.02h8.59c1.13,0,2.04.34,2.71,1.02.68.68,1.02,1.58,1.02,2.71v8.82c0,1.13-.34,2.03-1.02,2.71-.68.68-1.58,1.02-2.71,1.02h-8.59c-1.13,0-2.04-.34-2.71-1.02-.68-.68-1.02-1.58-1.02-2.71ZM43.05,68.65h5.43c.68,0,1.02-.34,1.02-1.02v-6.56c0-.68-.34-1.02-1.02-1.02h-5.43c-.68,0-1.02.34-1.02,1.02v6.56c0,.68.34,1.02,1.02,1.02Z"/>
    <polygon class="st1" points="60.17 73.13 60.17 61.14 54.4 61.14 54.4 55.57 71.96 55.57 71.96 59.28 70.09 61.14 66.19 61.14 66.19 73.13 60.17 73.13"/>
    <path class="st0" d="M61.03,72.27v-11.99h-5.77v-3.85h15.83v2.49l-1.36,1.36h-4.41v11.99h-4.3Z"/>
    <polygon class="st1" points="72.38 73.13 72.38 55.57 88.24 55.57 88.24 59.16 86.38 61.03 78.4 61.03 78.4 61.68 85.64 61.68 85.64 67.02 78.4 67.02 78.4 67.67 88.24 67.67 88.24 73.13 72.38 73.13"/>
    <path class="st0" d="M73.24,72.27v-15.83h14.14v2.37l-1.36,1.36h-8.48v2.37h7.24v3.62h-7.24v2.37h9.84v3.73h-14.14Z"/>
    <path class="st1" d="M93.15,73.13c-1.36,0-2.48-.43-3.32-1.27-.84-.84-1.27-1.96-1.27-3.32v-8.37c0-1.36.43-2.48,1.27-3.32.84-.84,1.96-1.27,3.32-1.27h11.61v3.71l-1.86,1.86h-8.16c-.08,0-.12,0-.15.01,0,.02,0,6.25,0,6.25,0,.08,0,.12.01.15,0,0,10.16,0,10.16,0v5.57h-11.61Z"/>
    <path class="st0" d="M89.41,68.53v-8.37c0-1.13.34-2.03,1.02-2.71.68-.68,1.58-1.02,2.71-1.02h10.74v2.49l-1.36,1.36h-7.8c-.68,0-1.02.34-1.02,1.02v6.11c0,.68.34,1.02,1.02,1.02h9.16v3.85h-10.74c-1.13,0-2.04-.34-2.71-1.02-.68-.68-1.02-1.58-1.02-2.71Z"/>
    <polygon class="st1" points="110.27 73.13 110.27 61.14 104.5 61.14 104.5 55.57 122.06 55.57 122.06 59.28 120.19 61.14 116.29 61.14 116.29 73.13 110.27 73.13"/>
    <path class="st0" d="M111.13,72.27v-11.99h-5.77v-3.85h15.83v2.49l-1.36,1.36h-4.41v11.99h-4.3Z"/>
    <polygon class="st1" points="122.48 73.13 122.48 55.57 138.34 55.57 138.34 59.16 136.48 61.03 128.5 61.03 128.5 61.68 135.74 61.68 135.74 67.02 128.5 67.02 128.5 67.67 138.34 67.67 138.34 73.13 122.48 73.13"/>
    <path class="st0" d="M123.34,72.27v-15.83h14.14v2.37l-1.36,1.36h-8.48v2.37h7.24v3.62h-7.24v2.37h9.84v3.73h-14.14Z"/>
    <path class="st1" d="M139.33,73.13v-17.56h12.96c1.36,0,2.48.43,3.32,1.27.84.84,1.27,1.96,1.27,3.32v8.37c0,1.36-.43,2.48-1.27,3.32s-1.96,1.27-3.32,1.27h-12.96ZM150.71,67.56c.08,0,.12,0,.15-.01,0-.02,0-6.25,0-6.25,0-.08,0-.12-.01-.15,0,0-5.5,0-5.5,0v6.42h5.36Z"/>
    <path class="st0" d="M140.19,72.27v-15.83h12.1c1.13,0,2.04.34,2.71,1.02.68.68,1.02,1.58,1.02,2.71v8.37c0,1.13-.34,2.03-1.02,2.71-.68.68-1.58,1.02-2.71,1.02h-12.1ZM144.49,68.42h6.22c.68,0,1.02-.34,1.02-1.02v-6.11c0-.68-.34-1.02-1.02-1.02h-6.22v8.14Z"/>
  </g>
</svg>