<?xml version="1.0" encoding="UTF-8"?>
<svg id="Vrstva_1" xmlns="http://www.w3.org/2000/svg" version="1.1" xmlns:xlink="http://www.w3.org/1999/xlink" viewBox="0 0 283.46 94.7">
  <!-- Generator: Adobe Illustrator 29.7.1, SVG Export Plug-In . SVG Version: 2.1.1 Build 8)  -->
  <defs>
    <style>
      .st0 {
        fill: #1d1d1b;
      }

      .st1 {
        fill: #fff;
      }

      .st2 {
        fill: url(#radial-gradient);
      }

      .st3 {
        fill: url(#radial-gradient5);
      }

      .st4 {
        fill: url(#radial-gradient1);
      }

      .st5 {
        clip-path: url(#clippath-1);
      }

      .st6 {
        fill: url(#radial-gradient7);
      }

      .st7 {
        clip-path: url(#clippath-3);
      }

      .st8 {
        fill: url(#radial-gradient6);
      }

      .st9 {
        fill: url(#radial-gradient2);
      }

      .st10 {
        clip-path: url(#clippath-2);
      }

      .st11 {
        fill: url(#radial-gradient4);
      }

      .st12 {
        fill: url(#radial-gradient3);
      }

      .st13 {
        clip-path: url(#clippath);
      }
    </style>
    <radialGradient id="radial-gradient" cx="50.58" cy="46.3" fx="50.58" fy="46.3" r="36.53" gradientUnits="userSpaceOnUse">
      <stop offset="0" stop-color="#00589f"/>
      <stop offset=".49" stop-color="#004379"/>
      <stop offset="1" stop-color="#003154"/>
    </radialGradient>
    <clipPath id="clippath">
      <path class="st2" d="M31.35,11.96c-12.43,3.01-16.79,4.22-16.79,4.22,0,0-2.05,11.82,3.59,33.65,4.55,17.63,19.48,28.95,32.43,33.15,12.95-4.2,27.88-15.52,32.43-33.15,5.64-21.83,3.59-33.65,3.59-33.65,0,0-4.36-1.21-16.79-4.22-.13-.03-.26-.06-.39-.1-12.36-2.99-25.31-2.99-37.67,0-.13.03-.26.06-.39.1"/>
    </clipPath>
    <radialGradient id="radial-gradient1" cx="-278.57" cy="344.85" fx="-278.57" fy="344.85" r=".66" gradientTransform="translate(16039.68 19838.39) scale(57.4 -57.4)" xlink:href="#radial-gradient"/>
    <radialGradient id="radial-gradient2" cx="50.58" cy="60.74" fx="50.58" fy="60.74" r="42.16" xlink:href="#radial-gradient"/>
    <radialGradient id="radial-gradient3" cx="50.58" cy="60.74" fx="50.58" fy="60.74" r="42.16" xlink:href="#radial-gradient"/>
    <clipPath id="clippath-1">
      <path class="st12" d="M97.74,31.44c-5.1,12.76-11.66,24.88-20.79,35.87-5.68,6.84-12.24,12.94-20.34,17.69-1.76,1.03-3.65,1.91-5.46,2.88-.15.08-.28.12-.41.14-.02,0-.03,0-.05,0-.04,0-.08,0-.11,0s-.08,0-.11,0c-.02,0-.03,0-.05,0-.13-.02-.27-.06-.41-.14-1.81-.97-3.7-1.85-5.46-2.88-8.09-4.74-14.65-10.84-20.34-17.69C15.08,56.32,8.52,44.2,3.42,31.44c-.62-1.54-1.18-3.1-1.77-4.66-.02,0-.05.01-.07.01,0,.12-.02.25,0,.36.52,2.89.95,5.8,1.58,8.67,2.43,11.05,6.53,21.58,13.08,31.32,8.11,12.07,19.15,21.41,33.76,27.42.11.04.2.07.3.09h0c.1.03.19.04.28.04.1,0,.19,0,.29-.02h0c.1-.04.19-.06.3-.11,14.61-6.01,25.65-15.35,33.76-27.42,6.55-9.74,10.64-20.27,13.08-31.32.63-2.87,1.06-5.78,1.59-8.67.02-.12,0-.24,0-.36-.02,0-.05,0-.07-.01-.59,1.55-1.16,3.11-1.78,4.66"/>
    </clipPath>
    <radialGradient id="radial-gradient4" cx="-279.5" cy="345.92" fx="-279.5" fy="345.92" r=".84" gradientTransform="translate(17501.47 -14039.03) rotate(-90) scale(50.45 -50.45)" xlink:href="#radial-gradient"/>
    <radialGradient id="radial-gradient5" cx="50.58" cy="21.41" fx="50.58" fy="21.41" r="38.84" xlink:href="#radial-gradient"/>
    <radialGradient id="radial-gradient6" cx="50.58" cy="21.41" fx="50.58" fy="21.41" r="38.84" xlink:href="#radial-gradient"/>
    <clipPath id="clippath-2">
      <path class="st8" d="M27.91,2.5C18.16,4.56,8.94,7.72.58,12.65c-.49.29-.68.54-.54,1.09,2.16,8.34,5.17,16.43,9.3,24.2.86,1.62,1.8,3.2,2.75,4.88.06-.14.08-.16.07-.18-.2-.62-.41-1.23-.6-1.85-2.52-7.82-4.08-15.79-4.59-23.9-.03-.43.12-.67.54-.87,1.89-.87,3.74-1.81,5.67-2.62,6.33-2.65,12.98-4.44,19.85-5.66,6.5-1.15,13.07-1.81,19.71-1.62,6.36.18,12.63.98,18.81,2.29,7.66,1.63,14.99,3.98,21.81,7.48.66.34.82.71.78,1.33-.53,7.38-1.87,14.64-4.03,21.78-.36,1.19-.75,2.37-1.12,3.55.03.01.07.02.1.04.08-.11.16-.21.22-.32,1.7-3.21,3.51-6.37,5.06-9.63,2.9-6.08,5-12.4,6.67-18.82.1-.38.29-.75-.3-1.04-2.9-1.45-5.7-3.05-8.67-4.38-6.33-2.84-13.06-4.73-19.98-6.13C66.03,1.04,59.88.26,53.64.05,52.6.02,51.57,0,50.53,0,42.89,0,35.35.93,27.91,2.5"/>
    </clipPath>
    <radialGradient id="radial-gradient7" cx="-279.73" cy="346.22" fx="-279.73" fy="346.22" r=".93" gradientTransform="translate(14541.2 -11686.42) rotate(-90) scale(41.85 -41.85)" xlink:href="#radial-gradient"/>
    <clipPath id="clippath-3">
      <path class="st1" d="M58.12,46.3c0,1.97,1.6,3.57,3.57,3.57s3.56-1.6,3.56-3.57-1.6-3.56-3.56-3.56-3.57,1.6-3.57,3.56"/>
    </clipPath>
  </defs>
  <g>
    <path class="st2" d="M31.35,11.96c-12.43,3.01-16.79,4.22-16.79,4.22,0,0-2.05,11.82,3.59,33.65,4.55,17.63,19.48,28.95,32.43,33.15,12.95-4.2,27.88-15.52,32.43-33.15,5.64-21.83,3.59-33.65,3.59-33.65,0,0-4.36-1.21-16.79-4.22-.13-.03-.26-.06-.39-.1-12.36-2.99-25.31-2.99-37.67,0-.13.03-.26.06-.39.1"/>
    <g class="st13">
      <rect class="st4" x="12.51" y="7.62" width="76.14" height="75.36"/>
    </g>
  </g>
  <g>
    <path class="st9" d="M97.74,31.44c-5.1,12.76-11.66,24.88-20.79,35.87-5.68,6.84-12.24,12.94-20.34,17.69-1.76,1.03-3.65,1.91-5.46,2.88-.15.08-.28.12-.41.14-.02,0-.03,0-.05,0-.04,0-.08,0-.11,0s-.08,0-.11,0c-.02,0-.03,0-.05,0-.13-.02-.27-.06-.41-.14-1.81-.97-3.7-1.85-5.46-2.88-8.09-4.74-14.65-10.84-20.34-17.69C15.08,56.32,8.52,44.2,3.42,31.44c-.62-1.54-1.18-3.1-1.77-4.66-.02,0-.05.01-.07.01,0,.12-.02.25,0,.36.52,2.89.95,5.8,1.58,8.67,2.43,11.05,6.53,21.58,13.08,31.32,8.11,12.07,19.15,21.41,33.76,27.42.11.04.2.07.3.09h0c.1.03.19.04.28.04.1,0,.19,0,.29-.02h0c.1-.04.19-.06.3-.11,14.61-6.01,25.65-15.35,33.76-27.42,6.55-9.74,10.64-20.27,13.08-31.32.63-2.87,1.06-5.78,1.59-8.67.02-.12,0-.24,0-.36-.02,0-.05,0-.07-.01-.59,1.55-1.16,3.11-1.78,4.66"/>
    <g class="st5">
      <rect class="st11" x="1.56" y="26.78" width="98.05" height="67.92"/>
    </g>
  </g>
  <g>
    <path class="st3" d="M27.91,2.5C18.16,4.56,8.94,7.72.58,12.65c-.49.29-.68.54-.54,1.09,2.16,8.34,5.17,16.43,9.3,24.2.86,1.62,1.8,3.2,2.75,4.88.06-.14.08-.16.07-.18-.2-.62-.41-1.23-.6-1.85-2.52-7.82-4.08-15.79-4.59-23.9-.03-.43.12-.67.54-.87,1.89-.87,3.74-1.81,5.67-2.62,6.33-2.65,12.98-4.44,19.85-5.66,6.5-1.15,13.07-1.81,19.71-1.62,6.36.18,12.63.98,18.81,2.29,7.66,1.63,14.99,3.98,21.81,7.48.66.34.82.71.78,1.33-.53,7.38-1.87,14.64-4.03,21.78-.36,1.19-.75,2.37-1.12,3.55.03.01.07.02.1.04.08-.11.16-.21.22-.32,1.7-3.21,3.51-6.37,5.06-9.63,2.9-6.08,5-12.4,6.67-18.82.1-.38.29-.75-.3-1.04-2.9-1.45-5.7-3.05-8.67-4.38-6.33-2.84-13.06-4.73-19.98-6.13C66.03,1.04,59.88.26,53.64.05,52.6.02,51.57,0,50.53,0,42.89,0,35.35.93,27.91,2.5"/>
    <g class="st10">
      <rect class="st6" x="-.1" width="101.44" height="42.81"/>
    </g>
  </g>
  <g>
    <g>
      <path class="st1" d="M58.12,46.3c0,1.97,1.6,3.57,3.57,3.57s3.56-1.6,3.56-3.57-1.6-3.56-3.56-3.56-3.57,1.6-3.57,3.56"/>
      <g class="st7">
        <rect class="st1" x="58.12" y="42.74" width="7.13" height="7.13"/>
      </g>
    </g>
    <path class="st1" d="M29.26,58.13v-23.67h17.07c1.69,0,3.04.51,4.06,1.52s1.52,2.37,1.52,4.06v.85c0,1.69-.54,2.99-1.62,3.89-.45.38-.98.66-1.59.85v.34c.72.13,1.36.41,1.93.81,1.31.9,1.96,2.27,1.96,4.09v1.69c0,1.69-.51,3.04-1.52,4.06-1.01,1.01-2.37,1.52-4.06,1.52h-17.75ZM35.69,43.6h8.28c1.01,0,1.52-.51,1.52-1.52v-1.01c0-1.01-.51-1.52-1.52-1.52h-8.28v4.06ZM35.69,53.06h8.96c1.01,0,1.52-.51,1.52-1.52v-1.35c0-1.01-.51-1.52-1.52-1.52h-8.96v4.39Z"/>
  </g>
  <g>
    <path class="st1" d="M72,58.13v-23.67h16.86c1.83,0,3.34.58,4.48,1.71,1.14,1.14,1.71,2.64,1.71,4.48v5.18c0,1.83-.58,3.34-1.71,4.48-1.14,1.14-2.64,1.71-4.48,1.71h-8.75v6.1h-8.11ZM86.73,44.53c.1,0,.17-.01.21-.02,0-.02,0-2.33,0-2.33,0-.1-.01-.17-.02-.2,0,0-6.81,0-6.81,0v2.55h6.61Z"/>
    <path class="st0" d="M73.16,56.97v-21.34h15.7c1.52,0,2.74.46,3.66,1.37.91.91,1.37,2.13,1.37,3.66v5.18c0,1.52-.46,2.74-1.37,3.66-.92.91-2.13,1.37-3.66,1.37h-9.91v6.1h-5.79ZM78.95,45.69h7.77c.91,0,1.37-.46,1.37-1.37v-2.13c0-.91-.46-1.37-1.37-1.37h-7.77v4.88Z"/>
    <path class="st1" d="M113.51,58.13l-5.7-7.32h-3v7.32h-8.11v-23.67h17.17c1.84,0,3.34.58,4.48,1.71,1.14,1.14,1.71,2.64,1.71,4.48v3.96c0,2.06-.84,3.72-2.43,4.8-.17.11-.35.22-.53.31l3.41,3.9v4.5h-7ZM111.73,43.31c.1,0,.17,0,.2-.02,0-.02,0-1.11,0-1.11,0-.1-.01-.17-.02-.2,0,0-7.11,0-7.11,0v1.33h6.92Z"/>
    <path class="st0" d="M97.85,56.97v-21.34h16.01c1.52,0,2.74.46,3.66,1.37.91.91,1.37,2.13,1.37,3.66v3.96c0,1.69-.64,2.97-1.92,3.84-.55.37-1.18.61-1.89.73l4.27,4.88v2.9h-5.27l-5.7-7.32h-4.73v7.32h-5.79ZM103.65,44.47h8.08c.91,0,1.37-.46,1.37-1.37v-.91c0-.91-.46-1.37-1.37-1.37h-8.08v3.66Z"/>
    <path class="st1" d="M127.88,58.44c-1.84,0-3.34-.58-4.48-1.71-1.14-1.14-1.71-2.65-1.71-4.48v-11.89c0-1.84.58-3.35,1.71-4.48,1.14-1.13,2.64-1.71,4.48-1.71h11.58c1.84,0,3.34.58,4.48,1.71,1.14,1.14,1.71,2.64,1.71,4.48v11.89c0,1.83-.58,3.34-1.71,4.48-1.14,1.14-2.64,1.71-4.48,1.71h-11.58ZM137.34,50.93c.1,0,.17,0,.2-.02,0-.02,0-9.03,0-9.03,0-.1-.01-.17-.02-.2,0,0-7.51,0-7.51,0-.1,0-.17,0-.2.02,0,.02,0,9.03,0,9.03,0,.1.01.17.02.2h.02s7.49,0,7.49,0Z"/>
    <path class="st0" d="M122.85,52.25v-11.89c0-1.52.46-2.74,1.37-3.66.92-.91,2.13-1.37,3.66-1.37h11.58c1.52,0,2.74.46,3.66,1.37.92.91,1.37,2.13,1.37,3.66v11.89c0,1.52-.46,2.74-1.37,3.66-.91.91-2.13,1.37-3.66,1.37h-11.58c-1.52,0-2.74-.46-3.66-1.37-.91-.92-1.37-2.13-1.37-3.66ZM130.02,52.09h7.32c.91,0,1.37-.46,1.37-1.37v-8.84c0-.91-.46-1.37-1.37-1.37h-7.32c-.91,0-1.37.46-1.37,1.37v8.84c0,.91.46,1.37,1.37,1.37Z"/>
    <polygon class="st1" points="153.09 58.13 153.09 41.98 145.32 41.98 145.32 34.47 168.98 34.47 168.98 39.46 166.47 41.98 161.21 41.98 161.21 58.13 153.09 58.13"/>
    <path class="st0" d="M154.26,56.97v-16.16h-7.77v-5.18h21.34v3.35l-1.83,1.83h-5.95v16.16h-5.79Z"/>
    <polygon class="st1" points="169.56 58.13 169.56 34.47 190.93 34.47 190.93 39.31 188.42 41.82 177.67 41.82 177.67 42.7 187.43 42.7 187.43 49.9 177.67 49.9 177.67 50.78 190.93 50.78 190.93 58.13 169.56 58.13"/>
    <path class="st0" d="M170.72,56.97v-21.34h19.05v3.2l-1.83,1.83h-11.43v3.2h9.76v4.88h-9.76v3.2h13.26v5.03h-19.05Z"/>
    <path class="st1" d="M197.55,58.13c-1.84,0-3.34-.58-4.48-1.71-1.14-1.14-1.71-2.64-1.71-4.48v-11.28c0-1.84.58-3.34,1.71-4.48,1.14-1.14,2.64-1.71,4.48-1.71h15.64v5l-2.51,2.51h-11c-.1,0-.17,0-.2.02,0,.02,0,8.42,0,8.42,0,.1.01.17.02.2,0,0,13.7,0,13.7,0v7.51h-15.64Z"/>
    <path class="st0" d="M192.52,51.94v-11.28c0-1.52.46-2.74,1.37-3.66.92-.91,2.13-1.37,3.66-1.37h14.48v3.35l-1.83,1.83h-10.52c-.91,0-1.37.46-1.37,1.37v8.23c0,.91.46,1.37,1.37,1.37h12.35v5.18h-14.48c-1.52,0-2.74-.46-3.66-1.37-.91-.91-1.37-2.13-1.37-3.66Z"/>
    <polygon class="st1" points="220.62 58.13 220.62 41.98 212.85 41.98 212.85 34.47 236.51 34.47 236.51 39.46 234 41.98 228.74 41.98 228.74 58.13 220.62 58.13"/>
    <path class="st0" d="M221.78,56.97v-16.16h-7.77v-5.18h21.34v3.35l-1.83,1.83h-5.95v16.16h-5.79Z"/>
    <polygon class="st1" points="237.09 58.13 237.09 34.47 258.46 34.47 258.46 39.31 255.95 41.82 245.2 41.82 245.2 42.7 254.96 42.7 254.96 49.9 245.2 49.9 245.2 50.78 258.46 50.78 258.46 58.13 237.09 58.13"/>
    <path class="st0" d="M238.25,56.97v-21.34h19.05v3.2l-1.83,1.83h-11.43v3.2h9.76v4.88h-9.76v3.2h13.26v5.03h-19.05Z"/>
    <path class="st1" d="M259.8,58.13v-23.67h17.47c1.84,0,3.34.58,4.48,1.71,1.14,1.13,1.71,2.64,1.71,4.48v11.28c0,1.84-.58,3.34-1.71,4.48s-2.64,1.71-4.48,1.71h-17.47ZM275.14,50.62c.1,0,.17,0,.2-.02,0-.02,0-8.42,0-8.42,0-.1-.01-.17-.02-.2,0,0-7.42,0-7.42,0v8.65h7.22Z"/>
    <path class="st0" d="M260.96,56.97v-21.34h16.31c1.52,0,2.74.46,3.66,1.37.92.91,1.37,2.13,1.37,3.66v11.28c0,1.52-.46,2.74-1.37,3.66-.91.91-2.13,1.37-3.66,1.37h-16.31ZM266.75,51.79h8.38c.91,0,1.37-.46,1.37-1.37v-8.23c0-.91-.46-1.37-1.37-1.37h-8.38v10.97Z"/>
  </g>
</svg>