<?xml version="1.0" encoding="UTF-8"?>
<svg version="1.1" xmlns="http://www.w3.org/2000/svg" width="2126" height="1132">
<path d="M0 0 C1.68200091 0.3911118 3.36400269 0.78221988 5.04600525 1.17332458 C24.52694954 5.71959163 43.94628256 10.51890521 63.36206055 15.33441162 C67.21503247 16.28882426 71.06906885 17.23889978 74.92307472 18.18912697 C132.1000542 32.29246598 132.1000542 32.29246598 143.17578125 35.984375 C144.48139959 45.42792513 145.38181606 54.83296237 145.80078125 64.359375 C145.86060181 65.66467163 145.86060181 65.66467163 145.92163086 66.99633789 C149.39301023 155.62474196 135.01590236 253.74527312 100.17578125 346.984375 C108.55439914 347.36280534 116.91084808 347.5034378 125.2890625 347.0390625 C126.34455544 347.00780777 126.34455544 347.00780777 127.42137146 346.97592163 C131.23517583 346.71239921 133.62573566 345.97631136 136.38134766 343.41040039 C138.38901107 340.98236345 139.52760469 339.54715393 140.3984375 336.61328125 C142.09162634 331.84099326 144.60508438 327.81443727 147.2878418 323.53564453 C187.05616741 260.04769549 217.44805955 190.16885106 243.17578125 119.984375 C243.83578125 119.984375 244.49578125 119.984375 245.17578125 119.984375 C245.41100612 126.70379853 244.51603929 132.93161852 243.33984375 139.5390625 C243.14522552 140.65683578 242.9506073 141.77460907 242.75009155 142.92625427 C242.11023428 146.57246622 241.45729207 150.21612651 240.80078125 153.859375 C240.46481934 155.73416031 240.46481934 155.73416031 240.12207031 157.64682007 C235.97933278 180.64874585 231.12490423 203.38290084 225.17578125 225.984375 C224.97660095 226.74288757 224.77742065 227.50140015 224.57220459 228.28289795 C213.81646541 269.05899294 199.40770296 308.51310792 182.17578125 346.984375 C188.77578125 346.984375 195.37578125 346.984375 202.17578125 346.984375 C204.5207154 375.90522955 204.5207154 375.90522955 198.63769531 384.05371094 C191.90886708 391.16499477 184.33804844 392.01582569 174.81307983 392.32577515 C169.59369317 392.41292455 164.38843612 392.26289788 159.17578125 391.984375 C157.51809894 395.29973962 157.99506311 399.00990369 157.97045898 402.65673828 C157.95560959 404.0031691 157.95560959 404.0031691 157.94046021 405.37680054 C157.90879625 408.35273575 157.88406844 411.32868694 157.859375 414.3046875 C157.8388097 416.36449607 157.81781334 418.42430039 157.79640198 420.48410034 C157.74113753 425.91250158 157.69174755 431.34094117 157.64355469 436.76940918 C157.58455253 443.27891752 157.51830054 449.78835557 157.4532547 456.29780579 C157.35519018 466.19328602 157.26637173 476.08881079 157.17578125 485.984375 C141.00578125 485.984375 124.83578125 485.984375 108.17578125 485.984375 C107.84578125 481.034375 107.51578125 476.084375 107.17578125 470.984375 C106.50933594 471.84417969 105.84289063 472.70398438 105.15625 473.58984375 C96.63044975 484.54310709 87.81912958 495.19873778 78.46606445 505.45874023 C77.05850656 507.01094005 75.65923031 508.5707588 74.27416992 510.14306641 C68.09933333 517.13107822 61.57677033 523.73642807 54.97338867 530.31713867 C53.10934881 532.17579608 51.25074613 534.03977114 49.39257812 535.90429688 C43.49022757 541.81029171 37.57290084 547.60925329 31.17578125 552.984375 C30.05722399 553.95675991 28.94000986 554.93069224 27.82421875 555.90625 C19.79978015 562.85704731 11.59733844 569.52163657 3.17578125 575.984375 C2.57604492 576.44779297 1.97630859 576.91121094 1.35839844 577.38867188 C-23.28231353 596.38716899 -49.61831824 612.93023681 -76.82421875 627.984375 C-77.62666016 628.42958496 -78.42910156 628.87479492 -79.25585938 629.33349609 C-90.95993404 635.77455267 -102.98145128 641.45823827 -115.13671875 646.984375 C-116.21644958 647.47570419 -116.21644958 647.47570419 -117.31799316 647.97695923 C-119.3977141 648.92093908 -121.47953828 649.86007038 -123.5625 650.796875 C-124.17638077 651.07456223 -124.79026154 651.35224945 -125.42274475 651.63835144 C-140.71302449 658.47051001 -140.71302449 658.47051001 -150.44433594 655.06835938 C-153.4013312 653.86477396 -156.29931898 652.56963046 -159.19921875 651.234375 C-160.27993652 650.74630371 -161.3606543 650.25823242 -162.47412109 649.75537109 C-165.93269519 648.1829304 -169.37956317 646.58705649 -172.82421875 644.984375 C-173.95408203 644.46198242 -175.08394531 643.93958984 -176.24804688 643.40136719 C-191.32260004 636.40030535 -205.95271871 628.84096845 -220.30224609 620.45410156 C-222.58828839 619.12186781 -224.88469007 617.81076718 -227.1875 616.5078125 C-259.22891026 598.23648462 -289.28031642 575.84205595 -316.5546875 551.03515625 C-318.66074293 549.13209412 -320.79742344 547.27283679 -322.94921875 545.421875 C-326.41163774 542.41137817 -329.62489642 539.20461574 -332.83984375 535.93359375 C-334.68653911 534.11961543 -336.58995551 532.45726056 -338.57421875 530.796875 C-343.87337574 526.22970273 -348.45372953 520.98389251 -353.14746094 515.81396484 C-354.88988468 513.91272379 -356.6539512 512.03400651 -358.42578125 510.16015625 C-359.03341309 509.51626953 -359.64104492 508.87238281 -360.26708984 508.20898438 C-361.42622247 506.98251494 -362.58779523 505.75834441 -363.75244141 504.53710938 C-364.56914307 503.66989258 -364.56914307 503.66989258 -365.40234375 502.78515625 C-365.93201752 502.22851288 -366.46169128 501.67186951 -367.00741577 501.09835815 C-368.82421875 498.984375 -368.82421875 498.984375 -370.41894531 496.46401978 C-373.07245542 492.44500204 -375.11221202 489.49198764 -379.85028076 488.08714294 C-383.51738879 487.78124187 -387.06792749 487.78178724 -390.74609375 487.89453125 C-392.09596248 487.89837175 -393.44585289 487.89733887 -394.79571533 487.89170837 C-398.33679144 487.88791069 -401.87458004 487.94091512 -405.41491699 488.0090332 C-411.06339268 488.10802283 -416.71271436 488.1187446 -422.36191559 488.13180351 C-424.31378712 488.14416822 -426.26544728 488.18181795 -428.21697998 488.2202301 C-441.32465221 488.35494561 -452.12989525 486.27150559 -461.82421875 476.984375 C-467.72359743 469.311636 -470.12567007 461.86979863 -470.11474609 452.30786133 C-470.12146332 451.45658661 -470.12818054 450.60531189 -470.13510132 449.72824097 C-470.15404037 446.92423603 -470.15800386 444.12047111 -470.16015625 441.31640625 C-470.16658846 439.35593062 -470.17331714 437.39545594 -470.18032837 435.4349823 C-470.19229196 431.32699358 -470.19601028 427.21908889 -470.19482422 423.11108398 C-470.19462142 417.87030629 -470.2218876 412.63007323 -470.25636864 407.38942432 C-470.27870956 403.33912223 -470.28265951 399.28894953 -470.28160477 395.23859215 C-470.28395129 393.30785946 -470.29272079 391.37712269 -470.3082695 389.44645119 C-470.47247239 366.94570562 -470.47247239 366.94570562 -464.18295288 358.87947083 C-462.5379612 356.99314754 -462.5379612 356.99314754 -462.92578125 354.18359375 C-463.96272074 350.49118749 -465.48298238 347.20637549 -467.19921875 343.796875 C-495.05133303 286.2519739 -512.21798883 222.77427674 -523.44989014 160.06420898 C-523.82758392 157.96567752 -524.21187675 155.86845345 -524.59814453 153.77148438 C-525.33232307 149.78220448 -526.0496786 145.79016968 -526.76171875 141.796875 C-527.07955322 140.04225952 -527.07955322 140.04225952 -527.40380859 138.25219727 C-528.47489677 132.06079627 -529.04316745 126.26753912 -528.82421875 119.984375 C-525.66735206 122.58671124 -524.69628524 125.45853056 -523.328125 129.2578125 C-522.98445137 130.19764481 -522.98445137 130.19764481 -522.63383484 131.15646362 C-522.13852081 132.51137526 -521.64656053 133.86751663 -521.15759277 135.22473145 C-519.83588534 138.88469944 -518.48059644 142.53216147 -517.125 146.1796875 C-516.84836517 146.92472534 -516.57173035 147.66976318 -516.28671265 148.43737793 C-503.94005175 181.54770855 -489.12321199 213.90676047 -473.49902344 245.58789062 C-471.83072762 248.97117509 -470.17501576 252.36043232 -468.51953125 255.75 C-461.95275201 269.11808631 -454.93249978 282.14070036 -447.50097656 295.04541016 C-445.74715079 298.11945713 -444.02766305 301.21066144 -442.31640625 304.30859375 C-435.52231211 316.60062627 -428.48877423 328.64290353 -420.81713867 340.40991211 C-419.82421875 341.984375 -419.82421875 341.984375 -418.82421875 343.984375 C-407.60421875 344.314375 -396.38421875 344.644375 -384.82421875 344.984375 C-385.97921875 342.1175 -387.13421875 339.250625 -388.32421875 336.296875 C-393.53930691 322.82018674 -397.27170702 308.97445342 -400.82421875 294.984375 C-401.09008789 293.94086884 -401.09008789 293.94086884 -401.36132812 292.87628174 C-411.80517464 251.759485 -419.5506533 210.07311602 -424.82421875 167.984375 C-424.95346741 166.95301422 -424.95346741 166.95301422 -425.08532715 165.90081787 C-436.55256916 73.43656614 -436.55256916 73.43656614 -426.82421875 35.984375 C-412.66484402 31.85118819 -398.4568313 28.02990426 -384.14453125 24.46484375 C-382.1155801 23.95709768 -380.08668125 23.44914258 -378.05783081 22.94099426 C-373.82802163 21.88244621 -369.59759775 20.82640212 -365.36669922 19.7722168 C-360.07177967 18.45271126 -354.77845893 17.1269184 -349.4855547 15.79935551 C-329.12891266 10.69599869 -308.75958552 5.65946318 -288.3125 0.9296875 C-287.53483906 0.74909979 -286.75717812 0.56851208 -285.95595169 0.38245201 C-204.65108921 -18.45131533 -120.80218123 -20.78225533 0 0 Z M-387.82421875 389.984375 C-386.72775817 391.78076796 -385.62176727 393.57134654 -384.51171875 395.359375 C-383.89683594 396.35710937 -383.28195312 397.35484375 -382.6484375 398.3828125 C-380.919841 401.18264312 -380.919841 401.18264312 -377.82421875 402.984375 C-377.82421875 398.694375 -377.82421875 394.404375 -377.82421875 389.984375 C-381.12421875 389.984375 -384.42421875 389.984375 -387.82421875 389.984375 Z M72.1237793 396.45922852 C70.45547286 399.71458497 68.930666 403.01731647 67.45996094 406.36621094 C65.21477008 410.94366849 62.13446469 414.8817181 59.05078125 418.921875 C58.45724854 419.71625977 57.86371582 420.51064453 57.25219727 421.32910156 C53.22818729 426.6914579 49.0744987 431.92692974 44.75 437.05078125 C43.12633328 438.90169199 43.12633328 438.90169199 42.17578125 440.984375 C55.2417437 443.07859247 55.2417437 443.07859247 67.47802734 439.52539062 C71.62756882 435.62927957 74.71952451 430.98821492 77.75146484 426.19824219 C79.74442547 423.10051045 82.00009774 420.29863517 84.30078125 417.421875 C85.48927921 415.85826971 86.67765843 414.2945631 87.86035156 412.7265625 C89.36373427 410.73544539 90.87551382 408.75081092 92.38671875 406.765625 C93.48352044 405.3180473 94.5798805 403.87013488 95.67578125 402.421875 C96.45139404 401.40275024 96.45139404 401.40275024 97.24267578 400.36303711 C97.72591309 399.72116455 98.20915039 399.07929199 98.70703125 398.41796875 C99.34995117 397.56803345 99.34995117 397.56803345 100.00585938 396.70092773 C101.25610439 394.86652191 102.22639319 392.98866914 103.17578125 390.984375 C85.72209004 388.0255421 85.72209004 388.0255421 72.1237793 396.45922852 Z M-421.82421875 426.984375 C-421.82421875 432.264375 -421.82421875 437.544375 -421.82421875 442.984375 C-418.52421875 442.984375 -415.22421875 442.984375 -411.82421875 442.984375 C-413.25635387 439.04780258 -415.12754029 435.69506144 -417.38671875 432.171875 C-418.00675781 431.19605469 -418.62679687 430.22023438 -419.265625 429.21484375 C-419.77996094 428.47878906 -420.29429687 427.74273438 -420.82421875 426.984375 C-421.15421875 426.984375 -421.48421875 426.984375 -421.82421875 426.984375 Z M-328.82421875 437.984375 C-329.3497071 441.87326156 -329.72317095 445.76369099 -330.07421875 449.671875 C-330.22246094 450.75533203 -330.37070312 451.83878906 -330.5234375 452.95507812 C-330.92934456 458.21625808 -330.71744521 461.64808815 -327.73730469 466.10644531 C-325.24754606 468.97747288 -322.5177335 471.58209441 -319.74133301 474.17312622 C-316.97204179 476.78949366 -314.32451048 479.51995131 -311.65960693 482.2419281 C-308.73768217 485.21770079 -305.78515583 488.16216934 -302.83203125 491.10693359 C-300.56002506 493.37353493 -298.29347431 495.64549459 -296.02734375 497.91796875 C-294.55891458 499.38573771 -293.09017555 500.85319676 -291.62109375 502.3203125 C-290.95632019 502.98711029 -290.29154663 503.65390808 -289.60662842 504.34091187 C-285.17277085 508.75297819 -280.57059575 512.9119551 -275.82421875 516.984375 C-274.70641277 517.95762344 -273.58912015 518.93146228 -272.47265625 519.90625 C-264.4485065 526.85679711 -256.24855828 533.52563947 -247.82421875 539.984375 C-247.20853027 540.45842773 -246.5928418 540.93248047 -245.95849609 541.42089844 C-223.80987548 558.42858505 -200.47694477 573.85339744 -175.82421875 586.984375 C-174.58590364 587.64804881 -173.34762501 588.31179068 -172.109375 588.97558594 C-168.64195817 590.83109701 -165.16576382 592.66934343 -161.6842041 594.49816895 C-160.28621986 595.2344056 -158.89026815 595.97451566 -157.49645996 596.71862793 C-155.52331937 597.76995243 -153.542303 598.80472407 -151.55859375 599.8359375 C-149.82947754 600.74593506 -149.82947754 600.74593506 -148.06542969 601.67431641 C-143.06905888 603.69378957 -140.26910555 603.57377338 -135.27929688 601.53833008 C-133.96479782 600.87298659 -132.65714436 600.19400069 -131.35546875 599.50390625 C-130.64675125 599.1398317 -129.93803375 598.77575714 -129.20783997 598.40065002 C-126.90612691 597.2126534 -124.6148772 596.00603297 -122.32421875 594.796875 C-120.730806 593.96482817 -119.13729953 593.13296081 -117.54370117 592.30126953 C-89.83201856 577.77105351 -63.71602824 560.9498415 -38.82421875 541.984375 C-38.18307129 541.49630371 -37.54192383 541.00823242 -36.88134766 540.50537109 C-24.55852291 531.07706048 -12.85955541 520.96336624 -1.48046875 510.421875 C0.66246373 508.45541931 2.83270292 506.5516024 5.05078125 504.671875 C9.10135725 501.16424855 12.880929 497.38860083 16.67578125 493.609375 C17.31241699 492.97733154 17.94905273 492.34528809 18.60498047 491.6940918 C19.19553223 491.10152588 19.78608398 490.50895996 20.39453125 489.8984375 C20.93013672 489.3617041 21.46574219 488.8249707 22.01757812 488.27197266 C23.28724162 487.14910576 23.28724162 487.14910576 23.17578125 485.984375 C18.88530657 485.7202277 14.59694568 485.56225797 10.30078125 485.421875 C9.09679688 485.34646484 7.8928125 485.27105469 6.65234375 485.19335938 C-0.07773449 485.02876507 -4.06406315 485.45076753 -9.1328125 490.0859375 C-10.70116632 491.71437844 -12.26512708 493.34706416 -13.82421875 494.984375 C-16.79768625 497.42004093 -19.89881192 499.66814227 -23.01171875 501.921875 C-23.83486572 502.52177246 -24.6580127 503.12166992 -25.50610352 503.73974609 C-53.84866422 524.27417421 -84.41023197 541.74754648 -116.82421875 554.984375 C-117.84483398 555.40187012 -118.86544922 555.81936523 -119.91699219 556.24951172 C-122.87535366 557.44127095 -125.84494639 558.59601782 -128.82421875 559.734375 C-129.70158691 560.08218018 -130.57895508 560.42998535 -131.48291016 560.78833008 C-141.5093089 564.47732463 -149.09258411 561.91279436 -158.76171875 558.171875 C-159.79876953 557.77516602 -160.83582031 557.37845703 -161.90429688 556.96972656 C-202.6127308 541.10343761 -241.05829399 518.95443502 -274.48046875 490.7421875 C-278.89093096 486.98263797 -278.89093096 486.98263797 -284.38671875 485.546875 C-285.19109375 485.69125 -285.99546875 485.835625 -286.82421875 485.984375 C-286.68628906 485.30503906 -286.54835938 484.62570312 -286.40625 483.92578125 C-287.06589027 479.28363992 -290.19578085 477.04568064 -293.51171875 473.921875 C-294.13755859 473.31021484 -294.76339844 472.69855469 -295.40820312 472.06835938 C-298.04820498 469.51128952 -300.69787116 467.08538118 -303.5703125 464.7890625 C-305.73715577 463.05408574 -307.42425911 461.2974974 -309.19921875 459.171875 C-311.45684607 456.52416088 -313.75640993 454.02337416 -316.26171875 451.609375 C-319.95343059 448.00137545 -323.07193082 444.00712635 -326.22265625 439.92578125 C-327.01542969 438.96478516 -327.01542969 438.96478516 -327.82421875 437.984375 C-328.15421875 437.984375 -328.48421875 437.984375 -328.82421875 437.984375 Z " fill="#023A66" transform="translate(1204.82421875,283.015625)"/>
<path d="M0 0 C3.15686669 2.60233624 4.12793351 5.47415556 5.49609375 9.2734375 C5.7252095 9.89999237 5.95432526 10.52654724 6.19038391 11.17208862 C6.68569794 12.52700026 7.17765822 13.88314163 7.66662598 15.24035645 C8.98833341 18.90032444 10.34362231 22.54778647 11.69921875 26.1953125 C11.97585358 26.94035034 12.2524884 27.68538818 12.5375061 28.45300293 C24.884167 61.56333355 39.70100676 93.92238547 55.32519531 125.60351562 C56.99349113 128.98680009 58.64920299 132.37605732 60.3046875 135.765625 C66.87146674 149.13371131 73.89171897 162.15632536 81.32324219 175.06103516 C83.07706796 178.13508213 84.7965557 181.22628644 86.5078125 184.32421875 C93.30190664 196.61625127 100.33544452 208.65852853 108.00708008 220.42553711 C109 222 109 222 110 224 C110.97147224 224.01213028 110.97147224 224.01213028 111.96257019 224.02450562 C118.76095771 224.11119459 125.55907494 224.21071848 132.35717773 224.31738281 C134.88740465 224.35544346 137.41768146 224.39033434 139.94799805 224.421875 C143.60483524 224.46802716 147.26133561 224.52593464 150.91796875 224.5859375 C152.03205612 224.59748871 153.14614349 224.60903992 154.29399109 224.62094116 C167.58353138 224.86540888 179.33545434 225.68325725 189.32421875 235.21875 C192.96659959 239.14232003 194.97189916 241.9297479 197 247 C197.33 240.4 197.66 233.8 198 227 C243.21 227 288.42 227 335 227 C335 257 335 257 329.9375 265.875 C321 271 321 271 290 271 C290 302.02 290 333.04 290 365 C266.24 365.495 266.24 365.495 242 366 C241.34 364.02 240.68 362.04 240 360 C238.83127699 358.28189529 238.83127699 358.28189529 237.390625 356.96484375 C236.88273438 356.46533203 236.37484375 355.96582031 235.8515625 355.45117188 C235.32304688 354.95166016 234.79453125 354.45214844 234.25 353.9375 C233.73695313 353.43412109 233.22390625 352.93074219 232.6953125 352.41210938 C230.15819185 349.94829749 227.56289958 347.60877038 224.82421875 345.37109375 C222.4615928 343.38753366 220.52555398 341.48458109 218.5625 339.125 C216.30764278 336.47368437 214.00526698 333.97809299 211.5 331.5625 C208.84251948 328.96285149 206.54356949 326.2264388 204.28125 323.27734375 C203.3540918 322.07259399 203.3540918 322.07259399 202.40820312 320.84350586 C201.94349609 320.23514893 201.47878906 319.62679199 201 319 C200.47395848 322.72188028 200.1008939 326.44537204 199.75 330.1875 C199.60175781 331.22326172 199.45351563 332.25902344 199.30078125 333.32617188 C198.88524383 338.4884252 199.15546927 341.75260264 202.10449219 346.10839844 C204.60209097 348.98105855 207.32991592 351.59941497 210.10437012 354.20217896 C212.81016985 356.76836751 215.40277149 359.44041008 218.01104736 362.10508728 C220.84232723 364.98868312 223.70322574 367.8419663 226.56494141 370.6953125 C228.76452072 372.88948502 230.95864007 375.08901723 233.15234375 377.2890625 C234.5752 378.71125856 235.99836609 380.13314471 237.421875 381.5546875 C238.06477478 382.19961151 238.70767456 382.84453552 239.37005615 383.50900269 C243.75279611 387.86950857 248.31015914 391.97326039 253 396 C254.11777215 396.97328729 255.23505974 397.94713179 256.3515625 398.921875 C264.37571225 405.87242211 272.57566047 412.54126447 281 419 C281.61568848 419.47405273 282.23137695 419.94810547 282.86572266 420.43652344 C305.01434327 437.44421005 328.34727398 452.86902244 353 466 C354.23831511 466.66367381 355.47659374 467.32741568 356.71484375 467.99121094 C360.18226058 469.84672201 363.65845493 471.68496843 367.14001465 473.51379395 C368.53799889 474.2500306 369.9339506 474.99014066 371.32775879 475.73425293 C373.30089938 476.78557743 375.28191575 477.82034907 377.265625 478.8515625 C378.41836914 479.45822754 379.57111328 480.06489258 380.75878906 480.68994141 C385.75515987 482.70941457 388.5551132 482.58939838 393.54492188 480.55395508 C394.85942093 479.88861159 396.16707439 479.20962569 397.46875 478.51953125 C398.1774675 478.1554567 398.886185 477.79138214 399.61637878 477.41627502 C401.91809184 476.2282784 404.20934155 475.02165797 406.5 473.8125 C408.09341275 472.98045317 409.68691922 472.14858581 411.28051758 471.31689453 C438.99220019 456.78667851 465.10819051 439.9654665 490 421 C490.64114746 420.51192871 491.28229492 420.02385742 491.94287109 419.52099609 C504.26426082 410.09378342 515.96160186 399.98113073 527.33984375 389.44140625 C529.50518706 387.45412347 531.69844755 385.52749342 533.9375 383.625 C537.72427842 380.35294493 541.22851479 376.82088234 544.75390625 373.2734375 C545.65647156 372.36791138 545.65647156 372.36791138 546.57727051 371.4440918 C548.05251367 369.96372372 549.52639396 368.48199772 551 367 C550.32063385 366.98160568 549.6412677 366.96321136 548.9413147 366.94425964 C541.83484573 366.74918025 534.72912421 366.53511877 527.62353516 366.31030273 C524.97583478 366.22748635 522.32824009 366.15242858 519.68017578 366.08081055 C515.86180399 365.97669924 512.04430978 365.85519891 508.2265625 365.73046875 C507.05324371 365.70220505 505.87992493 365.67394135 504.67105103 365.64482117 C492.69062037 365.21908314 483.91157284 362.81753784 475.27734375 354.30078125 C468.47230059 346.8603778 466.85939997 338.98254837 466.82299805 329.07958984 C466.81642685 328.29673615 466.80985565 327.51388245 466.80308533 326.70730591 C466.78343138 324.12518197 466.77170573 321.54311606 466.76171875 318.9609375 C466.75764322 318.07458241 466.7535677 317.18822731 466.74936867 316.27501297 C466.72853886 311.58096808 466.71422534 306.88695214 466.70483398 302.19287109 C466.69379233 297.36797204 466.65940953 292.54353703 466.61966228 287.7188015 C466.59339426 283.98848673 466.58513302 280.25828072 466.58155251 276.52788162 C466.57671072 274.75064596 466.56516627 272.97341437 466.54651451 271.19626999 C466.41643117 257.97752747 467.2106729 245.98642765 477 236 C487.68204775 226.6558628 500.77594387 226.57401875 514.27416992 226.78979492 C515.87706784 226.803729 517.47997993 226.81610498 519.082901 226.82705688 C522.51065284 226.85243509 525.93818674 226.88607025 529.36580467 226.92552757 C534.79220358 226.98526559 540.21841448 227.00977977 545.64509583 227.02668762 C547.50933746 227.03287173 549.37357906 227.03906592 551.23782063 227.04526997 C552.17071088 227.04833641 553.10360114 227.05140285 554.0647608 227.05456221 C566.68102912 227.09838769 579.29637561 227.16942396 591.91186523 227.31860352 C600.44807697 227.41926905 608.98301961 227.47008005 617.51984292 227.46426088 C622.02896614 227.46325043 626.53470976 227.48770508 631.04308128 227.57372093 C635.28068135 227.65431536 639.51353521 227.66931921 643.75171471 227.63502884 C645.3010169 227.63405562 646.85055531 227.65685968 648.39908218 227.7058773 C656.49688926 228.10672174 656.49688926 228.10672174 663.48789239 224.64165521 C666.65931902 220.77570078 668.79829766 216.46576564 671 212 C672.17911255 210.04890474 673.37460169 208.10744839 674.59765625 206.18359375 C714.11468266 140.96613136 745.77894022 71.53028797 772 0 C772.66 0 773.32 0 774 0 C774.23522487 6.71942353 773.34025804 12.94724352 772.1640625 19.5546875 C771.87213516 21.23134743 771.87213516 21.23134743 771.5743103 22.94187927 C770.93445303 26.58809122 770.28151082 30.23175151 769.625 33.875 C769.40102539 35.12485687 769.17705078 36.37471375 768.94628906 37.66244507 C764.80355153 60.66437085 759.94912298 83.39852584 754 106 C753.8008197 106.75851257 753.6016394 107.51702515 753.39642334 108.29852295 C742.64068416 149.07461794 728.23192171 188.52873292 711 227 C717.6 227 724.2 227 731 227 C733.34493415 255.92085455 733.34493415 255.92085455 727.46191406 264.06933594 C720.73308583 271.18061977 713.16226719 272.03145069 703.63729858 272.34140015 C698.41791192 272.42854955 693.21265487 272.27852288 688 272 C686.34231769 275.31536462 686.81928186 279.02552869 686.79467773 282.67236328 C686.77982834 284.0187941 686.77982834 284.0187941 686.76467896 285.39242554 C686.733015 288.36836075 686.70828719 291.34431194 686.68359375 294.3203125 C686.66302845 296.38012107 686.64203209 298.43992539 686.62062073 300.49972534 C686.56535628 305.92812658 686.5159663 311.35656617 686.46777344 316.78503418 C686.40877128 323.29454252 686.34251929 329.80398057 686.27747345 336.31343079 C686.17940893 346.20891102 686.09059048 356.10443579 686 366 C669.83 366 653.66 366 637 366 C636.67 361.05 636.34 356.1 636 351 C635.33355469 351.85980469 634.66710938 352.71960938 633.98046875 353.60546875 C625.4546685 364.55873209 616.64334833 375.21436278 607.2902832 385.47436523 C605.88272531 387.02656505 604.48344906 388.5863838 603.09838867 390.15869141 C596.92355208 397.14670322 590.40098908 403.75205307 583.79760742 410.33276367 C581.93356756 412.19142108 580.07496488 414.05539614 578.21679688 415.91992188 C572.31444632 421.82591671 566.39711959 427.62487829 560 433 C558.88144274 433.97238491 557.76422861 434.94631724 556.6484375 435.921875 C548.6239989 442.87267231 540.42155719 449.53726157 532 456 C531.40026367 456.46341797 530.80052734 456.92683594 530.18261719 457.40429688 C505.54190522 476.40279399 479.20590051 492.94586181 452 508 C451.19755859 508.44520996 450.39511719 508.89041992 449.56835938 509.34912109 C437.86428471 515.79017767 425.84276747 521.47386327 413.6875 527 C412.60776917 527.49132919 412.60776917 527.49132919 411.50622559 527.99258423 C409.42650465 528.93656408 407.34468047 529.87569538 405.26171875 530.8125 C404.64783798 531.09018723 404.03395721 531.36787445 403.401474 531.65397644 C388.11119426 538.48613501 388.11119426 538.48613501 378.37988281 535.08398438 C375.42288755 533.88039896 372.52489977 532.58525546 369.625 531.25 C368.54428223 530.76192871 367.46356445 530.27385742 366.35009766 529.77099609 C362.89152356 528.1985554 359.44465558 526.60268149 356 525 C354.87013672 524.47760742 353.74027344 523.95521484 352.57617188 523.41699219 C337.50161871 516.41593035 322.87150004 508.85659345 308.52197266 500.46972656 C306.23593036 499.13749281 303.93952868 497.82639218 301.63671875 496.5234375 C269.59530849 478.25210962 239.54390233 455.85768095 212.26953125 431.05078125 C210.16347582 429.14771912 208.02679531 427.28846179 205.875 425.4375 C202.41258101 422.42700317 199.19932233 419.22024074 195.984375 415.94921875 C194.13767964 414.13524043 192.23426324 412.47288556 190.25 410.8125 C184.95084301 406.24532773 180.37048922 400.99951751 175.67675781 395.82958984 C173.93433407 393.92834879 172.17026755 392.04963151 170.3984375 390.17578125 C169.79080566 389.53189453 169.18317383 388.88800781 168.55712891 388.22460938 C167.39799628 386.99813994 166.23642352 385.77396941 165.07177734 384.55273438 C164.52730957 383.97458984 163.9828418 383.39644531 163.421875 382.80078125 C162.89220123 382.24413788 162.36252747 381.68749451 161.81680298 381.11398315 C160 379 160 379 158.40527344 376.47964478 C155.75176333 372.46062704 153.71200673 369.50761264 148.97393799 368.10276794 C145.30682996 367.79686687 141.75629126 367.79741224 138.078125 367.91015625 C136.72825627 367.91399675 135.37836586 367.91296387 134.02850342 367.90733337 C130.48742731 367.90353569 126.94963871 367.95654012 123.40930176 368.0246582 C117.76082607 368.12364783 112.11150439 368.1343696 106.46230316 368.14742851 C104.51043163 368.15979322 102.55877147 368.19744295 100.60723877 368.2358551 C87.49956654 368.37057061 76.6943235 366.28713059 67 357 C61.10062132 349.327261 58.69854868 341.88542363 58.70947266 332.32348633 C58.70275543 331.47221161 58.69603821 330.62093689 58.68911743 329.74386597 C58.67017838 326.93986103 58.66621489 324.13609611 58.6640625 321.33203125 C58.65763029 319.37155562 58.65090161 317.41108094 58.64389038 315.4506073 C58.63192679 311.34261858 58.62820847 307.23471389 58.62939453 303.12670898 C58.62959733 297.88593129 58.60233115 292.64569823 58.56785011 287.40504932 C58.54550919 283.35474723 58.54155924 279.30457453 58.54261398 275.25421715 C58.54026746 273.32348446 58.53149796 271.39274769 58.51594925 269.46207619 C58.35174636 246.96133062 58.35174636 246.96133062 64.64126587 238.89509583 C66.28625755 237.00877254 66.28625755 237.00877254 65.8984375 234.19921875 C64.86149801 230.50681249 63.34123637 227.22200049 61.625 223.8125 C33.77288572 166.2675989 16.60622992 102.78990174 5.37432861 40.07983398 C4.99663483 37.98130252 4.612342 35.88407845 4.22607422 33.78710938 C3.49189568 29.79782948 2.77454015 25.80579468 2.0625 21.8125 C1.85061035 20.64275635 1.6387207 19.4730127 1.42041016 18.26782227 C0.34932198 12.07642127 -0.2189487 6.28316412 0 0 Z M141 270 C142.09646058 271.79639296 143.20245148 273.58697154 144.3125 275.375 C144.92738281 276.37273437 145.54226563 277.37046875 146.17578125 278.3984375 C147.90437775 281.19826812 147.90437775 281.19826812 151 283 C151 278.71 151 274.42 151 270 C147.7 270 144.4 270 141 270 Z M600.94799805 276.47485352 C599.27969161 279.73020997 597.75488475 283.03294147 596.28417969 286.38183594 C594.03898883 290.95929349 590.95868344 294.8973431 587.875 298.9375 C587.28146729 299.73188477 586.68793457 300.52626953 586.07641602 301.34472656 C582.05240604 306.7070829 577.89871745 311.94255474 573.57421875 317.06640625 C571.95055203 318.91731699 571.95055203 318.91731699 571 321 C584.06596245 323.09421747 584.06596245 323.09421747 596.30224609 319.54101562 C600.45178757 315.64490457 603.54374326 311.00383992 606.57568359 306.21386719 C608.56864422 303.11613545 610.82431649 300.31426017 613.125 297.4375 C614.31349796 295.87389471 615.50187718 294.3101881 616.68457031 292.7421875 C618.18795302 290.75107039 619.69973257 288.76643592 621.2109375 286.78125 C622.30773919 285.3336723 623.40409925 283.88575988 624.5 282.4375 C625.27561279 281.41837524 625.27561279 281.41837524 626.06689453 280.37866211 C626.55013184 279.73678955 627.03336914 279.09491699 627.53125 278.43359375 C628.17416992 277.58365845 628.17416992 277.58365845 628.83007812 276.71655273 C630.08032314 274.88214691 631.05061194 273.00429414 632 271 C614.54630879 268.0411671 614.54630879 268.0411671 600.94799805 276.47485352 Z M107 307 C107 312.28 107 317.56 107 323 C110.3 323 113.6 323 117 323 C115.56786488 319.06342758 113.69667846 315.71068644 111.4375 312.1875 C110.81746094 311.21167969 110.19742188 310.23585938 109.55859375 309.23046875 C109.04425781 308.49441406 108.52992188 307.75835938 108 307 C107.67 307 107.34 307 107 307 Z " fill="#040404" transform="translate(676,403)"/>
<path d="M0 0 C1.1052301 0.03287109 1.1052301 0.03287109 2.23278809 0.06640625 C86.13727821 2.61239267 170.19576943 15.31524043 338.69873047 76.83544922 C341.34627354 78.17523072 344.00257044 79.49665876 346.66015625 80.81640625 C356.37183893 85.64070857 366.06794662 90.49401203 375.6875 95.5 C376.45876221 95.89687012 377.23002441 96.29374023 378.0246582 96.70263672 C386.43446358 101.11573095 386.43446358 101.11573095 389 104 C388.58359448 109.20384901 387.28477952 114.14958596 385.91796875 119.16796875 C385.70803787 119.94792709 385.49810699 120.72788544 385.28181458 121.53147888 C384.59046156 124.08538327 383.89036381 126.63674055 383.1875 129.1875 C382.94523682 130.06903748 382.70297363 130.95057495 382.45336914 131.85882568 C377.31414963 150.47780717 371.39570759 168.77844905 365 187 C364.76603516 187.66946655 364.53207031 188.33893311 364.29101562 189.02868652 C354.57495461 216.81097374 343.01099699 243.60953052 330 270 C329.505 271.01046387 329.01 272.02092773 328.5 273.06201172 C321.83143795 286.66179728 314.83459738 300.04164574 307.4921875 313.2890625 C305.94509902 316.09974156 304.42320179 318.92295348 302.90625 321.75 C302.40746338 322.67393555 301.90867676 323.59787109 301.39477539 324.54980469 C300.44589517 326.3079912 299.50210179 328.06893565 298.56420898 329.83300781 C298.13954346 330.61514648 297.71487793 331.39728516 297.27734375 332.203125 C296.90859131 332.89051758 296.53983887 333.57791016 296.15991211 334.28613281 C295 336 295 336 292 338 C292.50491751 330.9311549 294.57462323 324.60839459 296.77716064 317.89743042 C313.20061812 267.59708148 323.56154569 215.55474857 329.375 163 C329.46076294 162.23862732 329.54652588 161.47725464 329.6348877 160.69281006 C330.17841972 155.80088853 330.64626857 150.90941837 331 146 C331.04854126 145.33645508 331.09708252 144.67291016 331.14709473 143.98925781 C331.26990124 142.07804473 331.34294031 140.16383346 331.4140625 138.25 C331.45740723 137.16203125 331.50075195 136.0740625 331.54541016 134.953125 C330.79411434 130.88523144 329.19455589 129.56942874 326 127 C322.8113329 125.09799991 322.8113329 125.09799991 319.234375 123.46875 C318.24846878 122.99970245 318.24846878 122.99970245 317.24264526 122.5211792 C315.08439496 121.50079405 312.91824372 120.49895843 310.75 119.5 C309.99869812 119.15062378 309.24739624 118.80124756 308.47332764 118.44128418 C235.13728432 84.39344246 155.20626973 64.86674806 -41.1875 50.75 C-42.11141541 50.79290161 -43.03533081 50.83580322 -43.98724365 50.88000488 C-63.74868117 51.8238574 -83.36878335 53.55983923 -103 56 C-103.80338806 56.09970093 -104.60677612 56.19940186 -105.43450928 56.30212402 C-157.21300215 62.79627477 -208.41182561 73.70850733 -258 90 C-259.18754883 90.38768555 -260.37509766 90.77537109 -261.59863281 91.17480469 C-288.63549825 100.06094539 -314.64426933 110.91184503 -340.11474609 123.56982422 C-342.05450053 124.53133052 -344.00030847 125.48071069 -345.95166016 126.41845703 C-346.86093262 126.85915527 -347.77020508 127.29985352 -348.70703125 127.75390625 C-349.51245361 128.14006104 -350.31787598 128.52621582 -351.14770508 128.92407227 C-353.16259433 129.86786085 -353.16259433 129.86786085 -354 132 C-354.40496829 195.98499057 -337.14346826 263.75814977 -317.40307617 324.13745117 C-317.17505814 324.84031754 -316.9470401 325.5431839 -316.71211243 326.26734924 C-316.0970946 328.15865217 -315.47436767 330.04744336 -314.85107422 331.93603516 C-314 335 -314 335 -314 339 C-314.66 339 -315.32 339 -316 339 C-326.52715161 320.91251449 -336.52760995 302.66580314 -346 284 C-346.74157345 282.55567414 -347.48367585 281.11161961 -348.2265625 279.66796875 C-373.74932387 229.76191215 -392.56471146 176.57730646 -407.6875 122.6875 C-408.02692627 121.48939697 -408.36635254 120.29129395 -408.71606445 119.05688477 C-409.01988037 117.94885498 -409.32369629 116.8408252 -409.63671875 115.69921875 C-409.90186279 114.73846436 -410.16700684 113.77770996 -410.44018555 112.7878418 C-411.05299977 109.73606437 -411.26839024 107.10349844 -411 104 C-407.02194739 99.89859692 -402.30944984 97.26485047 -397.3125 94.5625 C-396.15451904 93.93069824 -396.15451904 93.93069824 -394.97314453 93.28613281 C-392.32062972 91.84756823 -389.66061252 90.42352717 -387 89 C-386.02305176 88.47196777 -385.04610352 87.94393555 -384.03955078 87.39990234 C-307.32919861 46.06456837 -221.39149787 22.69444522 0 0 Z " fill="#023661" transform="translate(1074,191)"/>
<path d="M0 0 C37.4653125 -0.061875 37.4653125 -0.061875 75.6875 -0.125 C83.55682373 -0.14320801 91.42614746 -0.16141602 99.53393555 -0.18017578 C109.18713379 -0.18920898 109.18713379 -0.18920898 113.7146759 -0.19088745 C116.85830035 -0.19274117 120.00185637 -0.20019776 123.14546204 -0.21115112 C127.16931141 -0.22498339 131.1930629 -0.22896141 135.21693385 -0.22614455 C136.6849474 -0.2267326 138.15296478 -0.23063042 139.62095773 -0.23843026 C154.79458149 -0.31523334 169.47600827 0.6070062 182 10 C182.969375 10.680625 183.93875 11.36125 184.9375 12.0625 C193.14130113 19.07890886 197.16649735 29.64751964 199 40 C200.11757674 57.35095695 200.47324992 73.30111807 189.3515625 87.546875 C184.28681829 92.83036232 178.32019179 96.91845815 171 98 C171 99.32 171 100.64 171 102 C171.94875 102.061875 172.8975 102.12375 173.875 102.1875 C183.4082141 103.59340834 192.01377698 109.71215314 197.72265625 117.28515625 C204.31549567 127.50648715 205.50029081 137.87919156 205.39111328 149.8425293 C205.3750462 151.93149353 205.39103471 154.0185164 205.41015625 156.10742188 C205.43412796 171.8561384 202.28402339 184.14380772 191.41015625 195.671875 C179.72297537 206.96127501 165.76618473 208.60526898 150.1940918 208.45410156 C148.52045383 208.4528734 146.8468138 208.453415 145.17317677 208.45556259 C140.72961224 208.45645807 136.28648692 208.43343621 131.84302521 208.40512085 C127.65888734 208.38217945 123.47485116 208.38125968 119.29064941 208.37841797 C107.08954244 208.357508 94.88851552 208.30166289 82.6875 208.25 C55.400625 208.1675 28.11375 208.085 0 208 C0 139.36 0 70.72 0 0 Z " fill="#000000" transform="translate(964,347)"/>
<path d="M0 0 C3.15686669 2.60233624 4.12793351 5.47415556 5.49609375 9.2734375 C5.7252095 9.89999237 5.95432526 10.52654724 6.19038391 11.17208862 C6.68569794 12.52700026 7.17765822 13.88314163 7.66662598 15.24035645 C8.98833341 18.90032444 10.34362231 22.54778647 11.69921875 26.1953125 C11.97585358 26.94035034 12.2524884 27.68538818 12.5375061 28.45300293 C24.884167 61.56333355 39.70100676 93.92238547 55.32519531 125.60351562 C56.99349113 128.98680009 58.64920299 132.37605732 60.3046875 135.765625 C66.87146674 149.13371131 73.89171897 162.15632536 81.32324219 175.06103516 C83.07706796 178.13508213 84.7965557 181.22628644 86.5078125 184.32421875 C93.30190664 196.61625127 100.33544452 208.65852853 108.00708008 220.42553711 C109 222 109 222 110 224 C110.97147224 224.01213028 110.97147224 224.01213028 111.96257019 224.02450562 C118.76095771 224.11119459 125.55907494 224.21071848 132.35717773 224.31738281 C134.88740465 224.35544346 137.41768146 224.39033434 139.94799805 224.421875 C143.60483524 224.46802716 147.26133561 224.52593464 150.91796875 224.5859375 C152.03205612 224.59748871 153.14614349 224.60903992 154.29399109 224.62094116 C167.58353138 224.86540888 179.33545434 225.68325725 189.32421875 235.21875 C192.96659959 239.14232003 194.97189916 241.9297479 197 247 C197.33 240.4 197.66 233.8 198 227 C243.21 227 288.42 227 335 227 C335 257 335 257 329.9375 265.875 C321 271 321 271 290 271 C290 302.02 290 333.04 290 365 C266.24 365.495 266.24 365.495 242 366 C241.34 364.02 240.68 362.04 240 360 C238.83127699 358.28189529 238.83127699 358.28189529 237.390625 356.96484375 C236.88273438 356.46533203 236.37484375 355.96582031 235.8515625 355.45117188 C235.32304688 354.95166016 234.79453125 354.45214844 234.25 353.9375 C233.73695313 353.43412109 233.22390625 352.93074219 232.6953125 352.41210938 C230.15819185 349.94829749 227.56289958 347.60877038 224.82421875 345.37109375 C222.4615928 343.38753366 220.52555398 341.48458109 218.5625 339.125 C216.30764278 336.47368437 214.00526698 333.97809299 211.5 331.5625 C207.56671792 327.70948898 204.2871192 323.4061385 201 319 C200.96261719 320.19496094 200.92523437 321.38992188 200.88671875 322.62109375 C200.24406987 339.46097289 200.24406987 339.46097289 197 346 C196.59910156 346.82757812 196.19820312 347.65515625 195.78515625 348.5078125 C191.10250259 357.19861015 184.30073713 362.78051407 175 366 C158.88557975 369.9080361 140.61515631 368.21764444 124.16381836 368.24023438 C120.72950334 368.24576599 117.29557525 368.26996888 113.86138248 368.29820633 C110.52348269 368.32147043 107.18563269 368.32328522 103.84765625 368.328125 C102.02851463 368.3466452 102.02851463 368.3466452 100.17262268 368.36553955 C87.26930276 368.33212883 76.53169434 366.13133238 67 357 C61.10062132 349.327261 58.69854868 341.88542363 58.70947266 332.32348633 C58.70275543 331.47221161 58.69603821 330.62093689 58.68911743 329.74386597 C58.67017838 326.93986103 58.66621489 324.13609611 58.6640625 321.33203125 C58.65763029 319.37155562 58.65090161 317.41108094 58.64389038 315.4506073 C58.63192679 311.34261858 58.62820847 307.23471389 58.62939453 303.12670898 C58.62959733 297.88593129 58.60233115 292.64569823 58.56785011 287.40504932 C58.54550919 283.35474723 58.54155924 279.30457453 58.54261398 275.25421715 C58.54026746 273.32348446 58.53149796 271.39274769 58.51594925 269.46207619 C58.35174636 246.96133062 58.35174636 246.96133062 64.64126587 238.89509583 C66.28625755 237.00877254 66.28625755 237.00877254 65.8984375 234.19921875 C64.86149801 230.50681249 63.34123637 227.22200049 61.625 223.8125 C33.77288572 166.2675989 16.60622992 102.78990174 5.37432861 40.07983398 C4.99663483 37.98130252 4.612342 35.88407845 4.22607422 33.78710938 C3.49189568 29.79782948 2.77454015 25.80579468 2.0625 21.8125 C1.85061035 20.64275635 1.6387207 19.4730127 1.42041016 18.26782227 C0.34932198 12.07642127 -0.2189487 6.28316412 0 0 Z M141 270 C142.09646058 271.79639296 143.20245148 273.58697154 144.3125 275.375 C144.92738281 276.37273437 145.54226563 277.37046875 146.17578125 278.3984375 C147.90437775 281.19826812 147.90437775 281.19826812 151 283 C151 278.71 151 274.42 151 270 C147.7 270 144.4 270 141 270 Z M107 307 C107 312.28 107 317.56 107 323 C110.3 323 113.6 323 117 323 C115.56786488 319.06342758 113.69667846 315.71068644 111.4375 312.1875 C110.81746094 311.21167969 110.19742188 310.23585938 109.55859375 309.23046875 C109.04425781 308.49441406 108.52992188 307.75835938 108 307 C107.67 307 107.34 307 107 307 Z " fill="#030303" transform="translate(676,403)"/>
<path d="M0 0 C0.95849854 0.0316626 1.91699707 0.0633252 2.90454102 0.09594727 C3.23134198 9.97127544 3.47886424 19.84528455 3.62991142 29.72495174 C3.70247484 34.31469329 3.80057137 38.90069344 3.96069336 43.48828125 C5.16216554 78.82108686 5.16216554 78.82108686 -3.85717773 88.73657227 C-5.64915071 90.4854591 -7.46898712 92.10767644 -9.41844177 93.6781311 C-11.94691494 95.81580154 -13.78640758 98.2732115 -15.78295898 100.90844727 C-19.78135998 105.8077915 -24.01353471 110.45093848 -28.32202148 115.07641602 C-30.28527521 117.18704535 -32.16311129 119.35227135 -34.02905273 121.54907227 C-39.25330864 127.54289688 -44.94570009 133.09492331 -50.57421875 138.70507812 C-52.52841522 140.65391596 -54.47721046 142.60803999 -56.42553711 144.56274414 C-62.47806808 150.61885066 -68.52869232 156.59199886 -75.09545898 162.09594727 C-76.21412079 163.0682119 -77.33133249 164.04214773 -78.44702148 165.01782227 C-86.47146008 171.96861958 -94.6739018 178.63320883 -103.09545898 185.09594727 C-103.69519531 185.55936523 -104.29493164 186.0227832 -104.9128418 186.50024414 C-129.55355376 205.49874126 -155.88955847 222.04180907 -183.09545898 237.09594727 C-183.89790039 237.54115723 -184.7003418 237.98636719 -185.52709961 238.44506836 C-197.23117428 244.88612494 -209.25269151 250.56981054 -221.40795898 256.09594727 C-222.48768982 256.58727646 -222.48768982 256.58727646 -223.5892334 257.08853149 C-225.66895434 258.03251135 -227.75077851 258.97164265 -229.83374023 259.90844727 C-230.447621 260.18613449 -231.06150177 260.46382172 -231.69398499 260.74992371 C-246.98426472 267.58208227 -246.98426472 267.58208227 -256.71557617 264.17993164 C-259.67257144 262.97634622 -262.57055921 261.68120272 -265.47045898 260.34594727 C-266.55117676 259.85787598 -267.63189453 259.36980469 -268.74536133 258.86694336 C-272.20393543 257.29450267 -275.65080341 255.69862875 -279.09545898 254.09594727 C-280.22532227 253.57355469 -281.35518555 253.05116211 -282.51928711 252.51293945 C-297.59384028 245.51187761 -312.22395894 237.95254071 -326.57348633 229.56567383 C-328.85952863 228.23344008 -331.1559303 226.92233945 -333.45874023 225.61938477 C-365.50015049 207.34805689 -395.55155666 184.95362822 -422.82592773 160.14672852 C-424.93198316 158.24366638 -427.06866367 156.38440906 -429.22045898 154.53344727 C-432.68287798 151.52295043 -435.89613666 148.31618801 -439.11108398 145.04516602 C-440.95777935 143.2311877 -442.86119574 141.56883283 -444.84545898 139.90844727 C-450.1461159 135.33998226 -454.72794582 130.09248841 -459.4230957 124.92114258 C-461.15271377 123.03346014 -462.90338089 121.16768958 -464.66186523 119.30688477 C-484.09545898 98.73783333 -484.09545898 98.73783333 -484.09545898 96.09594727 C-482.83991211 96.05856445 -481.58436523 96.02118164 -480.29077148 95.98266602 C-467.55982047 95.52099417 -456.09401881 94.94524734 -446.09545898 86.09594727 C-442.35455833 81.53825607 -439.5593747 76.43443133 -437.09545898 71.09594727 C-433.96670238 73.37140662 -431.40647023 75.80565113 -428.91552734 78.74023438 C-425.13236641 83.10875119 -421.12775684 87.20821861 -417.03686523 91.28735352 C-416.28888168 92.03629379 -415.54089813 92.78523407 -414.77024841 93.55686951 C-413.19913434 95.12865951 -411.62677506 96.69920575 -410.05322266 98.26855469 C-407.66446053 100.6519603 -405.28108453 103.04065795 -402.89819336 105.42993164 C-401.36140448 106.96605963 -399.82430539 108.50187735 -398.28686523 110.03735352 C-397.23336632 111.09388878 -397.23336632 111.09388878 -396.15858459 112.17176819 C-391.63062841 116.67865832 -386.94591716 120.93956395 -382.09545898 125.09594727 C-380.9775919 126.06912553 -379.86029041 127.0429544 -378.74389648 128.01782227 C-370.71974673 134.96836938 -362.51979851 141.63721174 -354.09545898 148.09594727 C-353.47977051 148.57 -352.86408203 149.04405273 -352.22973633 149.5324707 C-330.08111571 166.54015732 -306.74818501 181.96496971 -282.09545898 195.09594727 C-280.85714388 195.75962108 -279.61886524 196.42336295 -278.38061523 197.0871582 C-274.9131984 198.94266927 -271.43700406 200.78091569 -267.95544434 202.60974121 C-266.5574601 203.34597786 -265.16150838 204.08608792 -263.7677002 204.8302002 C-261.7945596 205.8815247 -259.81354324 206.91629633 -257.82983398 207.94750977 C-256.10071777 208.85750732 -256.10071777 208.85750732 -254.33666992 209.78588867 C-249.34029912 211.80536184 -246.54034578 211.68534565 -241.55053711 209.64990234 C-240.23603806 208.98455886 -238.92838459 208.30557295 -237.62670898 207.61547852 C-236.91799149 207.25140396 -236.20927399 206.88732941 -235.4790802 206.51222229 C-233.17736714 205.32422566 -230.88611743 204.11760524 -228.59545898 202.90844727 C-227.00204624 202.07640044 -225.40853977 201.24453307 -223.81494141 200.4128418 C-196.1032588 185.88262578 -169.98726848 169.06141376 -145.09545898 150.09594727 C-144.45431152 149.60787598 -143.81316406 149.11980469 -143.15258789 148.61694336 C-130.828328 139.18753469 -119.12773529 129.07279791 -107.74780273 118.52954102 C-105.00087739 116.00916622 -102.2099765 113.58210823 -99.29077148 111.26391602 C-97.31581102 109.3135547 -96.15858422 107.66417289 -94.71264648 105.33422852 C-90.83445948 99.74577287 -86.91034902 94.97899513 -79.87768555 93.68920898 C-67.05536968 92.2788047 -53.93013712 93.22939985 -41.09545898 94.09594727 C-41.19906738 92.85208252 -41.30267578 91.60821777 -41.40942383 90.32666016 C-44.51783881 50.54709078 -44.51783881 50.54709078 -37.66577148 41.58178711 C-35.20737639 39.07047532 -32.67320327 36.76812005 -29.90649414 34.60083008 C-27.1004971 32.26918195 -25.09064205 29.47868696 -22.97045898 26.53344727 C-22.1931543 25.51250977 -21.41584961 24.49157227 -20.61499023 23.43969727 C-19.77438744 22.32568628 -18.93460392 21.21105681 -18.09545898 20.09594727 C-17.5867627 19.42047852 -17.07806641 18.74500977 -16.55395508 18.04907227 C-13.91822689 14.54631787 -11.28718558 11.04010282 -8.66186523 7.52954102 C-8.2069873 6.93125488 -7.75210937 6.33296875 -7.28344727 5.71655273 C-5.98430388 3.99749004 -5.98430388 3.99749004 -4.62280273 1.63110352 C-3.09545898 0.09594727 -3.09545898 0.09594727 0 0 Z " fill="#003C6B" transform="translate(1311.095458984375,673.904052734375)"/>
<path d="M0 0 C18.088125 -0.0825 36.17625 -0.165 54.8125 -0.25 C63.35475464 -0.30462402 63.35475464 -0.30462402 72.06958008 -0.36035156 C79.0657959 -0.37841797 79.0657959 -0.37841797 82.34916687 -0.3817749 C84.6245487 -0.38788571 86.89991821 -0.40188831 89.17521667 -0.42230225 C92.63762646 -0.45179292 96.09925011 -0.45561704 99.56176758 -0.45410156 C101.06223114 -0.47569021 101.06223114 -0.47569021 102.59300709 -0.497715 C112.79002225 -0.43839557 121.5717978 2.48510902 128.98828125 9.58203125 C135.92628284 17.921105 138.14330635 26.64363156 138.203125 37.23046875 C138.20882507 38.02093094 138.21452515 38.81139313 138.22039795 39.62580872 C138.22981888 41.29585444 138.23637034 42.9659185 138.24023438 44.63598633 C138.24990225 47.16196093 138.28093696 49.68710793 138.3125 52.21289062 C138.3941595 64.48169977 137.72154608 74.59519915 129 84 C126.74815143 86.11619504 124.41812516 88.07892935 122 90 C122.78503906 90.845625 123.57007813 91.69125 124.37890625 92.5625 C125.44016161 93.70828013 126.50135624 94.85411651 127.5625 96 C128.07619141 96.55300781 128.58988281 97.10601563 129.11914062 97.67578125 C130.19000827 98.83311647 131.24962001 100.0009454 132.29907227 101.17773438 C133.98301723 103.04186858 133.98301723 103.04186858 135.94897461 104.71289062 C140.33488017 108.85362134 141.46598918 111.85060263 141.68359375 117.90625 C141.63743462 120.43840817 141.55448104 122.97012429 141.4375 125.5 C141.40591797 126.799375 141.37433594 128.09875 141.34179688 129.4375 C141.25970491 132.62735906 141.14491621 135.8124804 141 139 C135.05976455 139.32346301 129.1247298 139.55814187 123.17773438 139.71411133 C121.15957317 139.77915603 119.14201693 139.86763476 117.12597656 139.98071289 C100.90891684 140.86695676 100.90891684 140.86695676 96.17718506 137.83010864 C92.5834854 134.42807202 90.36787758 130.3004342 88 126 C86.78204332 124.35527897 85.53257683 122.73305922 84.2421875 121.14453125 C83.40324951 120.06461914 83.40324951 120.06461914 82.54736328 118.96289062 C81.71954346 117.89844727 81.71954346 117.89844727 80.875 116.8125 C79.98723877 115.6687793 79.98723877 115.6687793 79.08154297 114.50195312 C75.21074365 109.52445469 71.28471392 104.60250046 67.2578125 99.75 C66 98 66 98 66 96 C60.39 96 54.78 96 49 96 C49 110.19 49 124.38 49 139 C32.83 139 16.66 139 0 139 C0 93.13 0 47.26 0 0 Z M49 44 C49 46.31 49 48.62 49 51 C62.53 51 76.06 51 90 51 C90 49.02 90 47.04 90 45 C88.78928204 43.56075132 88.78928204 43.56075132 85.21459961 43.88647461 C83.52717271 43.88663378 81.83974095 43.89233083 80.15234375 43.90234375 C79.2659169 43.9037587 78.37949005 43.90517365 77.46620178 43.90663147 C74.62326746 43.91224785 71.78041069 43.92480309 68.9375 43.9375 C67.01497509 43.94251289 65.09244896 43.94707616 63.16992188 43.95117188 C58.44658451 43.96222259 53.72330542 43.97949817 49 44 Z " fill="#FAFAFA" transform="translate(588,630)"/>
<path d="M0 0 C18.43875 -0.0825 36.8775 -0.165 55.875 -0.25 C64.58753174 -0.30462402 64.58753174 -0.30462402 73.47607422 -0.36035156 C80.60375977 -0.37841797 80.60375977 -0.37841797 83.94729614 -0.3817749 C86.26772129 -0.38789155 88.58813422 -0.40190647 90.90847778 -0.42230225 C94.43644074 -0.45174563 97.9636311 -0.45561859 101.49169922 -0.45410156 C102.51434309 -0.468494 103.53698696 -0.48288643 104.59062004 -0.497715 C114.73461603 -0.43964905 123.63221848 2.90157823 131 10 C140.50007627 21.02956701 140.44679825 34.00902644 140.36328125 47.8203125 C140.36276137 49.53180948 140.363284 51.24330707 140.36479187 52.95480347 C140.36470267 56.52350908 140.35437786 60.09198635 140.33618164 63.66064453 C140.31346188 68.21417323 140.31296233 72.76737017 140.31969929 77.32094002 C140.32305419 80.84873355 140.31638119 84.37645266 140.30657005 87.90423203 C140.30274657 89.58260584 140.30155787 91.26098797 140.3031559 92.93936539 C140.30537307 106.85873103 139.64891948 118.92134101 129.875 129.75 C123.24090311 136.00583698 114.24956385 139.13057093 105.22270203 139.12025452 C104.29219623 139.12163201 103.36169043 139.12300951 102.40298748 139.12442875 C101.39045815 139.12083064 100.37792883 139.11723253 99.3347168 139.11352539 C97.69830215 139.11370619 97.69830215 139.11370619 96.02882862 139.11389065 C92.50227116 139.11314508 88.97576674 139.10553299 85.44921875 139.09765625 C83.27006048 139.09618573 81.09090186 139.0951657 78.91174316 139.09460449 C70.83699005 139.08936436 62.7622445 139.07540315 54.6875 139.0625 C36.640625 139.041875 18.59375 139.02125 0 139 C0 93.13 0 47.26 0 0 Z M49 44 C49 60.5 49 77 49 94 C62.86 94 76.72 94 91 94 C91 77.5 91 61 91 44 C77.14 44 63.28 44 49 44 Z " fill="#FAFAFA" transform="translate(1542,630)"/>
<path d="M0 0 C41.58 0 83.16 0 126 0 C126 29 126 29 120.52734375 38.25390625 C109.1951351 47.4222693 94.55179821 45.67078285 80.765625 45.02996826 C77.06576112 44.87467976 73.36431321 44.80763504 69.66210938 44.73242188 C62.43713818 44.57299124 55.21991407 44.31812462 48 44 C48 45.32 48 46.64 48 48 C66.81 48 85.62 48 105 48 C105 62.19 105 76.38 105 91 C86.19 91 67.38 91 48 91 C48 92.32 48 93.64 48 95 C73.74 95 99.48 95 126 95 C126 109.52 126 124.04 126 139 C84.42 139 42.84 139 0 139 C0 93.13 0 47.26 0 0 Z " fill="#FDFDFD" transform="translate(1410,630)"/>
<path d="M0 0 C1.82406304 -0.00456824 3.64812436 -0.00987571 5.47218323 -0.0158844 C9.28401712 -0.02478882 13.0956412 -0.02242281 16.9074707 -0.01245117 C21.77053217 -0.00096347 26.63286727 -0.02118356 31.4958334 -0.05036831 C35.259593 -0.06879303 39.02318053 -0.06842542 42.78697395 -0.06273079 C44.57897015 -0.06257835 46.37097859 -0.06855817 48.16293144 -0.08102226 C69.39338851 -0.20791375 69.39338851 -0.20791375 78.19140625 7.68359375 C84.64245394 14.75844558 86.45964882 21.98181155 86.4934082 31.34814453 C86.4999794 32.14221207 86.5065506 32.9362796 86.51332092 33.75440979 C86.53301022 36.379243 86.54470869 39.00401901 86.5546875 41.62890625 C86.55876303 42.52845913 86.56283855 43.42801201 86.56703758 44.35482407 C86.58788281 49.119034 86.60218948 53.88321529 86.61157227 58.64746094 C86.62261479 63.54983316 86.65699414 68.45174876 86.69674397 73.35396004 C86.72298889 77.13913776 86.73127122 80.92420815 86.73485374 84.70946884 C86.73970179 86.51544136 86.75126451 88.32140967 86.76989174 90.12729263 C86.884939 102.02328891 86.72459257 112.65671157 78.16015625 121.8984375 C71.12633667 127.75498643 63.5702078 129.580886 54.66137695 129.59472656 C53.89496384 129.59969147 53.12855072 129.60465637 52.33891296 129.60977173 C49.80666194 129.62435963 47.27447362 129.6311908 44.7421875 129.63671875 C42.97584533 129.64247431 41.20950317 129.64823199 39.44316101 129.6539917 C35.73855296 129.66449303 32.03396654 129.67034093 28.3293457 129.67382812 C23.59958856 129.67930179 18.87012089 129.7033093 14.14045429 129.73180008 C10.48999722 129.75049636 6.83960879 129.75563584 3.18910789 129.757164 C1.44651907 129.76017683 -0.29606895 129.7681587 -2.03861046 129.78134918 C-23.64728221 129.93320396 -23.64728221 129.93320396 -31.99609375 122.30859375 C-32.79660156 121.60476563 -33.59710937 120.9009375 -34.421875 120.17578125 C-39.57246115 113.93102913 -41.28411595 107.45602693 -41.21704102 99.49243164 C-41.22565659 98.64886612 -41.23427216 97.8053006 -41.2431488 96.93617249 C-41.26566248 94.17587701 -41.25909699 91.41660896 -41.25 88.65625 C-41.25524213 86.72008466 -41.26152076 84.78392188 -41.26878357 82.84776306 C-41.27916091 78.8004856 -41.27466481 74.75356032 -41.26000977 70.70629883 C-41.24282781 65.54042812 -41.26632417 60.37567035 -41.30149937 55.20992374 C-41.32354477 51.2145207 -41.32201461 47.21938103 -41.31373405 43.22393608 C-41.31291841 41.32029436 -41.31970715 39.41663255 -41.33450508 37.51304817 C-41.47095458 16.78542793 -41.47095458 16.78542793 -33.75245667 8.31410217 C-24.41013513 -1.02383039 -12.2673373 -0.02694837 0 0 Z M34.31640625 38.43359375 C35.41286683 40.22998671 36.51885773 42.02056529 37.62890625 43.80859375 C38.24378906 44.80632813 38.85867188 45.8040625 39.4921875 46.83203125 C41.220784 49.63186187 41.220784 49.63186187 44.31640625 51.43359375 C44.31640625 47.14359375 44.31640625 42.85359375 44.31640625 38.43359375 C41.01640625 38.43359375 37.71640625 38.43359375 34.31640625 38.43359375 Z M0.31640625 75.43359375 C0.31640625 80.71359375 0.31640625 85.99359375 0.31640625 91.43359375 C3.61640625 91.43359375 6.91640625 91.43359375 10.31640625 91.43359375 C8.88427113 87.49702133 7.01308471 84.14428019 4.75390625 80.62109375 C4.13386719 79.64527344 3.51382813 78.66945313 2.875 77.6640625 C2.36066406 76.92800781 1.84632813 76.19195313 1.31640625 75.43359375 C0.98640625 75.43359375 0.65640625 75.43359375 0.31640625 75.43359375 Z " fill="#FCFCFC" transform="translate(782.68359375,634.56640625)"/>
<path d="M0 0 C17.77875 -0.0825 35.5575 -0.165 53.875 -0.25 C62.27428955 -0.30462402 62.27428955 -0.30462402 70.84326172 -0.36035156 C77.71704102 -0.37841797 77.71704102 -0.37841797 80.94192505 -0.3817749 C83.17901803 -0.38788977 85.41609838 -0.40190095 87.65310669 -0.42230225 C91.0552639 -0.45176021 94.45662029 -0.45561813 97.85888672 -0.45410156 C98.84405714 -0.468494 99.82922756 -0.48288643 100.84425163 -0.497715 C110.86735789 -0.4382668 119.731152 2.99689483 127 10 C136.59718615 21.14231136 136.48586561 34.16088836 136.39111328 48.11499023 C136.37505385 50.92806648 136.39101163 53.73970215 136.41015625 56.55273438 C136.42792598 70.53024707 135.93202267 83.20181256 126 94 C116.35772659 102.3226192 106.36522534 103.4442528 93.99609375 103.29296875 C92.67706558 103.28872391 91.35803741 103.28447906 89.9990387 103.28010559 C86.52194615 103.26874678 83.04524004 103.23935931 79.56829834 103.20599365 C76.00847695 103.1750972 72.4485902 103.16139344 68.88867188 103.14648438 C61.92544192 103.11607726 54.96326789 103.05733706 48 103 C48 114.88 48 126.76 48 139 C32.16 139 16.32 139 0 139 C0 93.13 0 47.26 0 0 Z M48 44 C48 48.62 48 53.24 48 58 C60.87 58 73.74 58 87 58 C87 53.38 87 48.76 87 44 C74.13 44 61.26 44 48 44 Z " fill="#FDFDFD" transform="translate(444,630)"/>
<path d="M0 0 C36.63 0 73.26 0 111 0 C111 20 111 20 107.48461914 25.69506836 C101.12351355 30.62702858 93.88578296 30.1302096 86.24609375 29.87890625 C84.73441889 29.86209021 83.2226945 29.84929319 81.71095276 29.84031677 C77.75915693 29.8061838 73.81040631 29.71799498 69.85980225 29.61798096 C65.81776113 29.52540114 61.77522084 29.48470095 57.73242188 29.43945312 C49.8200709 29.34333868 41.91076671 29.1852379 34 29 C34 35.27 34 41.54 34 48 C52.81 48 71.62 48 91 48 C91 57.57 91 67.14 91 77 C72.19 77 53.38 77 34 77 C34 82.94 34 88.88 34 95 C59.74 95 85.48 95 112 95 C112 104.9 112 114.8 112 125 C75.04 125 38.08 125 0 125 C0 83.75 0 42.5 0 0 Z " fill="#FDFDFD" transform="translate(1022,637)"/>
<path d="M0 0 C0.92702728 -0.00014603 1.85405457 -0.00029205 2.80917358 -0.0004425 C5.87711924 0.00025485 8.94500439 0.00803902 12.01293945 0.01586914 C14.1385749 0.01773395 16.26421077 0.01915756 18.3898468 0.02015686 C23.98761174 0.0239771 29.58535077 0.0338032 35.18310547 0.04486084 C40.89395802 0.05508555 46.60481476 0.05965676 52.31567383 0.06469727 C63.52336751 0.07542588 74.73104195 0.09249642 85.9387207 0.11352539 C87.51968968 16.82315131 87.51968968 16.82315131 84.25035095 23.62742615 C79.71476302 28.75768051 75.57144021 30.66069778 68.79248047 31.32470703 C66.05879694 31.35815053 63.35978022 31.34034384 60.63012695 31.27368164 C59.17185918 31.27493287 57.71358894 31.28074649 56.25535583 31.2908783 C52.44637085 31.30591724 48.6403464 31.26257933 44.83184814 31.20544434 C40.94630695 31.15639809 37.06085011 31.15830757 33.17504883 31.15844727 C28.81129569 31.15847477 24.44835967 31.15438693 20.08485413 31.10426331 C18.79598801 31.09193161 17.50712189 31.07959991 16.17919922 31.06689453 C14.47571068 31.04496788 14.47571068 31.04496788 12.73780823 31.02259827 C9.85476034 30.98303455 9.85476034 30.98303455 6.9387207 32.11352539 C6.89242902 39.77159754 6.85686767 47.42965523 6.83509636 55.08783531 C6.82464846 58.64364938 6.81047112 62.19936789 6.7878418 65.75512695 C6.76200238 69.84074839 6.75225626 73.92626908 6.7434082 78.01196289 C6.73308563 79.2921933 6.72276306 80.57242371 6.71212769 81.89144897 C6.71197662 83.07252228 6.71182556 84.25359558 6.71166992 85.47045898 C6.70500809 87.03599014 6.70500809 87.03599014 6.69821167 88.63314819 C6.69053068 91.28904307 6.69053068 91.28904307 8.9387207 93.11352539 C11.40582713 93.3306814 13.76421853 93.42488799 16.23413086 93.43237305 C16.98544785 93.44241867 17.73676483 93.45246429 18.510849 93.46281433 C20.99981912 93.4937609 23.48868113 93.51071304 25.9777832 93.52758789 C27.70129331 93.54629034 29.42479418 93.56586305 31.14828491 93.58627319 C35.68890952 93.63769804 40.22956385 93.67726817 44.77032471 93.7144165 C49.40205296 93.75439143 54.03365648 93.80551339 58.6652832 93.85571289 C67.75635032 93.95259475 76.84746848 94.03593022 85.9387207 94.11352539 C85.9387207 104.34352539 85.9387207 114.57352539 85.9387207 125.11352539 C73.96847512 125.20404291 61.99845839 125.27736636 50.02794743 125.32077408 C44.46902267 125.34161193 38.91034505 125.36986029 33.3515625 125.4152832 C27.9828646 125.45887626 22.61440382 125.48269108 17.24554253 125.49303436 C15.20149442 125.50040157 13.15745868 125.51478793 11.11351204 125.53644562 C8.24124654 125.5656584 5.36994973 125.56947392 2.49755859 125.56762695 C1.66029739 125.58200806 0.82303619 125.59638916 -0.03959656 125.61120605 C-8.92198343 125.54976195 -15.88774698 122.02785021 -22.3347168 116.04321289 C-28.24572225 109.43679504 -29.20551163 102.04472028 -29.23828125 93.45263672 C-29.24485245 92.69743744 -29.25142365 91.94223816 -29.25819397 91.16415405 C-29.27783975 88.6746204 -29.28957095 86.18514687 -29.29956055 83.69555664 C-29.30363607 82.84105108 -29.3077116 81.98654552 -29.31191063 81.10614586 C-29.33273572 76.58183411 -29.34705196 72.05755236 -29.35644531 67.53320312 C-29.36749343 62.88083255 -29.40188498 58.22894238 -29.44161701 53.57674122 C-29.46787015 49.98114688 -29.4761449 46.38566548 -29.47972679 42.78998375 C-29.48457144 41.0761154 -29.4961243 39.36225138 -29.51476479 37.64847755 C-29.62282265 27.05419719 -29.37489312 17.64500339 -22.8112793 8.80102539 C-15.80866914 1.95756546 -9.69135864 -0.03970569 0 0 Z " fill="#FCFCFC" transform="translate(1178.061279296875,636.886474609375)"/>
<path d="M0 0 C41.25 0 82.5 0 125 0 C125 20 125 20 120.5625 25.625 C119.06134197 26.77612275 117.54465496 27.9079377 116 29 C115.67 29.66 115.34 30.32 115 31 C103.45 31 91.9 31 80 31 C80 62.02 80 93.04 80 125 C68.45 125 56.9 125 45 125 C45 93.98 45 62.96 45 31 C30.15 31 15.3 31 0 31 C0 20.77 0 10.54 0 0 Z " fill="#FAFAFA" transform="translate(1275,637)"/>
<path d="M0 0 C41.25 0 82.5 0 125 0 C125 20 125 20 120.5625 25.625 C119.06134197 26.77612275 117.54465496 27.9079377 116 29 C115.67 29.66 115.34 30.32 115 31 C103.45 31 91.9 31 80 31 C80 62.02 80 93.04 80 125 C68.45 125 56.9 125 45 125 C45 93.98 45 62.96 45 31 C30.15 31 15.3 31 0 31 C0 20.77 0 10.54 0 0 Z " fill="#FAFAFA" transform="translate(880,637)"/>
<path d="M0 0 C3.02893791 2.82040322 4.08515407 5.35536015 5.49609375 9.2734375 C5.7252095 9.89999237 5.95432526 10.52654724 6.19038391 11.17208862 C6.68569794 12.52700026 7.17765822 13.88314163 7.66662598 15.24035645 C8.98833341 18.90032444 10.34362231 22.54778647 11.69921875 26.1953125 C11.97585358 26.94035034 12.2524884 27.68538818 12.5375061 28.45300293 C24.884167 61.56333355 39.70100676 93.92238547 55.32519531 125.60351562 C56.99349113 128.98680009 58.64920299 132.37605732 60.3046875 135.765625 C66.87146674 149.13371131 73.89171897 162.15632536 81.32324219 175.06103516 C83.07706796 178.13508213 84.7965557 181.22628644 86.5078125 184.32421875 C92.50136526 195.16707064 98.60509201 205.86107144 105.35766602 216.25292969 C106.05653931 217.3304248 106.05653931 217.3304248 106.76953125 218.4296875 C107.17792236 219.05085449 107.58631348 219.67202148 108.00708008 220.31201172 C109 222 109 222 110 225 C108.94256592 225.05945801 108.94256592 225.05945801 107.86376953 225.12011719 C104.61621689 225.31268296 101.37088495 225.5311763 98.125 225.75 C97.01640625 225.811875 95.9078125 225.87375 94.765625 225.9375 C84.41635834 226.66803647 76.72977202 229.04320518 69 236 C68.34 236 67.68 236 67 236 C58.37613457 217.22712832 50.23786756 198.359638 43 179 C42.76301392 178.36894348 42.52602783 177.73788696 42.28186035 177.08770752 C33.16505622 152.78054866 25.66903636 128.08460879 19 103 C18.79159485 102.21661255 18.5831897 101.4332251 18.36846924 100.62609863 C12.65573569 79.01858839 8.39834083 57.17787111 4.4375 35.1875 C4.21318298 33.95006042 3.98886597 32.71262085 3.75775146 31.43768311 C3.11881243 27.89113755 2.49241412 24.34263904 1.87109375 20.79296875 C1.68096207 19.73515701 1.49083038 18.67734528 1.29493713 17.58747864 C0.27211414 11.6288028 -0.18789199 6.0458857 0 0 Z " fill="#043055" transform="translate(676,403)"/>
<path d="M0 0 C0.66 0 1.32 0 2 0 C2.23522487 6.71942353 1.34025804 12.94724352 0.1640625 19.5546875 C-0.12786484 21.23134743 -0.12786484 21.23134743 -0.4256897 22.94187927 C-1.06554697 26.58809122 -1.71848918 30.23175151 -2.375 33.875 C-2.59897461 35.12485687 -2.82294922 36.37471375 -3.05371094 37.66244507 C-7.19644847 60.66437085 -12.05087702 83.39852584 -18 106 C-18.1991803 106.75851257 -18.3983606 107.51702515 -18.60357666 108.29852295 C-29.38563815 149.17440848 -44.06862729 188.29971952 -61 227 C-77.17 227 -93.34 227 -110 227 C-103 215 -103 215 -99.4375 209.25 C-88.29764641 191.20687806 -77.92153605 172.73684813 -68 154 C-67.42169434 152.91187012 -66.84338867 151.82374023 -66.24755859 150.70263672 C-40.50686508 102.12170796 -18.91463514 51.59857419 0 0 Z " fill="#043055" transform="translate(1448,403)"/>
<path d="M0 0 C41.58 0 83.16 0 126 0 C126 29 126 29 120.52734375 38.25390625 C109.1951351 47.4222693 94.55179821 45.67078285 80.765625 45.02996826 C77.06576112 44.87467976 73.36431321 44.80763504 69.66210938 44.73242188 C62.43713818 44.57299124 55.21991407 44.31812462 48 44 C48 45.32 48 46.64 48 48 C66.81 48 85.62 48 105 48 C105 62.19 105 76.38 105 91 C86.19 91 67.38 91 48 91 C48 92.32 48 93.64 48 95 C73.74 95 99.48 95 126 95 C126 109.52 126 124.04 126 139 C84.42 139 42.84 139 0 139 C0 93.13 0 47.26 0 0 Z M7 7 C7 48.25 7 89.5 7 132 C43.96 132 80.92 132 119 132 C119 122.1 119 112.2 119 102 C93.26 102 67.52 102 41 102 C41 96.06 41 90.12 41 84 C59.81 84 78.62 84 98 84 C98 74.43 98 64.86 98 55 C79.19 55 60.38 55 41 55 C41 48.73 41 42.46 41 36 C43.01279053 36.04713135 45.02558105 36.0942627 47.09936523 36.14282227 C53.77646787 36.29246774 60.45364791 36.39156423 67.13198757 36.46630955 C71.17833648 36.51312949 75.22295662 36.57654235 79.26831055 36.67895508 C83.17828698 36.77731224 87.08660963 36.83067175 90.99772835 36.85389519 C92.48378589 36.87042625 93.96976064 36.90271087 95.45510674 36.95157051 C102.43934127 37.17201181 108.73274356 37.15467387 114.48461914 32.69506836 C119.75086365 25.27896894 119.75086365 25.27896894 118 7 C81.37 7 44.74 7 7 7 Z " fill="#070707" transform="translate(1410,630)"/>
<path d="M0 0 C41.25 0 82.5 0 125 0 C125 29 125 29 120.0546875 37.7578125 C108.99892026 46.55172966 93.75241751 44.5306282 80.37072754 43.96130371 C76.60373378 43.81653747 72.83539575 43.75382648 69.06640625 43.68359375 C61.70729903 43.53466444 54.35479354 43.29667509 47 43 C47 44.65 47 46.3 47 48 C65.81 48 84.62 48 104 48 C104 61.86 104 75.72 104 90 C85.19 90 66.38 90 47 90 C47.33 91.65 47.66 93.3 48 95 C86.115 95.495 86.115 95.495 125 96 C125 109.86 125 123.72 125 138 C83.75 138 42.5 138 0 138 C0 92.46 0 46.92 0 0 Z M7 7 C7 48.25 7 89.5 7 132 C43.96 132 80.92 132 119 132 C119 122.1 119 112.2 119 102 C93.26 102 67.52 102 41 102 C41 96.06 41 90.12 41 84 C59.81 84 78.62 84 98 84 C98 74.43 98 64.86 98 55 C79.19 55 60.38 55 41 55 C41 48.73 41 42.46 41 36 C43.01279053 36.04713135 45.02558105 36.0942627 47.09936523 36.14282227 C53.77646787 36.29246774 60.45364791 36.39156423 67.13198757 36.46630955 C71.17833648 36.51312949 75.22295662 36.57654235 79.26831055 36.67895508 C83.17828698 36.77731224 87.08660963 36.83067175 90.99772835 36.85389519 C92.48378589 36.87042625 93.96976064 36.90271087 95.45510674 36.95157051 C102.43934127 37.17201181 108.73274356 37.15467387 114.48461914 32.69506836 C119.75086365 25.27896894 119.75086365 25.27896894 118 7 C81.37 7 44.74 7 7 7 Z " fill="#070707" transform="translate(1015,630)"/>
<path d="M0 0 C18.088125 -0.0825 36.17625 -0.165 54.8125 -0.25 C63.35475464 -0.30462402 63.35475464 -0.30462402 72.06958008 -0.36035156 C79.0657959 -0.37841797 79.0657959 -0.37841797 82.34916687 -0.3817749 C84.6245487 -0.38788571 86.89991821 -0.40188831 89.17521667 -0.42230225 C92.63762646 -0.45179292 96.09925011 -0.45561704 99.56176758 -0.45410156 C101.06223114 -0.47569021 101.06223114 -0.47569021 102.59300709 -0.497715 C112.79002225 -0.43839557 121.5717978 2.48510902 128.98828125 9.58203125 C135.92628284 17.921105 138.14330635 26.64363156 138.203125 37.23046875 C138.20882507 38.02093094 138.21452515 38.81139313 138.22039795 39.62580872 C138.22981888 41.29585444 138.23637034 42.9659185 138.24023438 44.63598633 C138.24990225 47.16196093 138.28093696 49.68710793 138.3125 52.21289062 C138.3941595 64.48169977 137.72154608 74.59519915 129 84 C126.74815143 86.11619504 124.41812516 88.07892935 122 90 C122.78503906 90.845625 123.57007813 91.69125 124.37890625 92.5625 C125.44016161 93.70828013 126.50135624 94.85411651 127.5625 96 C128.07619141 96.55300781 128.58988281 97.10601563 129.11914062 97.67578125 C130.19000827 98.83311647 131.24962001 100.0009454 132.29907227 101.17773438 C133.98301723 103.04186858 133.98301723 103.04186858 135.94897461 104.71289062 C140.33488017 108.85362134 141.46598918 111.85060263 141.68359375 117.90625 C141.63743462 120.43840817 141.55448104 122.97012429 141.4375 125.5 C141.40591797 126.799375 141.37433594 128.09875 141.34179688 129.4375 C141.25970491 132.62735906 141.14491621 135.8124804 141 139 C135.05976455 139.32346301 129.1247298 139.55814187 123.17773438 139.71411133 C121.15957317 139.77915603 119.14201693 139.86763476 117.12597656 139.98071289 C100.90891684 140.86695676 100.90891684 140.86695676 96.17718506 137.83010864 C92.5834854 134.42807202 90.36787758 130.3004342 88 126 C86.78204332 124.35527897 85.53257683 122.73305922 84.2421875 121.14453125 C83.40324951 120.06461914 83.40324951 120.06461914 82.54736328 118.96289062 C81.71954346 117.89844727 81.71954346 117.89844727 80.875 116.8125 C79.98723877 115.6687793 79.98723877 115.6687793 79.08154297 114.50195312 C75.21074365 109.52445469 71.28471392 104.60250046 67.2578125 99.75 C66 98 66 98 66 96 C60.39 96 54.78 96 49 96 C49 110.19 49 124.38 49 139 C32.83 139 16.66 139 0 139 C0 93.13 0 47.26 0 0 Z M7 6 C7 47.58 7 89.16 7 132 C18.55 132 30.1 132 42 132 C42 117.81 42 103.62 42 89 C67.60213603 87.99104883 67.60213603 87.99104883 73.265625 93.06640625 C76.13705261 96.35150702 78.42468264 99.97333276 80.62597656 103.73193359 C82.90393304 107.49209986 85.63062191 110.89802394 88.3125 114.375 C89.22722993 115.61052345 90.14002302 116.84748343 91.05078125 118.0859375 C91.52531738 118.69614746 91.99985352 119.30635742 92.48876953 119.93505859 C94 122 94 122 95.55419922 124.67822266 C98.41625664 129.13987411 100.32128334 131.63296028 105.63793945 132.79541016 C109.93949589 133.10554349 114.20121883 132.87503885 118.5 132.625 C120.00506 132.57476652 121.51028164 132.52915178 123.015625 132.48828125 C126.68047639 132.37879734 130.33919465 132.2066994 134 132 C135.60248041 120.61240594 135.60248041 120.61240594 131.64453125 110.296875 C129.14295728 107.50099821 126.38855268 104.9889936 123.59082031 102.49365234 C121.09660552 100.15178523 119.06207598 97.55701423 116.9375 94.875 C114.73098529 92.10555696 112.56460178 89.44476058 110 87 C110.79664063 86.64808594 111.59328125 86.29617188 112.4140625 85.93359375 C121.70880813 81.60283028 126.75480241 77.98060341 130.34040833 68.24386597 C131.40864959 64.60981431 131.48718593 61.09576935 131.50390625 57.328125 C131.51389145 56.52445496 131.52387665 55.72078491 131.53416443 54.89276123 C131.54925798 53.20199682 131.55639296 51.51114421 131.5559082 49.8203125 C131.56245053 47.26928992 131.6169626 44.7222077 131.67382812 42.171875 C131.78505518 31.39848663 130.73674472 22.38871801 123.19335938 13.98803711 C115.27901456 6.46348563 105.65905687 5.8449903 95.32275391 5.88647461 C93.8645778 5.88629381 93.8645778 5.88629381 92.37694359 5.88610935 C89.24345961 5.88685321 86.11003578 5.89445742 82.9765625 5.90234375 C81.03670277 5.9038148 79.09684263 5.90483451 77.15698242 5.90539551 C69.97964888 5.91062948 62.80232384 5.92459073 55.625 5.9375 C39.57875 5.958125 23.5325 5.97875 7 6 Z " fill="#000000" transform="translate(588,630)"/>
<path d="M0 0 C0.33 0 0.66 0 1 0 C1 4.29 1 8.58 1 13 C5.29 13 9.58 13 14 13 C12.23347063 17.41632343 10.19190807 21.24668942 7.6875 25.25 C7.25453613 25.9423877 6.82157227 26.63477539 6.37548828 27.34814453 C1.09938904 35.62164756 -4.91666967 43.31156932 -11 51 C-11.83348435 52.06238154 -12.66683249 53.12486996 -13.5 54.1875 C-17.15023364 58.80397196 -17.15023364 58.80397196 -19 61 C-19.41466019 61.52680862 -19.82932037 62.05361725 -20.25654602 62.59638977 C-22.70117587 64.56449877 -24.36737629 64.36156825 -27.48120117 64.34057617 C-29.16260445 64.34023628 -29.16260445 64.34023628 -30.87797546 64.33988953 C-32.08742325 64.32440567 -33.29687103 64.30892181 -34.54296875 64.29296875 C-35.78170242 64.28872391 -37.0204361 64.28447906 -38.29670715 64.28010559 C-41.58649001 64.26614733 -44.87583203 64.23920213 -48.16546631 64.20599365 C-51.52366647 64.17527933 -54.88193312 64.16143294 -58.24023438 64.14648438 C-64.82717482 64.11592325 -71.413021 64.05720438 -78 64 C-78 47.17 -78 30.34 -78 13 C-71.06226563 13.10054687 -71.06226563 13.10054687 -63.984375 13.203125 C-61.03095035 13.21886071 -58.07835758 13.23101397 -55.125 13.23046875 C-50.45005612 13.22994066 -45.77769431 13.24171691 -41.10351562 13.33251953 C-22.06840026 14.66151414 -22.06840026 14.66151414 -5.45465088 7.61956787 C-3.32642559 5.21330039 -1.64286809 2.76039439 0 0 Z " fill="#023964" transform="translate(1268,661)"/>
<path d="M0 0 C1.51660973 -0.01407143 1.51660973 -0.01407143 3.06385803 -0.02842712 C4.14936447 -0.01719315 5.23487091 -0.00595917 6.35327148 0.00561523 C7.47249496 0.00416 8.59171844 0.00270477 9.74485779 0.00120544 C12.10939133 0.00286465 14.47393564 0.01442821 16.83837891 0.03515625 C20.46425045 0.06412816 24.08866198 0.05576136 27.71459961 0.04272461 C30.0108307 0.04896135 32.30705716 0.05735178 34.60327148 0.06811523 C35.69080215 0.0651796 36.77833282 0.06224396 37.89881897 0.05921936 C38.90673996 0.07190353 39.91466095 0.08458771 40.953125 0.09765625 C42.2840493 0.10576073 42.2840493 0.10576073 43.64186096 0.11402893 C45.91186523 0.50170898 45.91186523 0.50170898 47.6965332 1.66540527 C49.41377342 4.26006624 49.2999241 6.18680747 49.31591797 9.28662109 C49.32860214 10.47472885 49.34128632 11.66283661 49.35435486 12.88694763 C49.35141922 14.17134232 49.34848358 15.455737 49.34545898 16.77905273 C49.35070084 18.09708389 49.35594269 19.41511505 49.36134338 20.77308655 C49.37027794 23.56317714 49.36784808 26.35298156 49.35791016 29.14306641 C49.34642423 32.71559534 49.36662256 36.28713528 49.39582729 39.85953426 C49.4186059 43.27025952 49.4117221 46.68075319 49.40795898 50.09155273 C49.42480995 52.01510841 49.42480995 52.01510841 49.44200134 53.9775238 C49.42792992 55.76441368 49.42792992 55.76441368 49.41357422 57.58740234 C49.41340805 58.63536484 49.41324188 59.68332733 49.41307068 60.76304626 C48.77507263 64.24916457 47.75027005 65.42157466 44.91186523 67.50170898 C42.64222717 68.00291443 42.64222717 68.00291443 40.13085938 68.00341797 C39.18630386 68.01279892 38.24174835 68.02217987 37.26856995 68.03184509 C36.25495895 68.02061111 35.24134796 68.00937714 34.19702148 67.99780273 C33.14912949 67.99925797 32.10123749 68.0007132 31.02159119 68.00221252 C28.80668354 68.00055342 26.59176439 67.98899093 24.37695312 67.96826172 C20.99030435 67.93934508 17.60522459 67.94764574 14.21850586 67.96069336 C12.06550347 67.95445469 9.91250602 67.94606275 7.75952148 67.93530273 C6.74793472 67.93823837 5.73634796 67.94117401 4.69410706 67.94419861 C-4.16804075 67.82558712 -4.16804075 67.82558712 -8.08813477 64.50170898 C-9.39386981 61.8902389 -9.23674028 59.93847316 -9.26513672 57.01391602 C-9.27797195 55.86577423 -9.29080719 54.71763245 -9.30403137 53.53469849 C-9.3114183 52.28889008 -9.31880524 51.04308167 -9.32641602 49.75952148 C-9.33448776 48.48446747 -9.34255951 47.20941345 -9.35087585 45.89572144 C-9.36472604 43.19387162 -9.37574004 40.49214424 -9.38330078 37.7902832 C-9.3943686 34.33102982 -9.42877309 30.87241912 -9.46847248 27.41339302 C-9.50091368 24.11216612 -9.5054152 20.81088351 -9.51391602 17.50952148 C-9.54017815 15.64688156 -9.54017815 15.64688156 -9.56697083 13.74661255 C-9.56404526 12.59216644 -9.56111969 11.43772034 -9.55810547 10.24829102 C-9.56397171 9.2328421 -9.56983795 8.21739319 -9.57588196 7.1711731 C-8.57186544 1.67614187 -5.27335828 0.0009867 0 0 Z M31.91186523 7.50170898 C33.00832582 9.29810194 34.11431672 11.08868053 35.22436523 12.87670898 C35.83924805 13.87444336 36.45413086 14.87217773 37.08764648 15.90014648 C38.81624299 18.6999771 38.81624299 18.6999771 41.91186523 20.50170898 C41.91186523 16.21170898 41.91186523 11.92170898 41.91186523 7.50170898 C38.61186523 7.50170898 35.31186523 7.50170898 31.91186523 7.50170898 Z M-2.08813477 44.50170898 C-2.08813477 49.78170898 -2.08813477 55.06170898 -2.08813477 60.50170898 C1.21186523 60.50170898 4.51186523 60.50170898 7.91186523 60.50170898 C6.47973011 56.56513657 4.60854369 53.21239543 2.34936523 49.68920898 C1.72932617 48.71338867 1.10928711 47.73756836 0.47045898 46.73217773 C-0.04387695 45.99612305 -0.55821289 45.26006836 -1.08813477 44.50170898 C-1.41813477 44.50170898 -1.74813477 44.50170898 -2.08813477 44.50170898 Z " fill="#033861" transform="translate(785.088134765625,665.498291015625)"/>
<path d="M0 0 C20.72288482 -0.12032643 20.72288482 -0.12032643 29.56640625 -0.14648438 C35.59724866 -0.16440741 41.62795424 -0.18559492 47.65869141 -0.22631836 C52.5216255 -0.25894998 57.38441282 -0.27686111 62.24744797 -0.28463173 C64.10137619 -0.2901684 65.95529652 -0.30098019 67.80916214 -0.31719017 C70.40892046 -0.33901501 73.00807474 -0.34196482 75.60791016 -0.34057617 C76.37180054 -0.351362 77.13569092 -0.36214783 77.92272949 -0.3732605 C82.69347208 -0.34574512 85.96040924 0.44811988 90 3 C93.7414793 8.11493372 93.45135368 13.41715672 93.375 19.5 C93.38660156 20.42425781 93.39820313 21.34851563 93.41015625 22.30078125 C93.38758219 27.56053735 93.13475662 31.56479849 90 36 C85.7497344 39.33098882 81.8264138 39.41272974 76.62963867 39.34057617 C75.79985504 39.34101425 74.97007141 39.34145233 74.11514282 39.34190369 C71.38250905 39.33981982 68.65049486 39.3165079 65.91796875 39.29296875 C64.01939733 39.28737136 62.12082157 39.28310194 60.22224426 39.28010559 C55.23267591 39.26866806 50.24337081 39.2392102 45.25390625 39.20599365 C39.26337372 39.16986445 33.27275301 39.15612642 27.28214264 39.13863373 C18.18791217 39.10957228 9.09425899 39.05207741 0 39 C0 26.13 0 13.26 0 0 Z " fill="#034E8B" transform="translate(1020,472)"/>
<path d="M0 0 C17.77875 -0.0825 35.5575 -0.165 53.875 -0.25 C62.27428955 -0.30462402 62.27428955 -0.30462402 70.84326172 -0.36035156 C77.71704102 -0.37841797 77.71704102 -0.37841797 80.94192505 -0.3817749 C83.17901803 -0.38788977 85.41609838 -0.40190095 87.65310669 -0.42230225 C91.0552639 -0.45176021 94.45662029 -0.45561813 97.85888672 -0.45410156 C98.84405714 -0.468494 99.82922756 -0.48288643 100.84425163 -0.497715 C110.86735789 -0.4382668 119.731152 2.99689483 127 10 C136.59718615 21.14231136 136.48586561 34.16088836 136.39111328 48.11499023 C136.37505385 50.92806648 136.39101163 53.73970215 136.41015625 56.55273438 C136.42792598 70.53024707 135.93202267 83.20181256 126 94 C116.35772659 102.3226192 106.36522534 103.4442528 93.99609375 103.29296875 C92.67706558 103.28872391 91.35803741 103.28447906 89.9990387 103.28010559 C86.52194615 103.26874678 83.04524004 103.23935931 79.56829834 103.20599365 C76.00847695 103.1750972 72.4485902 103.16139344 68.88867188 103.14648438 C61.92544192 103.11607726 54.96326789 103.05733706 48 103 C48 114.88 48 126.76 48 139 C32.16 139 16.32 139 0 139 C0 93.13 0 47.26 0 0 Z M7 7 C7 48.25 7 89.5 7 132 C18.22 132 29.44 132 41 132 C41 120.12 41 108.24 41 96 C45.56457031 96.04640625 50.12914062 96.0928125 54.83203125 96.140625 C57.74416373 96.16109156 60.65620606 96.18034913 63.56835938 96.1953125 C68.17881965 96.21911548 72.78895864 96.24710587 77.39916992 96.30175781 C81.12098877 96.34559623 84.84246254 96.369216 88.56451988 96.37950897 C89.97614655 96.38683294 91.38775687 96.40113267 92.79923439 96.42292023 C103.18420929 96.5766751 112.91596689 96.00700827 120.9375 88.75 C126.04594147 83.0535365 129.07230748 76.44994885 129.17700195 68.77319336 C129.18983719 67.94810776 129.20267242 67.12302216 129.21589661 66.27293396 C129.22328354 65.38751419 129.23067047 64.50209442 129.23828125 63.58984375 C129.25038887 62.20582115 129.25038887 62.20582115 129.26274109 60.7938385 C129.27656155 58.83954738 129.2872928 56.88523233 129.29516602 54.9309082 C129.30664985 52.9477625 129.32704418 50.96464682 129.35668945 48.98168945 C129.80935116 31.41270026 129.80935116 31.41270026 122.8125 15.625 C119.22661143 12.27817066 115.37695779 10.15838193 111 8 C110.01 7.505 110.01 7.505 109 7 C107.63153259 6.90843895 106.25870253 6.87806056 104.88717651 6.87974548 C104.02797544 6.87836799 103.16877438 6.87699049 102.28353691 6.87557125 C101.33516016 6.87916936 100.38678341 6.88276747 99.40966797 6.88647461 C98.39838396 6.88635407 97.38709995 6.88623354 96.34517097 6.88610935 C93.06082103 6.88685772 89.77652733 6.89448256 86.4921875 6.90234375 C84.46883166 6.9038134 82.44547544 6.90483397 80.42211914 6.90539551 C72.90640698 6.91064569 65.39070294 6.92460681 57.875 6.9375 C32.691875 6.9684375 32.691875 6.9684375 7 7 Z " fill="#040404" transform="translate(444,630)"/>
<path d="M0 0 C18.43875 -0.0825 36.8775 -0.165 55.875 -0.25 C64.58753174 -0.30462402 64.58753174 -0.30462402 73.47607422 -0.36035156 C80.60375977 -0.37841797 80.60375977 -0.37841797 83.94729614 -0.3817749 C86.26772129 -0.38789155 88.58813422 -0.40190647 90.90847778 -0.42230225 C94.43644074 -0.45174563 97.9636311 -0.45561859 101.49169922 -0.45410156 C102.51434309 -0.468494 103.53698696 -0.48288643 104.59062004 -0.497715 C114.73461603 -0.43964905 123.63221848 2.90157823 131 10 C140.50007627 21.02956701 140.44679825 34.00902644 140.36328125 47.8203125 C140.36276137 49.53180948 140.363284 51.24330707 140.36479187 52.95480347 C140.36470267 56.52350908 140.35437786 60.09198635 140.33618164 63.66064453 C140.31346188 68.21417323 140.31296233 72.76737017 140.31969929 77.32094002 C140.32305419 80.84873355 140.31638119 84.37645266 140.30657005 87.90423203 C140.30274657 89.58260584 140.30155787 91.26098797 140.3031559 92.93936539 C140.30537307 106.85873103 139.64891948 118.92134101 129.875 129.75 C123.24090311 136.00583698 114.24956385 139.13057093 105.22270203 139.12025452 C104.29219623 139.12163201 103.36169043 139.12300951 102.40298748 139.12442875 C101.39045815 139.12083064 100.37792883 139.11723253 99.3347168 139.11352539 C97.69830215 139.11370619 97.69830215 139.11370619 96.02882862 139.11389065 C92.50227116 139.11314508 88.97576674 139.10553299 85.44921875 139.09765625 C83.27006048 139.09618573 81.09090186 139.0951657 78.91174316 139.09460449 C70.83699005 139.08936436 62.7622445 139.07540315 54.6875 139.0625 C36.640625 139.041875 18.59375 139.02125 0 139 C0 93.13 0 47.26 0 0 Z M7 6 C7 47.58 7 89.16 7 132 C23.78875 132.0825 40.5775 132.165 57.875 132.25 C65.80442627 132.30462402 65.80442627 132.30462402 73.89404297 132.36035156 C78.6639505 132.37373553 78.6639505 132.37373553 83.43386841 132.3817749 C85.54596331 132.38788684 87.65804492 132.40189184 89.77005005 132.42230225 C92.98349979 132.45178425 96.1961023 132.45561736 99.40966797 132.45410156 C100.80310834 132.47569021 100.80310834 132.47569021 102.22469902 132.497715 C111.62700249 132.43875127 119.45092618 129.37564511 126.30859375 122.93359375 C131.92149603 116.51699645 133.14596405 109.64830822 133.17700195 101.36083984 C133.18357315 100.59603302 133.19014435 99.8312262 133.19691467 99.04324341 C133.21659945 96.515807 133.22830157 93.98842998 133.23828125 91.4609375 C133.24235678 90.59448231 133.2464323 89.72802711 133.25063133 88.8353157 C133.27147488 84.24616995 133.28578213 79.65705391 133.29516602 75.06787109 C133.30620676 70.34709334 133.34058443 65.62679001 133.38033772 60.90617943 C133.4065908 57.25997085 133.41486569 53.61387365 133.41844749 49.96757889 C133.42329364 48.22859124 133.43485084 46.4896079 133.45348549 44.75071335 C133.56351393 33.79984085 133.00320119 25.06199037 126.8125 15.6875 C118.25605324 7.51133976 108.35521218 5.68226377 96.91210938 5.77294922 C95.91992653 5.77270815 94.92774368 5.77246708 93.90549469 5.7722187 C90.71815279 5.77370237 87.53104964 5.78889161 84.34375 5.8046875 C82.36621208 5.80763087 80.3886726 5.8096695 78.41113281 5.81079102 C71.107398 5.8212443 63.80369661 5.84916684 56.5 5.875 C40.165 5.91625 23.83 5.9575 7 6 Z " fill="#000000" transform="translate(1542,630)"/>
<path d="M0 0 C19.4750552 -0.16043524 19.4750552 -0.16043524 27.7890625 -0.1953125 C33.457835 -0.21920584 39.12634858 -0.24744403 44.79492188 -0.30175781 C49.36609608 -0.34528173 53.93699255 -0.36915104 58.508358 -0.37950897 C60.25066372 -0.38688861 61.99295457 -0.40129947 63.73514175 -0.42292023 C66.1793911 -0.4520419 68.62249907 -0.45595245 71.06689453 -0.45410156 C71.78403122 -0.46848267 72.50116791 -0.48286377 73.24003601 -0.49768066 C78.2784737 -0.45651271 81.11169301 0.85291442 85 4 C87.8186307 8.11969356 87.36765055 12.55376038 87.375 17.375 C87.39949219 18.21289062 87.42398437 19.05078125 87.44921875 19.9140625 C87.47514094 25.4095669 86.84465032 28.77216195 83 33 C78.39707905 35.83566921 74.54483151 36.4223359 69.25048828 36.34057617 C68.12263664 36.34123329 68.12263664 36.34123329 66.97200012 36.34190369 C64.50450011 36.33982565 62.03769275 36.31654202 59.5703125 36.29296875 C57.85253267 36.28736927 56.13474802 36.28310084 54.41696167 36.28010559 C49.90908439 36.26868447 45.40149988 36.23924101 40.89373779 36.20599365 C35.47803802 36.16981974 30.06224002 36.15611859 24.64645386 36.13863373 C16.430766 36.10960185 8.21571976 36.05209592 0 36 C0 24.12 0 12.24 0 0 Z " fill="#024275" transform="translate(1020,392)"/>
<path d="M0 0 C14.52 0 29.04 0 44 0 C44 29.7 44 59.4 44 90 C40.05238298 88.02619149 37.61040636 85.80509958 34.625 82.6875 C30.37204094 78.30018004 30.37204094 78.30018004 25.75 74.3125 C22.73748705 71.77925048 20.32236348 69.01788115 17.77734375 66.02734375 C16.13119489 64.14964868 14.42264884 62.41872302 12.625 60.6875 C12.08875 60.13312256 11.5525 59.57874512 11 59.00756836 C9.0079934 56.94863853 9.0079934 56.94863853 6.69702148 55.06640625 C1.10728178 49.64522151 -0.52203494 45.54551674 -0.85473633 37.88972473 C-0.89626261 32.68999992 -0.75132834 27.50824834 -0.5625 22.3125 C-0.51729202 20.14656782 -0.47623859 17.98054472 -0.43945312 15.81445312 C-0.3485992 10.53886882 -0.17253117 5.2760458 0 0 Z " fill="#033862" transform="translate(875,674)"/>
<path d="M0 0 C6.75174164 3.98071434 12.11835164 9.37262308 14.453125 16.9921875 C16.092744 25.20546417 15.06045977 32.84902075 10.875 40.10546875 C6.77998617 45.64328538 1.58530021 49.43776178 -5.125 51.10546875 C-13.27468742 52.01202802 -20.28931068 51.90712369 -27.125 47.10546875 C-28.4553125 46.23921875 -28.4553125 46.23921875 -29.8125 45.35546875 C-35.67998291 39.64656646 -38.26907589 33.61801271 -38.4375 25.48046875 C-38.35102455 17.0837021 -36.58651991 11.52002791 -30.9375 5.29296875 C-22.45329005 -2.43629031 -10.70331087 -4.7495942 0 0 Z " fill="#000000" transform="translate(1256.125,421.89453125)"/>
<path d="M0 0 C12.74625 -0.12375 12.74625 -0.12375 25.75 -0.25 C29.76752441 -0.30462402 29.76752441 -0.30462402 33.86621094 -0.36035156 C35.98892413 -0.3720339 38.11164627 -0.3822268 40.234375 -0.390625 C41.33668457 -0.41108887 42.43899414 -0.43155273 43.57470703 -0.45263672 C44.62996582 -0.45312012 45.68522461 -0.45360352 46.77246094 -0.45410156 C47.68735291 -0.46298401 48.60224487 -0.47186646 49.54486084 -0.48101807 C52.86428781 0.1693338 54.01193611 1.29110733 56 4 C56.50793457 6.62477112 56.50793457 6.62477112 56.51757812 9.63891602 C56.53018677 10.77011368 56.54279541 11.90131134 56.55578613 13.06678772 C56.54768921 14.28353683 56.53959229 15.50028595 56.53125 16.75390625 C56.5350769 18.006306 56.53890381 19.25870575 56.54284668 20.54905701 C56.54556895 23.19659765 56.54020031 25.84266079 56.52148438 28.48999023 C56.49867021 31.88217131 56.51183502 35.27308819 56.53577423 38.66522312 C56.55370392 41.90316292 56.54115165 45.14094997 56.53125 48.37890625 C56.53934692 49.5976796 56.54744385 50.81645294 56.55578613 52.07215881 C56.54317749 53.20020432 56.53056885 54.32824982 56.51757812 55.49047852 C56.51280457 56.98128685 56.51280457 56.98128685 56.50793457 58.50221252 C56 61 56 61 54.29437256 62.82305908 C51.57170645 64.21970111 49.82510324 64.36280415 46.77246094 64.34057617 C45.71720215 64.34021362 44.66194336 64.33985107 43.57470703 64.33947754 C42.47239746 64.32412964 41.37008789 64.30878174 40.234375 64.29296875 C39.21617676 64.28994751 38.19797852 64.28692627 37.14892578 64.28381348 C33.34918059 64.26812957 29.54958001 64.22624557 25.75 64.1875 C17.2525 64.125625 8.755 64.06375 0 64 C0 42.88 0 21.76 0 0 Z M7 7 C7 23.5 7 40 7 57 C20.86 57 34.72 57 49 57 C49 40.5 49 24 49 7 C35.14 7 21.28 7 7 7 Z " fill="#030303" transform="translate(1584,667)"/>
<path d="M0 0 C1.51660973 -0.01407143 1.51660973 -0.01407143 3.06385803 -0.02842712 C4.14936447 -0.01719315 5.23487091 -0.00595917 6.35327148 0.00561523 C7.47249496 0.00416 8.59171844 0.00270477 9.74485779 0.00120544 C12.10939133 0.00286465 14.47393564 0.01442821 16.83837891 0.03515625 C20.46425045 0.06412816 24.08866198 0.05576136 27.71459961 0.04272461 C30.0108307 0.04896135 32.30705716 0.05735178 34.60327148 0.06811523 C35.69080215 0.0651796 36.77833282 0.06224396 37.89881897 0.05921936 C38.90673996 0.07190353 39.91466095 0.08458771 40.953125 0.09765625 C42.2840493 0.10576073 42.2840493 0.10576073 43.64186096 0.11402893 C45.91186523 0.50170898 45.91186523 0.50170898 47.6965332 1.66540527 C49.41377342 4.26006624 49.2999241 6.18680747 49.31591797 9.28662109 C49.32860214 10.47472885 49.34128632 11.66283661 49.35435486 12.88694763 C49.35141922 14.17134232 49.34848358 15.455737 49.34545898 16.77905273 C49.35070084 18.09708389 49.35594269 19.41511505 49.36134338 20.77308655 C49.37027794 23.56317714 49.36784808 26.35298156 49.35791016 29.14306641 C49.34642423 32.71559534 49.36662256 36.28713528 49.39582729 39.85953426 C49.4186059 43.27025952 49.4117221 46.68075319 49.40795898 50.09155273 C49.42480995 52.01510841 49.42480995 52.01510841 49.44200134 53.9775238 C49.42792992 55.76441368 49.42792992 55.76441368 49.41357422 57.58740234 C49.41340805 58.63536484 49.41324188 59.68332733 49.41307068 60.76304626 C48.77507263 64.24916457 47.75027005 65.42157466 44.91186523 67.50170898 C42.64222717 68.00291443 42.64222717 68.00291443 40.13085938 68.00341797 C39.18630386 68.01279892 38.24174835 68.02217987 37.26856995 68.03184509 C36.25495895 68.02061111 35.24134796 68.00937714 34.19702148 67.99780273 C33.14912949 67.99925797 32.10123749 68.0007132 31.02159119 68.00221252 C28.80668354 68.00055342 26.59176439 67.98899093 24.37695312 67.96826172 C20.99030435 67.93934508 17.60522459 67.94764574 14.21850586 67.96069336 C12.06550347 67.95445469 9.91250602 67.94606275 7.75952148 67.93530273 C6.74793472 67.93823837 5.73634796 67.94117401 4.69410706 67.94419861 C-4.16804075 67.82558712 -4.16804075 67.82558712 -8.08813477 64.50170898 C-9.39386981 61.8902389 -9.23674028 59.93847316 -9.26513672 57.01391602 C-9.27797195 55.86577423 -9.29080719 54.71763245 -9.30403137 53.53469849 C-9.3114183 52.28889008 -9.31880524 51.04308167 -9.32641602 49.75952148 C-9.33448776 48.48446747 -9.34255951 47.20941345 -9.35087585 45.89572144 C-9.36472604 43.19387162 -9.37574004 40.49214424 -9.38330078 37.7902832 C-9.3943686 34.33102982 -9.42877309 30.87241912 -9.46847248 27.41339302 C-9.50091368 24.11216612 -9.5054152 20.81088351 -9.51391602 17.50952148 C-9.54017815 15.64688156 -9.54017815 15.64688156 -9.56697083 13.74661255 C-9.56404526 12.59216644 -9.56111969 11.43772034 -9.55810547 10.24829102 C-9.56397171 9.2328421 -9.56983795 8.21739319 -9.57588196 7.1711731 C-8.57186544 1.67614187 -5.27335828 0.0009867 0 0 Z M-3.08813477 6.50170898 C-3.3707547 33.52360361 -3.3707547 33.52360361 -2.08813477 60.50170898 C6.75839066 61.4320299 15.54908983 61.65841799 24.43408203 61.63208008 C26.63442576 61.62662201 28.83457378 61.63211121 31.03491211 61.63842773 C32.43530318 61.63776852 33.83569414 61.63649061 35.23608398 61.63452148 C37.12460083 61.63282959 37.12460083 61.63282959 39.05126953 61.63110352 C41.80985758 61.8285274 41.80985758 61.8285274 42.91186523 60.50170898 C43.0132804 57.86529746 43.05152971 55.25574632 43.04467773 52.61889648 C43.04563446 51.81243683 43.04659119 51.00597717 43.0475769 50.17507935 C43.04825979 48.4550163 43.04639802 46.73495072 43.04223633 45.01489258 C43.03698639 42.43621654 43.04212613 39.85772259 43.04858398 37.27905273 C43.05219714 27.30891969 42.73674499 17.43972505 41.91186523 7.50170898 C32.34466303 6.34065982 22.84168444 6.38582979 13.22436523 6.43920898 C11.63647603 6.44423652 10.04858527 6.4487972 8.46069336 6.45288086 C4.61104498 6.46378144 0.7614727 6.48097616 -3.08813477 6.50170898 Z " fill="#000000" transform="translate(785.088134765625,665.498291015625)"/>
<path d="M0 0 C6.90577429 -0.09180498 13.80943379 -0.17145382 20.71533203 -0.21972656 C23.06468884 -0.23984814 25.41399554 -0.26714851 27.76318359 -0.30175781 C31.13912315 -0.3502504 34.51440086 -0.37296357 37.890625 -0.390625 C38.94179504 -0.41127014 39.99296509 -0.43191528 41.07598877 -0.45318604 C48.29667109 -0.45541048 48.29667109 -0.45541048 51.65893555 1.72167969 C54.06526211 5.80976262 53.61591201 9.8688645 53.5625 14.5 C53.59827148 15.92505859 53.59827148 15.92505859 53.63476562 17.37890625 C53.63283203 18.29542969 53.63089844 19.21195313 53.62890625 20.15625 C53.62963135 20.98962891 53.63035645 21.82300781 53.63110352 22.68164062 C53 25 53 25 51.14746094 27.27832031 C46.4755273 29.83389555 42.25166611 29.49625508 37.01171875 29.390625 C35.95338333 29.38496521 34.89504791 29.37930542 33.80464172 29.37347412 C30.43179674 29.35112348 27.0600227 29.30092776 23.6875 29.25 C21.39780182 29.22993338 19.10808696 29.2116829 16.81835938 29.1953125 C11.2114973 29.15466834 5.60694418 29.07637154 0 29 C0 19.43 0 9.86 0 0 Z M7 7 C7 11.62 7 16.24 7 21 C19.87 21 32.74 21 46 21 C46 16.38 46 11.76 46 7 C33.13 7 20.26 7 7 7 Z " fill="#10100F" transform="translate(485,667)"/>
<path d="M0 0 C6.90510004 -0.0494199 13.81009722 -0.08572923 20.71533203 -0.10986328 C23.06463413 -0.11992384 25.41392369 -0.13357373 27.76318359 -0.15087891 C31.13902885 -0.17512452 34.5147086 -0.18648259 37.890625 -0.1953125 C38.94179504 -0.20563507 39.99296509 -0.21595764 41.07598877 -0.22659302 C42.05670349 -0.22674408 43.03741821 -0.22689514 44.04785156 -0.22705078 C44.90944885 -0.231492 45.77104614 -0.23593323 46.65875244 -0.24050903 C49.25718057 0.02641935 50.81127052 0.58547516 53 2 C55.27947698 5.41921547 55.32513105 6.90310177 55.375 10.9375 C55.40335938 11.97777344 55.43171875 13.01804687 55.4609375 14.08984375 C54.88186488 17.74585311 53.85038654 18.70382788 51 21 C48.58282471 21.48101807 48.58282471 21.48101807 45.86425781 21.45410156 C44.33312347 21.45364838 44.33312347 21.45364838 42.77105713 21.45318604 C41.67613953 21.43254089 40.58122192 21.41189575 39.453125 21.390625 C38.3267865 21.38496521 37.200448 21.37930542 36.03997803 21.37347412 C32.44288618 21.35108545 28.84679074 21.30088213 25.25 21.25 C22.8112123 21.22993833 20.37240899 21.21168698 17.93359375 21.1953125 C11.9553453 21.15121211 5.97784158 21.0821653 0 21 C0 14.07 0 7.14 0 0 Z M7 7 C7 9.31 7 11.62 7 14 C20.53 14 34.06 14 48 14 C48 12.02 48 10.04 48 8 C46.78928204 6.56075132 46.78928204 6.56075132 43.21459961 6.88647461 C41.52717271 6.88663378 39.83974095 6.89233083 38.15234375 6.90234375 C37.2659169 6.9037587 36.37949005 6.90517365 35.46620178 6.90663147 C32.62326746 6.91224785 29.78041069 6.92480309 26.9375 6.9375 C25.01497509 6.94251289 23.09244896 6.94707616 21.16992188 6.95117188 C16.44658451 6.96222259 11.72330542 6.97949817 7 7 Z " fill="#070707" transform="translate(630,667)"/>
</svg>
